STARTFONT 2.1
FONT -FontForge-Lobster-Book-R-Normal--16-160-72-72-P-93-ISO10646-1
SIZE 16 72 72
FONTBOUNDINGBOX 32 24 -7 -8
COMMENT "Generated by fontforge, http://fontforge.sourceforge.net"
COMMENT "Copyright 2010 The Lobster Project Authors (https://github.com/impallari/The-Lobster-Font), with Reserved Font Name "Lobster"."
STARTPROPERTIES 40
FOUNDRY "FontForge"
FAMILY_NAME "Lobster"
WEIGHT_NAME "Book"
SLANT "R"
SETWIDTH_NAME "Normal"
ADD_STYLE_NAME ""
PIXEL_SIZE 16
POINT_SIZE 160
RESOLUTION_X 72
RESOLUTION_Y 72
SPACING "P"
AVERAGE_WIDTH 93
CHARSET_REGISTRY "ISO10646"
CHARSET_ENCODING "1"
FONTNAME_REGISTRY ""
CHARSET_COLLECTIONS "ISO8859-2 ISO8859-5 ISO8859-9 ISO8859-4 ISO10646-1"
FONT_NAME "Lobster-Regular"
FACE_NAME "Lobster Regular"
COPYRIGHT "Copyright 2010 The Lobster Project Authors (https://github.com/impallari/The-Lobster-Font), with Reserved Font Name "Lobster"."
FONT_VERSION "2.100"
FONT_ASCENT 13
FONT_DESCENT 3
UNDERLINE_POSITION -2
UNDERLINE_THICKNESS 1
X_HEIGHT 8
CAP_HEIGHT 11
DEFAULT_CHAR 1
RAW_ASCENT 800
RAW_DESCENT 200
NORM_SPACE 3
RELATIVE_WEIGHT 40
RELATIVE_SETWIDTH 50
SUPERSCRIPT_X 0
SUPERSCRIPT_Y 5
SUPERSCRIPT_SIZE 9
SUBSCRIPT_X 0
SUBSCRIPT_Y 1
SUBSCRIPT_SIZE 9
AVG_LOWERCASE_WIDTH 74
AVG_UPPERCASE_WIDTH 99
ENDPROPERTIES
CHARS 1148
STARTCHAR NULL.dup1
ENCODING 0
SWIDTH 600 0
DWIDTH 10 0
BBX 1 1 0 0
BITMAP
00
ENDCHAR
STARTCHAR nonmarkingreturn
ENCODING 13
SWIDTH 600 0
DWIDTH 10 0
BBX 1 1 0 0
BITMAP
00
ENDCHAR
STARTCHAR space
ENCODING 32
SWIDTH 217 0
DWIDTH 3 0
BBX 1 1 0 0
BITMAP
00
ENDCHAR
STARTCHAR exclam
ENCODING 33
SWIDTH 257 0
DWIDTH 4 0
BBX 4 12 1 0
BITMAP
10
30
70
60
60
60
40
40
40
C0
C0
C0
ENDCHAR
STARTCHAR quotedbl
ENCODING 34
SWIDTH 353 0
DWIDTH 6 0
BBX 6 4 1 8
BITMAP
6C
68
58
D0
ENDCHAR
STARTCHAR numbersign
ENCODING 35
SWIDTH 659 0
DWIDTH 11 0
BBX 8 10 1 1
BITMAP
13
12
12
7F
26
24
FF
24
44
4C
ENDCHAR
STARTCHAR dollar
ENCODING 36
SWIDTH 548 0
DWIDTH 9 0
BBX 9 16 0 -2
BITMAP
0200
0200
0F00
1580
3700
3C00
1C00
0E00
0E00
6F00
CB00
D700
5600
3C00
1000
2000
ENDCHAR
STARTCHAR percent
ENCODING 37
SWIDTH 796 0
DWIDTH 13 0
BBX 12 12 1 0
BITMAP
30C0
5880
D900
9B00
9A00
94E0
E5A0
0930
0920
1320
1160
21C0
ENDCHAR
STARTCHAR ampersand
ENCODING 38
SWIDTH 682 0
DWIDTH 11 0
BBX 11 12 0 0
BITMAP
0E00
1900
3100
3300
3800
1C20
33E0
67C0
E500
E100
E200
7C00
ENDCHAR
STARTCHAR quotesingle
ENCODING 39
SWIDTH 196 0
DWIDTH 3 0
BBX 3 3 1 9
BITMAP
60
40
C0
ENDCHAR
STARTCHAR parenleft
ENCODING 40
SWIDTH 437 0
DWIDTH 7 0
BBX 7 16 2 -4
BITMAP
06
08
10
30
20
60
60
40
C0
C0
C0
40
40
60
20
20
ENDCHAR
STARTCHAR parenright
ENCODING 41
SWIDTH 413 0
DWIDTH 7 0
BBX 6 16 -1 -4
BITMAP
10
08
08
0C
0C
0C
0C
0C
0C
08
18
18
30
20
40
80
ENDCHAR
STARTCHAR asterisk
ENCODING 42
SWIDTH 515 0
DWIDTH 8 0
BBX 6 6 1 6
BITMAP
30
DC
78
FC
54
30
ENDCHAR
STARTCHAR plus
ENCODING 43
SWIDTH 442 0
DWIDTH 7 0
BBX 6 5 0 3
BITMAP
18
10
FC
30
30
ENDCHAR
STARTCHAR comma
ENCODING 44
SWIDTH 216 0
DWIDTH 3 0
BBX 3 5 0 -3
BITMAP
60
E0
40
40
80
ENDCHAR
STARTCHAR hyphen
ENCODING 45
SWIDTH 290 0
DWIDTH 5 0
BBX 4 1 0 4
BITMAP
F0
ENDCHAR
STARTCHAR period
ENCODING 46
SWIDTH 263 0
DWIDTH 4 0
BBX 3 3 0 0
BITMAP
60
E0
60
ENDCHAR
STARTCHAR slash
ENCODING 47
SWIDTH 311 0
DWIDTH 5 0
BBX 5 16 0 -4
BITMAP
18
10
10
10
10
30
20
20
20
20
40
40
40
40
C0
80
ENDCHAR
STARTCHAR zero
ENCODING 48
SWIDTH 546 0
DWIDTH 9 0
BBX 9 12 0 0
BITMAP
0F00
1B00
3180
7180
6180
6180
E380
E300
E300
E600
6600
3C00
ENDCHAR
STARTCHAR one
ENCODING 49
SWIDTH 317 0
DWIDTH 5 0
BBX 5 12 0 0
BITMAP
08
78
38
30
30
30
30
70
60
60
60
E0
ENDCHAR
STARTCHAR two
ENCODING 50
SWIDTH 492 0
DWIDTH 8 0
BBX 8 12 0 0
BITMAP
3C
66
67
66
06
0C
18
30
60
C2
FE
9C
ENDCHAR
STARTCHAR three
ENCODING 51
SWIDTH 514 0
DWIDTH 8 0
BBX 8 12 0 0
BITMAP
1E
33
23
33
06
1C
06
67
C7
C6
C6
78
ENDCHAR
STARTCHAR four
ENCODING 52
SWIDTH 476 0
DWIDTH 8 0
BBX 8 12 0 0
BITMAP
18
1C
18
1A
32
26
45
FF
9E
0C
0C
18
ENDCHAR
STARTCHAR five
ENCODING 53
SWIDTH 517 0
DWIDTH 8 0
BBX 8 11 0 0
BITMAP
3F
3F
20
20
3E
46
07
67
C6
CE
7C
ENDCHAR
STARTCHAR six
ENCODING 54
SWIDTH 500 0
DWIDTH 8 0
BBX 8 12 0 0
BITMAP
0E
19
33
70
60
FE
E7
E3
E3
E6
66
38
ENDCHAR
STARTCHAR seven
ENCODING 55
SWIDTH 464 0
DWIDTH 7 0
BBX 7 12 1 0
BITMAP
72
FE
84
0C
18
30
30
60
60
E0
E0
60
ENDCHAR
STARTCHAR eight
ENCODING 56
SWIDTH 499 0
DWIDTH 8 0
BBX 8 12 0 0
BITMAP
1E
33
33
33
3E
1C
2E
E7
C7
C7
C6
7C
ENDCHAR
STARTCHAR nine
ENCODING 57
SWIDTH 489 0
DWIDTH 8 0
BBX 8 12 0 0
BITMAP
1E
26
63
63
C7
67
7F
06
06
CC
DC
70
ENDCHAR
STARTCHAR colon
ENCODING 58
SWIDTH 267 0
DWIDTH 4 0
BBX 3 7 1 1
BITMAP
60
E0
60
00
C0
C0
C0
ENDCHAR
STARTCHAR semicolon
ENCODING 59
SWIDTH 276 0
DWIDTH 4 0
BBX 3 9 1 -2
BITMAP
60
E0
60
00
80
C0
C0
40
80
ENDCHAR
STARTCHAR less
ENCODING 60
SWIDTH 358 0
DWIDTH 6 0
BBX 6 6 0 1
BITMAP
0C
38
E0
60
38
08
ENDCHAR
STARTCHAR equal
ENCODING 61
SWIDTH 515 0
DWIDTH 8 0
BBX 6 5 1 2
BITMAP
FC
FC
00
FC
FC
ENDCHAR
STARTCHAR greater
ENCODING 62
SWIDTH 362 0
DWIDTH 6 0
BBX 6 6 0 1
BITMAP
40
30
0C
30
C0
80
ENDCHAR
STARTCHAR question
ENCODING 63
SWIDTH 441 0
DWIDTH 7 0
BBX 6 12 1 0
BITMAP
78
CC
8C
D8
10
20
40
40
00
C0
C0
C0
ENDCHAR
STARTCHAR at
ENCODING 64
SWIDTH 688 0
DWIDTH 11 0
BBX 10 11 0 -1
BITMAP
0F80
38C0
6F40
5B40
DA40
D240
9680
9B00
8100
C200
3C00
ENDCHAR
STARTCHAR A
ENCODING 65
SWIDTH 668 0
DWIDTH 11 0
BBX 11 14 0 -2
BITMAP
00E0
01E0
02E0
06C0
04C0
7EC0
D9C0
D9C0
3180
3180
3180
6380
6000
2000
ENDCHAR
STARTCHAR B
ENCODING 66
SWIDTH 641 0
DWIDTH 10 0
BBX 10 12 0 0
BITMAP
1F00
3180
4C80
DC80
DD80
5F80
19C0
19C0
39C0
3180
3980
3700
ENDCHAR
STARTCHAR C
ENCODING 67
SWIDTH 497 0
DWIDTH 8 0
BBX 9 12 0 0
BITMAP
0F00
1900
3180
7100
7000
6000
E000
E000
E000
E080
6100
3E00
ENDCHAR
STARTCHAR D
ENCODING 68
SWIDTH 663 0
DWIDTH 11 0
BBX 10 12 0 0
BITMAP
1F00
2180
4CC0
DCC0
D8C0
D8C0
18C0
38C0
39C0
3180
3300
7E00
ENDCHAR
STARTCHAR E
ENCODING 69
SWIDTH 459 0
DWIDTH 7 0
BBX 8 12 0 0
BITMAP
0E
19
31
32
30
1C
70
60
E0
E1
E2
7C
ENDCHAR
STARTCHAR F
ENCODING 70
SWIDTH 459 0
DWIDTH 7 0
BBX 10 12 0 0
BITMAP
1FC0
6F80
5C00
DC00
D800
5F00
1800
3800
3000
3000
3000
7000
ENDCHAR
STARTCHAR G
ENCODING 71
SWIDTH 578 0
DWIDTH 9 0
BBX 9 15 0 -3
BITMAP
0F00
3980
7180
6180
E000
E000
E180
E300
6700
3B00
0300
3E00
6600
6400
3800
ENDCHAR
STARTCHAR H
ENCODING 72
SWIDTH 665 0
DWIDTH 11 0
BBX 11 12 0 0
BITMAP
1C60
3CE0
4CE0
DCC0
DCC0
5FC0
19C0
19C0
3980
3180
3180
3380
ENDCHAR
STARTCHAR I
ENCODING 73
SWIDTH 375 0
DWIDTH 6 0
BBX 6 12 0 0
BITMAP
1C
2C
4C
DC
D8
58
18
38
38
30
30
70
ENDCHAR
STARTCHAR J
ENCODING 74
SWIDTH 536 0
DWIDTH 9 0
BBX 9 15 0 -3
BITMAP
0380
0580
0B80
1B00
1300
0B00
0300
0700
0600
0600
0600
7E00
CC00
CC00
7800
ENDCHAR
STARTCHAR K
ENCODING 75
SWIDTH 601 0
DWIDTH 10 0
BBX 11 12 0 0
BITMAP
1C60
2C80
4D00
DF00
DA00
5F00
1980
3980
3B00
3300
3300
7380
ENDCHAR
STARTCHAR L
ENCODING 76
SWIDTH 379 0
DWIDTH 6 0
BBX 11 16 0 -4
BITMAP
1C00
2C00
4C00
DC00
D800
5800
1800
3800
3800
3000
3000
7000
0C00
0720
03C0
01C0
ENDCHAR
STARTCHAR M
ENCODING 77
SWIDTH 787 0
DWIDTH 13 0
BBX 12 12 1 0
BITMAP
1C70
2C70
4C70
DCE0
DCE0
7DE0
2D60
2F60
6EE0
4EE0
4EC0
CCC0
ENDCHAR
STARTCHAR N
ENCODING 78
SWIDTH 668 0
DWIDTH 11 0
BBX 11 12 0 0
BITMAP
1C20
6E20
4E60
DE60
DE60
5640
1740
33C0
33C0
3380
2380
6180
ENDCHAR
STARTCHAR O
ENCODING 79
SWIDTH 665 0
DWIDTH 11 0
BBX 11 12 0 0
BITMAP
0F80
32C0
6CC0
D8C0
D8E0
78C0
30C0
30C0
3180
3180
3300
1E00
ENDCHAR
STARTCHAR P
ENCODING 80
SWIDTH 573 0
DWIDTH 9 0
BBX 9 12 0 0
BITMAP
1F00
2180
4C80
DC80
D980
5980
1B00
3C00
3800
3000
3000
7000
ENDCHAR
STARTCHAR Q
ENCODING 81
SWIDTH 665 0
DWIDTH 11 0
BBX 11 13 0 -1
BITMAP
0F80
32C0
6CC0
D8C0
D8E0
78C0
30C0
30C0
31C0
3D80
3300
1F00
03C0
ENDCHAR
STARTCHAR R
ENCODING 82
SWIDTH 601 0
DWIDTH 10 0
BBX 9 12 0 0
BITMAP
1F00
2180
4C80
DD80
D900
5F00
1980
3980
3B00
3300
3300
7380
ENDCHAR
STARTCHAR S
ENCODING 83
SWIDTH 570 0
DWIDTH 9 0
BBX 8 12 1 0
BITMAP
1E
33
73
72
38
1C
0E
EE
C6
86
CC
78
ENDCHAR
STARTCHAR T
ENCODING 84
SWIDTH 481 0
DWIDTH 8 0
BBX 12 12 0 0
BITMAP
1F10
67E0
4FE0
CE00
CE00
CC00
0C00
1C00
1C00
1800
1800
1800
ENDCHAR
STARTCHAR U
ENCODING 85
SWIDTH 716 0
DWIDTH 11 0
BBX 12 12 0 0
BITMAP
1E30
6C30
CC70
CC60
9C60
5860
1860
18E0
38C0
18C0
1B80
0F00
ENDCHAR
STARTCHAR V
ENCODING 86
SWIDTH 615 0
DWIDTH 10 0
BBX 11 12 0 0
BITMAP
1C20
2C40
4C40
CC40
CC80
4C80
0C80
0D00
0D00
0D00
0E00
0E00
ENDCHAR
STARTCHAR W
ENCODING 87
SWIDTH 962 0
DWIDTH 15 0
BBX 17 12 0 0
BITMAP
1C3180
2C7100
4C7100
CC7200
CCB200
4CB400
0CB400
0D3400
0D3800
0D3800
0E3800
0E3000
ENDCHAR
STARTCHAR X
ENCODING 88
SWIDTH 620 0
DWIDTH 10 0
BBX 10 12 0 0
BITMAP
1C40
2E80
4E80
CF00
C600
4600
0700
0700
0B00
0B00
1380
2380
ENDCHAR
STARTCHAR Y
ENCODING 89
SWIDTH 620 0
DWIDTH 10 0
BBX 11 12 0 0
BITMAP
1C20
2E20
4E40
C640
C680
4780
0700
0700
0700
0700
0600
0E00
ENDCHAR
STARTCHAR Z
ENCODING 90
SWIDTH 542 0
DWIDTH 9 0
BBX 9 12 0 0
BITMAP
3F80
6300
2700
0E00
0E00
1C00
1C00
3800
3800
7100
7300
FE00
ENDCHAR
STARTCHAR bracketleft
ENCODING 91
SWIDTH 400 0
DWIDTH 6 0
BBX 7 16 0 -4
BITMAP
1E
18
10
10
30
30
30
20
60
60
60
40
40
C0
C0
E0
ENDCHAR
STARTCHAR backslash
ENCODING 92
SWIDTH 362 0
DWIDTH 6 0
BBX 4 16 1 -4
BITMAP
80
80
80
C0
40
40
40
40
60
20
20
20
20
10
10
10
ENDCHAR
STARTCHAR bracketright
ENCODING 93
SWIDTH 400 0
DWIDTH 6 0
BBX 7 16 -1 -4
BITMAP
1E
06
04
0C
0C
0C
08
08
18
18
18
10
10
30
30
F0
ENDCHAR
STARTCHAR asciicircum
ENCODING 94
SWIDTH 421 0
DWIDTH 7 0
BBX 4 3 1 9
BITMAP
10
70
D0
ENDCHAR
STARTCHAR underscore
ENCODING 95
SWIDTH 444 0
DWIDTH 7 0
BBX 5 1 1 0
BITMAP
F8
ENDCHAR
STARTCHAR grave
ENCODING 96
SWIDTH 201 0
DWIDTH 3 0
BBX 3 3 0 9
BITMAP
C0
40
60
ENDCHAR
STARTCHAR a
ENCODING 97
SWIDTH 526 0
DWIDTH 8 0
BBX 9 8 0 0
BITMAP
3F00
6600
E600
C600
CE00
CE80
FF00
6600
ENDCHAR
STARTCHAR b
ENCODING 98
SWIDTH 444 0
DWIDTH 7 0
BBX 7 11 0 0
BITMAP
30
70
70
7C
64
66
E4
C4
CC
C8
F0
ENDCHAR
STARTCHAR c
ENCODING 99
SWIDTH 384 0
DWIDTH 6 0
BBX 7 8 0 0
BITMAP
3C
64
6C
E0
C0
C2
C4
78
ENDCHAR
STARTCHAR d
ENCODING 100
SWIDTH 525 0
DWIDTH 8 0
BBX 9 11 0 0
BITMAP
0300
0300
0700
3F00
6600
E600
C600
CE00
CE00
CC80
7F00
ENDCHAR
STARTCHAR e
ENCODING 101
SWIDTH 384 0
DWIDTH 6 0
BBX 7 8 0 0
BITMAP
3C
64
EC
C8
F0
C2
C4
78
ENDCHAR
STARTCHAR f
ENCODING 102
SWIDTH 267 0
DWIDTH 4 0
BBX 9 16 -3 -4
BITMAP
0380
0680
0E00
0C00
0F00
0C00
0C00
1C00
1800
1800
1800
1800
7800
B000
B000
E000
ENDCHAR
STARTCHAR g
ENCODING 103
SWIDTH 507 0
DWIDTH 8 0
BBX 9 12 0 -4
BITMAP
3F00
6600
E600
C600
CE00
CE00
CC80
7F00
1C00
7C00
5800
7800
ENDCHAR
STARTCHAR h
ENCODING 104
SWIDTH 505 0
DWIDTH 8 0
BBX 10 11 -1 0
BITMAP
1800
3800
3000
3E00
3300
3300
7700
6600
6640
6680
E700
ENDCHAR
STARTCHAR i
ENCODING 105
SWIDTH 267 0
DWIDTH 4 0
BBX 5 11 0 0
BITMAP
30
70
30
60
60
60
E0
C0
C8
F0
E0
ENDCHAR
STARTCHAR j
ENCODING 106
SWIDTH 240 0
DWIDTH 4 0
BBX 8 15 -3 -4
BITMAP
06
0E
04
0C
0C
0C
1C
18
19
1A
1C
78
B0
B0
E0
ENDCHAR
STARTCHAR k
ENCODING 107
SWIDTH 518 0
DWIDTH 8 0
BBX 10 11 -1 0
BITMAP
1800
3800
3800
3380
3400
3E00
7F00
6700
6640
6780
E700
ENDCHAR
STARTCHAR l
ENCODING 108
SWIDTH 267 0
DWIDTH 4 0
BBX 5 11 0 0
BITMAP
30
70
60
60
60
60
E0
C0
C8
F0
E0
ENDCHAR
STARTCHAR m
ENCODING 109
SWIDTH 752 0
DWIDTH 12 0
BBX 14 8 -1 0
BITMAP
3FE0
3330
3770
7770
6660
6664
6668
EE70
ENDCHAR
STARTCHAR n
ENCODING 110
SWIDTH 505 0
DWIDTH 8 0
BBX 10 8 -1 0
BITMAP
3E00
3300
3300
7700
6600
6640
6680
E700
ENDCHAR
STARTCHAR o
ENCODING 111
SWIDTH 439 0
DWIDTH 7 0
BBX 9 8 0 0
BITMAP
3C00
6400
6D80
E600
C400
CC00
C800
7000
ENDCHAR
STARTCHAR p
ENCODING 112
SWIDTH 468 0
DWIDTH 7 0
BBX 8 13 -1 -4
BITMAP
38
3E
33
33
73
63
67
6E
FC
E0
C0
C0
80
ENDCHAR
STARTCHAR q
ENCODING 113
SWIDTH 486 0
DWIDTH 8 0
BBX 8 12 0 -4
BITMAP
3F
66
E6
C6
CE
CC
CC
7C
0C
1C
18
10
ENDCHAR
STARTCHAR r
ENCODING 114
SWIDTH 376 0
DWIDTH 6 0
BBX 7 8 -1 0
BITMAP
36
3E
30
70
60
60
60
E0
ENDCHAR
STARTCHAR s
ENCODING 115
SWIDTH 382 0
DWIDTH 6 0
BBX 8 9 -1 0
BITMAP
04
1C
1C
3C
2C
4C
4F
9C
78
ENDCHAR
STARTCHAR t
ENCODING 116
SWIDTH 267 0
DWIDTH 4 0
BBX 5 10 0 0
BITMAP
70
70
F0
60
60
E0
C0
C8
F0
E0
ENDCHAR
STARTCHAR u
ENCODING 117
SWIDTH 505 0
DWIDTH 8 0
BBX 9 8 0 0
BITMAP
6600
6600
6600
EE00
CC00
CC80
FF00
EE00
ENDCHAR
STARTCHAR v
ENCODING 118
SWIDTH 414 0
DWIDTH 7 0
BBX 6 8 0 0
BITMAP
6C
64
64
E4
C4
C8
F8
F0
ENDCHAR
STARTCHAR w
ENCODING 119
SWIDTH 661 0
DWIDTH 11 0
BBX 10 8 0 0
BITMAP
66C0
66C0
6640
EE40
CC40
CC80
FF80
EF00
ENDCHAR
STARTCHAR x
ENCODING 120
SWIDTH 522 0
DWIDTH 8 0
BBX 9 9 0 0
BITMAP
0300
3B00
5900
5E00
8C00
8C00
1C80
2C80
C700
ENDCHAR
STARTCHAR y
ENCODING 121
SWIDTH 486 0
DWIDTH 8 0
BBX 8 12 0 -4
BITMAP
66
66
66
EE
CC
CD
FD
FE
3C
58
58
70
ENDCHAR
STARTCHAR z
ENCODING 122
SWIDTH 428 0
DWIDTH 7 0
BBX 7 8 0 0
BITMAP
7E
4C
18
18
30
70
64
FC
ENDCHAR
STARTCHAR braceleft
ENCODING 123
SWIDTH 352 0
DWIDTH 6 0
BBX 5 16 1 -4
BITMAP
18
30
30
20
20
20
60
60
C0
40
40
C0
C0
C0
C0
E0
ENDCHAR
STARTCHAR bar
ENCODING 124
SWIDTH 532 0
DWIDTH 9 0
BBX 2 16 3 -4
BITMAP
C0
C0
C0
C0
C0
C0
C0
C0
C0
C0
C0
C0
C0
C0
C0
C0
ENDCHAR
STARTCHAR braceright
ENCODING 125
SWIDTH 352 0
DWIDTH 6 0
BBX 6 16 -1 -4
BITMAP
18
0C
0C
08
18
18
18
10
0C
30
30
30
30
30
60
E0
ENDCHAR
STARTCHAR asciitilde
ENCODING 126
SWIDTH 431 0
DWIDTH 7 0
BBX 6 2 1 9
BITMAP
20
FC
ENDCHAR
STARTCHAR uni00A0
ENCODING 160
SWIDTH 217 0
DWIDTH 3 0
BBX 1 1 0 0
BITMAP
00
ENDCHAR
STARTCHAR exclamdown
ENCODING 161
SWIDTH 219 0
DWIDTH 4 0
BBX 5 12 -1 -4
BITMAP
30
38
10
00
30
20
20
60
60
60
E0
C0
ENDCHAR
STARTCHAR cent
ENCODING 162
SWIDTH 384 0
DWIDTH 6 0
BBX 7 12 0 -1
BITMAP
08
08
3C
6E
74
D0
D0
D0
E4
78
20
20
ENDCHAR
STARTCHAR sterling
ENCODING 163
SWIDTH 455 0
DWIDTH 7 0
BBX 8 12 0 0
BITMAP
0F
19
1B
18
38
7E
30
30
30
61
7F
FE
ENDCHAR
STARTCHAR currency
ENCODING 164
SWIDTH 500 0
DWIDTH 8 0
BBX 6 5 1 3
BITMAP
FC
48
84
48
FC
ENDCHAR
STARTCHAR yen
ENCODING 165
SWIDTH 558 0
DWIDTH 9 0
BBX 8 12 1 0
BITMAP
61
71
72
32
34
3C
38
7E
38
FE
30
70
ENDCHAR
STARTCHAR brokenbar
ENCODING 166
SWIDTH 532 0
DWIDTH 9 0
BBX 2 16 3 -4
BITMAP
C0
C0
C0
C0
C0
C0
C0
00
00
C0
C0
C0
C0
C0
C0
C0
ENDCHAR
STARTCHAR section
ENCODING 167
SWIDTH 542 0
DWIDTH 9 0
BBX 8 13 0 -1
BITMAP
0F
19
19
18
3C
6E
33
3B
1F
6E
CC
CC
78
ENDCHAR
STARTCHAR dieresis
ENCODING 168
SWIDTH 392 0
DWIDTH 6 0
BBX 5 2 1 9
BITMAP
D8
D8
ENDCHAR
STARTCHAR copyright
ENCODING 169
SWIDTH 587 0
DWIDTH 9 0
BBX 8 8 1 1
BITMAP
3C
7A
A6
C1
A5
BA
46
3C
ENDCHAR
STARTCHAR ordfeminine
ENCODING 170
SWIDTH 345 0
DWIDTH 6 0
BBX 4 5 1 7
BITMAP
70
90
B0
A0
F0
ENDCHAR
STARTCHAR guillemotleft
ENCODING 171
SWIDTH 589 0
DWIDTH 9 0
BBX 9 5 0 2
BITMAP
0880
3300
CC00
6C00
1300
ENDCHAR
STARTCHAR logicalnot
ENCODING 172
SWIDTH 444 0
DWIDTH 7 0
BBX 6 3 0 2
BITMAP
FC
0C
0C
ENDCHAR
STARTCHAR uni00AD
ENCODING 173
SWIDTH 290 0
DWIDTH 5 0
BBX 4 1 0 4
BITMAP
F0
ENDCHAR
STARTCHAR registered
ENCODING 174
SWIDTH 553 0
DWIDTH 9 0
BBX 7 8 1 1
BITMAP
38
FC
AA
BA
AA
AA
C4
38
ENDCHAR
STARTCHAR macron
ENCODING 175
SWIDTH 446 0
DWIDTH 7 0
BBX 6 1 1 9
BITMAP
FC
ENDCHAR
STARTCHAR degree
ENCODING 176
SWIDTH 314 0
DWIDTH 5 0
BBX 4 6 1 6
BITMAP
60
A0
B0
A0
A0
C0
ENDCHAR
STARTCHAR plusminus
ENCODING 177
SWIDTH 479 0
DWIDTH 8 0
BBX 7 8 0 2
BITMAP
08
08
7E
10
10
10
00
FC
ENDCHAR
STARTCHAR uni00B2
ENCODING 178
SWIDTH 328 0
DWIDTH 5 0
BBX 4 7 1 5
BITMAP
70
90
50
20
40
80
F0
ENDCHAR
STARTCHAR uni00B3
ENCODING 179
SWIDTH 336 0
DWIDTH 5 0
BBX 4 7 1 5
BITMAP
70
50
50
20
D0
B0
60
ENDCHAR
STARTCHAR acute
ENCODING 180
SWIDTH 316 0
DWIDTH 5 0
BBX 3 3 2 9
BITMAP
60
40
80
ENDCHAR
STARTCHAR uni00B5
ENCODING 181
SWIDTH 505 0
DWIDTH 8 0
BBX 10 11 -1 -3
BITMAP
3300
3300
3300
7700
6600
6640
6E80
F700
E000
C000
8000
ENDCHAR
STARTCHAR paragraph
ENCODING 182
SWIDTH 542 0
DWIDTH 9 0
BBX 7 13 1 -1
BITMAP
3C
7A
FA
FE
FE
F6
7C
34
3C
3C
2C
28
78
ENDCHAR
STARTCHAR periodcentered
ENCODING 183
SWIDTH 434 0
DWIDTH 7 0
BBX 3 3 2 3
BITMAP
E0
E0
E0
ENDCHAR
STARTCHAR cedilla
ENCODING 184
SWIDTH 227 0
DWIDTH 4 0
BBX 4 4 0 -4
BITMAP
40
60
30
E0
ENDCHAR
STARTCHAR uni00B9
ENCODING 185
SWIDTH 229 0
DWIDTH 4 0
BBX 3 7 1 5
BITMAP
20
C0
40
C0
C0
80
80
ENDCHAR
STARTCHAR ordmasculine
ENCODING 186
SWIDTH 329 0
DWIDTH 5 0
BBX 4 5 1 7
BITMAP
60
B0
A0
A0
C0
ENDCHAR
STARTCHAR guillemotright
ENCODING 187
SWIDTH 586 0
DWIDTH 9 0
BBX 9 5 0 2
BITMAP
4400
3200
0980
1B00
EC00
ENDCHAR
STARTCHAR onequarter
ENCODING 188
SWIDTH 749 0
DWIDTH 12 0
BBX 11 12 1 0
BITMAP
2180
C100
4200
C600
C400
89E0
89E0
1140
1140
23E0
20C0
40C0
ENDCHAR
STARTCHAR onehalf
ENCODING 189
SWIDTH 745 0
DWIDTH 12 0
BBX 11 12 1 0
BITMAP
2180
C100
4200
C600
C400
88C0
8960
1160
1040
2080
2100
43C0
ENDCHAR
STARTCHAR threequarters
ENCODING 190
SWIDTH 836 0
DWIDTH 13 0
BBX 12 12 1 0
BITMAP
7040
5080
5180
2100
D200
B250
6450
0470
08B0
08F0
1020
3060
ENDCHAR
STARTCHAR questiondown
ENCODING 191
SWIDTH 439 0
DWIDTH 7 0
BBX 6 12 0 -4
BITMAP
0C
1C
0C
00
08
18
30
60
CC
CC
CC
78
ENDCHAR
STARTCHAR Agrave
ENCODING 192
SWIDTH 668 0
DWIDTH 11 0
BBX 11 18 0 -2
BITMAP
00C0
00C0
0040
0000
00E0
01E0
02E0
06C0
04C0
7EC0
D9C0
D9C0
3180
3180
3180
6380
6000
2000
ENDCHAR
STARTCHAR Aacute
ENCODING 193
SWIDTH 668 0
DWIDTH 11 0
BBX 12 18 0 -2
BITMAP
0010
0030
0060
0000
00E0
01E0
02E0
06C0
04C0
7EC0
D9C0
D9C0
3180
3180
3180
6380
6000
2000
ENDCHAR
STARTCHAR Acircumflex
ENCODING 194
SWIDTH 668 0
DWIDTH 11 0
BBX 12 18 0 -2
BITMAP
0010
0030
00D0
0000
00E0
01E0
02E0
06C0
04C0
7EC0
D9C0
D9C0
3180
3180
3180
6380
6000
2000
ENDCHAR
STARTCHAR Atilde
ENCODING 195
SWIDTH 668 0
DWIDTH 11 0
BBX 13 17 0 -2
BITMAP
0040
01F8
0000
00E0
01E0
02E0
06C0
04C0
7EC0
D9C0
D9C0
3180
3180
3180
6380
6000
2000
ENDCHAR
STARTCHAR Adieresis
ENCODING 196
SWIDTH 668 0
DWIDTH 11 0
BBX 12 17 0 -2
BITMAP
01B0
01B0
0000
00E0
01E0
02E0
06C0
04C0
7EC0
D9C0
D9C0
3180
3180
3180
6380
6000
2000
ENDCHAR
STARTCHAR Aring
ENCODING 197
SWIDTH 668 0
DWIDTH 11 0
BBX 11 17 0 -2
BITMAP
0060
00A0
0060
00E0
01E0
02E0
06C0
04C0
7EC0
D9C0
D9C0
3180
3180
3180
6380
6000
2000
ENDCHAR
STARTCHAR AE
ENCODING 198
SWIDTH 764 0
DWIDTH 12 0
BBX 15 14 0 -2
BITMAP
00E2
01FC
02E0
04C0
04C0
7FF0
D9C0
1980
3180
3180
31F8
63F0
6000
2000
ENDCHAR
STARTCHAR Ccedilla
ENCODING 199
SWIDTH 497 0
DWIDTH 8 0
BBX 9 15 0 -3
BITMAP
0F00
1900
3180
7100
6000
6000
E000
E000
E000
E100
7E00
3800
1800
0C00
3800
ENDCHAR
STARTCHAR Egrave
ENCODING 200
SWIDTH 459 0
DWIDTH 7 0
BBX 8 16 0 0
BITMAP
0C
04
04
00
0E
19
31
32
30
1C
70
60
E0
E1
E2
7C
ENDCHAR
STARTCHAR Eacute
ENCODING 201
SWIDTH 459 0
DWIDTH 7 0
BBX 8 16 0 0
BITMAP
03
02
06
00
0E
19
31
32
30
1C
70
60
E0
E1
E2
7C
ENDCHAR
STARTCHAR Ecircumflex
ENCODING 202
SWIDTH 459 0
DWIDTH 7 0
BBX 8 16 0 0
BITMAP
02
06
19
00
0E
19
31
32
30
1C
70
60
E0
E1
E2
7C
ENDCHAR
STARTCHAR Edieresis
ENCODING 203
SWIDTH 459 0
DWIDTH 7 0
BBX 9 15 0 0
BITMAP
0D80
0D00
0000
0E00
1900
3100
3200
3000
1C00
7000
6000
E000
E100
E200
7C00
ENDCHAR
STARTCHAR Igrave
ENCODING 204
SWIDTH 375 0
DWIDTH 6 0
BBX 6 16 0 0
BITMAP
18
08
0C
00
1C
2C
4C
DC
D8
58
18
38
38
30
30
70
ENDCHAR
STARTCHAR Iacute
ENCODING 205
SWIDTH 375 0
DWIDTH 6 0
BBX 8 16 0 0
BITMAP
03
02
04
00
1C
2C
4C
DC
D8
58
18
38
38
30
30
70
ENDCHAR
STARTCHAR Icircumflex
ENCODING 206
SWIDTH 375 0
DWIDTH 6 0
BBX 7 16 0 0
BITMAP
02
06
1A
00
1C
2C
4C
DC
D8
58
18
38
38
30
30
70
ENDCHAR
STARTCHAR Idieresis
ENCODING 207
SWIDTH 375 0
DWIDTH 6 0
BBX 8 15 0 0
BITMAP
1B
1B
00
1C
2C
4C
DC
D8
58
18
38
38
30
30
70
ENDCHAR
STARTCHAR Eth
ENCODING 208
SWIDTH 663 0
DWIDTH 11 0
BBX 10 12 0 0
BITMAP
1F00
21C0
4CC0
DCC0
D8C0
3EC0
18C0
38C0
39C0
3180
3300
7E00
ENDCHAR
STARTCHAR Ntilde
ENCODING 209
SWIDTH 686 0
DWIDTH 11 0
BBX 11 15 0 0
BITMAP
03E0
05C0
0000
1C20
6E20
4E60
DE60
DE60
5640
1740
33C0
33C0
3380
2380
6180
ENDCHAR
STARTCHAR Ograve
ENCODING 210
SWIDTH 665 0
DWIDTH 11 0
BBX 11 16 0 0
BITMAP
0600
0600
0200
0000
0F80
32C0
6CC0
D8C0
D8E0
78C0
30C0
30C0
3180
3180
3300
1E00
ENDCHAR
STARTCHAR Oacute
ENCODING 211
SWIDTH 665 0
DWIDTH 11 0
BBX 11 16 0 0
BITMAP
0080
0180
0300
0000
0F80
32C0
6CC0
D8C0
D8E0
78C0
30C0
30C0
3180
3180
3300
1E00
ENDCHAR
STARTCHAR Ocircumflex
ENCODING 212
SWIDTH 665 0
DWIDTH 11 0
BBX 11 16 0 0
BITMAP
0100
0380
0C80
0000
0F80
32C0
6CC0
D8C0
D8E0
78C0
30C0
30C0
3180
3180
3300
1E00
ENDCHAR
STARTCHAR Otilde
ENCODING 213
SWIDTH 665 0
DWIDTH 11 0
BBX 11 15 0 0
BITMAP
0120
0FC0
0000
0F80
32C0
6CC0
D8C0
D8E0
78C0
30C0
30C0
3180
3180
3300
1E00
ENDCHAR
STARTCHAR Odieresis
ENCODING 214
SWIDTH 665 0
DWIDTH 11 0
BBX 11 15 0 0
BITMAP
0480
0780
0000
0F80
32C0
6CC0
D8C0
D8E0
78C0
30C0
30C0
3180
3180
3300
1E00
ENDCHAR
STARTCHAR multiply
ENCODING 215
SWIDTH 414 0
DWIDTH 7 0
BBX 5 5 1 3
BITMAP
98
F0
60
F0
98
ENDCHAR
STARTCHAR Oslash
ENCODING 216
SWIDTH 658 0
DWIDTH 11 0
BBX 10 13 0 -1
BITMAP
0100
0F80
3EC0
5AC0
DAC0
FAC0
32C0
35C0
3580
3580
3700
1E00
0800
ENDCHAR
STARTCHAR Ugrave
ENCODING 217
SWIDTH 716 0
DWIDTH 11 0
BBX 12 16 0 0
BITMAP
0300
0100
0180
0000
1E30
6C30
CC70
CC60
9C60
5860
18E0
18C0
38C0
39C0
1F80
1F00
ENDCHAR
STARTCHAR Uacute
ENCODING 218
SWIDTH 716 0
DWIDTH 11 0
BBX 12 16 0 0
BITMAP
00C0
0080
0180
0000
1E30
6C30
CC70
CC60
9C60
5860
18E0
18C0
38C0
39C0
1F80
1F00
ENDCHAR
STARTCHAR Ucircumflex
ENCODING 219
SWIDTH 716 0
DWIDTH 11 0
BBX 12 16 0 0
BITMAP
0040
01C0
0240
0000
1E30
6C30
CC70
CC60
9C60
5860
18E0
18C0
38C0
39C0
1F80
1F00
ENDCHAR
STARTCHAR Udieresis
ENCODING 220
SWIDTH 716 0
DWIDTH 11 0
BBX 12 15 0 0
BITMAP
0360
0360
0000
1E30
6C30
CC70
CC60
9C60
5860
18E0
18C0
38C0
39C0
1F80
1F00
ENDCHAR
STARTCHAR Yacute
ENCODING 221
SWIDTH 620 0
DWIDTH 10 0
BBX 11 16 0 0
BITMAP
0060
0040
0080
0000
1C20
2E20
4E40
C640
C680
4780
0700
0700
0700
0700
0600
0E00
ENDCHAR
STARTCHAR Thorn
ENCODING 222
SWIDTH 583 0
DWIDTH 9 0
BBX 9 12 0 0
BITMAP
0C00
0C00
3F00
5D80
D880
D880
D980
3B00
3E00
3000
3000
7000
ENDCHAR
STARTCHAR germandbls
ENCODING 223
SWIDTH 480 0
DWIDTH 8 0
BBX 8 15 -1 -4
BITMAP
0E
1B
3B
32
32
36
72
73
63
63
6E
E0
C0
C0
80
ENDCHAR
STARTCHAR agrave
ENCODING 224
SWIDTH 526 0
DWIDTH 8 0
BBX 9 12 0 0
BITMAP
1800
0800
0C00
0000
3F00
6600
E600
C600
CE00
CE80
FF00
6600
ENDCHAR
STARTCHAR aacute
ENCODING 225
SWIDTH 526 0
DWIDTH 8 0
BBX 9 12 0 0
BITMAP
0600
0400
0800
0000
3F00
6600
E600
C600
CE00
CE80
FF00
6600
ENDCHAR
STARTCHAR acircumflex
ENCODING 226
SWIDTH 526 0
DWIDTH 8 0
BBX 9 12 0 0
BITMAP
0400
0E00
1200
2000
3F00
6600
E600
C600
CE00
CE80
FF00
6600
ENDCHAR
STARTCHAR atilde
ENCODING 227
SWIDTH 526 0
DWIDTH 8 0
BBX 9 11 0 0
BITMAP
1F00
2E00
0000
3F00
6600
E600
C600
CE00
CE80
FF00
6600
ENDCHAR
STARTCHAR adieresis
ENCODING 228
SWIDTH 526 0
DWIDTH 8 0
BBX 9 11 0 0
BITMAP
1B00
1B00
0000
3F00
6600
E600
C600
CE00
CE80
FF00
6600
ENDCHAR
STARTCHAR aring
ENCODING 229
SWIDTH 526 0
DWIDTH 8 0
BBX 9 11 0 0
BITMAP
0C00
0C00
0000
3F00
6600
E600
C600
CE00
CE80
FF00
6600
ENDCHAR
STARTCHAR ae
ENCODING 230
SWIDTH 650 0
DWIDTH 10 0
BBX 11 8 0 0
BITMAP
3FC0
4740
0640
7E80
EF00
CC20
CE40
F780
ENDCHAR
STARTCHAR ccedilla
ENCODING 231
SWIDTH 384 0
DWIDTH 6 0
BBX 7 12 0 -4
BITMAP
3C
64
6C
E0
C0
C2
C4
78
20
38
08
70
ENDCHAR
STARTCHAR egrave
ENCODING 232
SWIDTH 384 0
DWIDTH 6 0
BBX 7 12 0 0
BITMAP
10
10
18
00
3C
64
EC
C8
F0
C2
C4
78
ENDCHAR
STARTCHAR eacute
ENCODING 233
SWIDTH 384 0
DWIDTH 6 0
BBX 7 12 0 0
BITMAP
06
0C
08
00
3C
64
EC
C8
F0
C2
C4
78
ENDCHAR
STARTCHAR ecircumflex
ENCODING 234
SWIDTH 384 0
DWIDTH 6 0
BBX 7 12 0 0
BITMAP
04
1C
34
00
3C
64
EC
C8
F0
C2
C4
78
ENDCHAR
STARTCHAR edieresis
ENCODING 235
SWIDTH 384 0
DWIDTH 6 0
BBX 7 11 0 0
BITMAP
36
36
00
3C
64
EC
C8
F0
C2
C4
78
ENDCHAR
STARTCHAR igrave
ENCODING 236
SWIDTH 267 0
DWIDTH 4 0
BBX 5 12 0 0
BITMAP
60
60
20
00
60
60
60
E0
C0
C8
F0
E0
ENDCHAR
STARTCHAR iacute
ENCODING 237
SWIDTH 267 0
DWIDTH 4 0
BBX 5 12 0 0
BITMAP
18
10
20
00
60
60
60
E0
C0
C8
F0
E0
ENDCHAR
STARTCHAR icircumflex
ENCODING 238
SWIDTH 267 0
DWIDTH 4 0
BBX 5 12 0 0
BITMAP
10
30
C8
00
60
60
60
E0
C0
C8
F0
E0
ENDCHAR
STARTCHAR idieresis
ENCODING 239
SWIDTH 267 0
DWIDTH 4 0
BBX 5 11 0 0
BITMAP
D8
D8
00
60
60
60
E0
C0
C8
F0
E0
ENDCHAR
STARTCHAR eth
ENCODING 240
SWIDTH 526 0
DWIDTH 8 0
BBX 9 12 0 0
BITMAP
0C00
0780
1E00
0600
3F00
6600
E600
C600
CE00
CE00
CC80
7F00
ENDCHAR
STARTCHAR ntilde
ENCODING 241
SWIDTH 505 0
DWIDTH 8 0
BBX 10 11 -1 0
BITMAP
1E80
2700
0000
3E00
3300
3300
7700
6600
6640
6680
E700
ENDCHAR
STARTCHAR ograve
ENCODING 242
SWIDTH 433 0
DWIDTH 7 0
BBX 9 12 0 0
BITMAP
1800
1800
0800
0000
3800
6400
EF80
C400
C400
CC00
C800
F000
ENDCHAR
STARTCHAR oacute
ENCODING 243
SWIDTH 439 0
DWIDTH 7 0
BBX 9 12 0 0
BITMAP
0600
0C00
0800
0000
3C00
6400
6D80
E600
C400
CC00
C800
7000
ENDCHAR
STARTCHAR ocircumflex
ENCODING 244
SWIDTH 433 0
DWIDTH 7 0
BBX 9 12 0 0
BITMAP
0800
1C00
2400
0000
3800
6400
EF80
C400
C400
CC00
C800
F000
ENDCHAR
STARTCHAR otilde
ENCODING 245
SWIDTH 433 0
DWIDTH 7 0
BBX 9 11 0 0
BITMAP
7A00
9C00
0000
3800
6400
EF80
C400
C400
CC00
C800
F000
ENDCHAR
STARTCHAR odieresis
ENCODING 246
SWIDTH 433 0
DWIDTH 7 0
BBX 9 11 0 0
BITMAP
3600
2400
0000
3800
6400
EF80
C400
C400
CC00
C800
F000
ENDCHAR
STARTCHAR divide
ENCODING 247
SWIDTH 415 0
DWIDTH 7 0
BBX 6 8 1 1
BITMAP
30
30
00
FC
00
60
60
60
ENDCHAR
STARTCHAR oslash
ENCODING 248
SWIDTH 428 0
DWIDTH 7 0
BBX 9 9 -1 -1
BITMAP
1F80
3200
7200
7600
6A00
7600
6400
7800
8000
ENDCHAR
STARTCHAR ugrave
ENCODING 249
SWIDTH 505 0
DWIDTH 8 0
BBX 9 12 0 0
BITMAP
1800
1800
0800
0000
6600
6600
6600
EE00
CC00
CC80
FF00
EE00
ENDCHAR
STARTCHAR uacute
ENCODING 250
SWIDTH 505 0
DWIDTH 8 0
BBX 9 12 0 0
BITMAP
0600
0400
0800
0000
6600
6600
6600
EE00
CC00
CC80
FF00
EE00
ENDCHAR
STARTCHAR ucircumflex
ENCODING 251
SWIDTH 505 0
DWIDTH 8 0
BBX 9 12 0 0
BITMAP
0400
0C00
3200
0000
6600
6600
6600
EE00
CC00
CC80
FF00
EE00
ENDCHAR
STARTCHAR udieresis
ENCODING 252
SWIDTH 505 0
DWIDTH 8 0
BBX 9 11 0 0
BITMAP
3600
3600
0000
6600
6600
6600
EE00
CC00
CC80
FF00
EE00
ENDCHAR
STARTCHAR yacute
ENCODING 253
SWIDTH 505 0
DWIDTH 8 0
BBX 8 16 0 -4
BITMAP
06
04
08
00
66
66
66
EE
CC
CD
FD
FE
3C
58
58
70
ENDCHAR
STARTCHAR thorn
ENCODING 254
SWIDTH 473 0
DWIDTH 8 0
BBX 8 16 -1 -4
BITMAP
18
18
38
30
3E
33
33
73
63
67
66
FC
E0
C0
C0
80
ENDCHAR
STARTCHAR ydieresis
ENCODING 255
SWIDTH 505 0
DWIDTH 8 0
BBX 8 15 0 -4
BITMAP
36
36
00
66
66
66
EE
CC
CD
FD
FE
3C
58
58
70
ENDCHAR
STARTCHAR Amacron
ENCODING 256
SWIDTH 668 0
DWIDTH 11 0
BBX 13 16 0 -2
BITMAP
01F8
0000
00E0
01E0
02E0
06C0
04C0
7EC0
D9C0
D9C0
3180
3180
3180
6380
6000
2000
ENDCHAR
STARTCHAR amacron
ENCODING 257
SWIDTH 526 0
DWIDTH 8 0
BBX 9 11 0 0
BITMAP
1F00
0000
0000
3F00
6600
E600
C600
CE00
CE80
FF00
6600
ENDCHAR
STARTCHAR Abreve
ENCODING 258
SWIDTH 668 0
DWIDTH 11 0
BBX 13 17 0 -2
BITMAP
0188
00F0
0000
00E0
01E0
02E0
06C0
04C0
7EC0
D9C0
D9C0
3180
3180
3180
6380
6000
2000
ENDCHAR
STARTCHAR abreve
ENCODING 259
SWIDTH 526 0
DWIDTH 8 0
BBX 9 12 0 0
BITMAP
3100
1300
1E00
0000
3F00
6600
E600
C600
CE00
CE80
FF00
6600
ENDCHAR
STARTCHAR Aogonek
ENCODING 260
SWIDTH 668 0
DWIDTH 11 0
BBX 11 15 0 -3
BITMAP
00E0
01E0
02E0
06C0
04C0
7EC0
D9C0
D9C0
3180
3180
3180
6380
6200
2200
0380
ENDCHAR
STARTCHAR aogonek
ENCODING 261
SWIDTH 526 0
DWIDTH 8 0
BBX 9 11 0 -3
BITMAP
3F00
6600
E600
C600
CE00
CE80
CC80
7F00
0400
0500
0600
ENDCHAR
STARTCHAR Cacute
ENCODING 262
SWIDTH 497 0
DWIDTH 8 0
BBX 9 16 0 0
BITMAP
0180
0300
0600
0000
0F00
1900
3180
7100
7000
6000
E000
E000
E000
E080
6100
3E00
ENDCHAR
STARTCHAR cacute
ENCODING 263
SWIDTH 384 0
DWIDTH 6 0
BBX 7 12 0 0
BITMAP
06
04
0C
00
3C
64
6C
E0
C0
C2
C4
78
ENDCHAR
STARTCHAR Ccircumflex
ENCODING 264
SWIDTH 497 0
DWIDTH 8 0
BBX 9 16 0 0
BITMAP
0200
0600
1900
0000
0F00
1900
3180
7100
7000
6000
E000
E000
E000
E080
6100
3E00
ENDCHAR
STARTCHAR ccircumflex
ENCODING 265
SWIDTH 384 0
DWIDTH 6 0
BBX 7 12 0 0
BITMAP
04
1C
34
00
3C
64
6C
E0
C0
C2
C4
78
ENDCHAR
STARTCHAR Cdotaccent
ENCODING 266
SWIDTH 497 0
DWIDTH 8 0
BBX 9 15 0 0
BITMAP
0300
0300
0000
0F00
1900
3180
7100
7000
6000
E000
E000
E000
E080
6100
3E00
ENDCHAR
STARTCHAR cdotaccent
ENCODING 267
SWIDTH 384 0
DWIDTH 6 0
BBX 7 12 0 0
BITMAP
0C
1C
0C
00
3C
64
6C
E0
C0
C2
C4
78
ENDCHAR
STARTCHAR Ccaron
ENCODING 268
SWIDTH 497 0
DWIDTH 8 0
BBX 9 16 0 0
BITMAP
0480
0700
0600
0000
0F00
1900
3180
7100
7000
6000
E000
E000
E000
E080
6100
3E00
ENDCHAR
STARTCHAR ccaron
ENCODING 269
SWIDTH 384 0
DWIDTH 6 0
BBX 8 12 0 0
BITMAP
13
0C
08
00
3C
64
68
C0
C0
C2
EC
70
ENDCHAR
STARTCHAR Dcaron
ENCODING 270
SWIDTH 663 0
DWIDTH 11 0
BBX 10 16 0 0
BITMAP
0480
0700
0200
0000
1F00
2180
4CC0
DCC0
D8C0
D8C0
18C0
38C0
39C0
3180
3300
7E00
ENDCHAR
STARTCHAR dcaron
ENCODING 271
SWIDTH 525 0
DWIDTH 8 0
BBX 11 12 0 0
BITMAP
0060
0360
0340
0300
3F00
6600
E600
C600
CE00
CE00
CC80
7F00
ENDCHAR
STARTCHAR Dcroat
ENCODING 272
SWIDTH 663 0
DWIDTH 11 0
BBX 10 12 0 0
BITMAP
1F00
21C0
4CC0
DCC0
D8C0
3EC0
18C0
38C0
39C0
3180
3300
7E00
ENDCHAR
STARTCHAR dcroat
ENCODING 273
SWIDTH 525 0
DWIDTH 8 0
BBX 9 11 0 0
BITMAP
0300
0F80
0700
3F00
6600
E600
C600
CE00
CE00
CC80
7F00
ENDCHAR
STARTCHAR Emacron
ENCODING 274
SWIDTH 459 0
DWIDTH 7 0
BBX 9 15 0 0
BITMAP
0F80
0000
0000
0E00
1900
3100
3200
3000
1C00
7000
6000
E000
E100
E200
7C00
ENDCHAR
STARTCHAR emacron
ENCODING 275
SWIDTH 384 0
DWIDTH 6 0
BBX 7 11 0 0
BITMAP
7E
00
00
3C
64
EC
C8
F0
C2
C4
78
ENDCHAR
STARTCHAR Ebreve
ENCODING 276
SWIDTH 459 0
DWIDTH 7 0
BBX 9 16 0 0
BITMAP
0880
0880
0F00
0000
0E00
1900
3100
3200
3000
1C00
7000
6000
E000
E100
E200
7C00
ENDCHAR
STARTCHAR ebreve
ENCODING 277
SWIDTH 384 0
DWIDTH 6 0
BBX 7 12 0 0
BITMAP
62
64
38
00
3C
64
EC
C8
F0
C2
C4
78
ENDCHAR
STARTCHAR Edotaccent
ENCODING 278
SWIDTH 459 0
DWIDTH 7 0
BBX 8 15 0 0
BITMAP
07
07
00
0E
19
31
32
30
1C
70
60
E0
E1
E2
7C
ENDCHAR
STARTCHAR edotaccent
ENCODING 279
SWIDTH 384 0
DWIDTH 6 0
BBX 7 12 0 0
BITMAP
0C
1C
0C
00
3C
64
EC
C8
F0
C2
C4
78
ENDCHAR
STARTCHAR Eogonek
ENCODING 280
SWIDTH 459 0
DWIDTH 7 0
BBX 8 15 0 -3
BITMAP
1E
31
71
33
30
1C
70
E0
E0
E1
72
3C
08
0A
0C
ENDCHAR
STARTCHAR eogonek
ENCODING 281
SWIDTH 384 0
DWIDTH 6 0
BBX 7 11 0 -3
BITMAP
3C
64
EC
C8
F0
C2
C4
78
20
20
38
ENDCHAR
STARTCHAR Ecaron
ENCODING 282
SWIDTH 459 0
DWIDTH 7 0
BBX 9 16 0 0
BITMAP
0480
0700
0200
0000
0E00
1900
3100
3200
3000
1C00
7000
6000
E000
E100
E200
7C00
ENDCHAR
STARTCHAR ecaron
ENCODING 283
SWIDTH 384 0
DWIDTH 6 0
BBX 8 12 0 0
BITMAP
13
0C
08
00
3C
64
EC
C8
F0
C2
C4
78
ENDCHAR
STARTCHAR Gcircumflex
ENCODING 284
SWIDTH 578 0
DWIDTH 9 0
BBX 9 19 0 -3
BITMAP
0100
0300
0C80
0000
0F00
3880
7180
6000
E000
E180
E300
E300
6700
3B00
0300
3E00
6600
6400
3800
ENDCHAR
STARTCHAR gcircumflex
ENCODING 285
SWIDTH 507 0
DWIDTH 8 0
BBX 9 16 0 -4
BITMAP
0400
0E00
1200
2000
3F00
6600
E600
C600
CE00
CE00
CC80
7F00
1C00
7C00
5800
7800
ENDCHAR
STARTCHAR Gbreve
ENCODING 286
SWIDTH 578 0
DWIDTH 9 0
BBX 10 18 0 -3
BITMAP
0C40
0780
0000
0F00
3980
7180
6180
E000
E000
E180
E300
6700
3B00
0300
3E00
6600
6400
3800
ENDCHAR
STARTCHAR gbreve
ENCODING 287
SWIDTH 507 0
DWIDTH 8 0
BBX 9 16 0 -4
BITMAP
3100
1300
1E00
0000
3F00
6600
E600
C600
CE00
CE00
CC80
7F00
1C00
7C00
5800
7800
ENDCHAR
STARTCHAR Gdotaccent
ENCODING 288
SWIDTH 578 0
DWIDTH 9 0
BBX 9 18 0 -3
BITMAP
0700
0300
0000
0F00
3980
7180
6180
E000
E000
E180
E300
6700
3B00
0300
3E00
6600
6400
3800
ENDCHAR
STARTCHAR gdotaccent
ENCODING 289
SWIDTH 507 0
DWIDTH 8 0
BBX 9 16 0 -4
BITMAP
0C00
0E00
0400
0000
3F00
6600
E600
C600
CE00
CE00
CC80
7F00
1C00
7C00
5800
7800
ENDCHAR
STARTCHAR Gcommaaccent
ENCODING 290
SWIDTH 578 0
DWIDTH 9 0
BBX 9 16 0 -4
BITMAP
0F00
1900
3100
7300
6000
E000
E180
E300
E300
E300
6700
7E00
0000
1800
0800
1000
ENDCHAR
STARTCHAR gcommaaccent
ENCODING 291
SWIDTH 507 0
DWIDTH 8 0
BBX 9 16 0 -4
BITMAP
0400
0C00
0C00
0000
3F00
6600
E600
C600
CE00
CE00
CC80
7F00
1C00
7C00
5800
7800
ENDCHAR
STARTCHAR Hcircumflex
ENCODING 292
SWIDTH 665 0
DWIDTH 11 0
BBX 11 16 0 0
BITMAP
0080
01C0
0640
0000
1C60
3CE0
4CE0
DCC0
DCC0
5FC0
19C0
19C0
3980
3180
3180
3380
ENDCHAR
STARTCHAR hcircumflex
ENCODING 293
SWIDTH 505 0
DWIDTH 8 0
BBX 10 15 -1 0
BITMAP
0400
0C00
1C00
2200
1800
3800
3000
3E00
3300
3300
7700
6600
6640
6680
E700
ENDCHAR
STARTCHAR Hbar
ENCODING 294
SWIDTH 665 0
DWIDTH 11 0
BBX 12 12 0 0
BITMAP
1C60
2CE0
4CE0
DFF0
DCC0
5FC0
19C0
19C0
3980
3180
3180
3380
ENDCHAR
STARTCHAR hbar
ENCODING 295
SWIDTH 505 0
DWIDTH 8 0
BBX 10 11 -1 0
BITMAP
1800
7C00
3000
3E00
3300
3300
7700
6600
6640
6680
E700
ENDCHAR
STARTCHAR Itilde
ENCODING 296
SWIDTH 375 0
DWIDTH 6 0
BBX 9 15 0 0
BITMAP
0880
3F00
0000
1C00
2C00
4C00
DC00
D800
5800
1800
3800
3800
3000
3000
7000
ENDCHAR
STARTCHAR itilde
ENCODING 297
SWIDTH 267 0
DWIDTH 4 0
BBX 5 11 0 0
BITMAP
78
B0
00
60
60
60
E0
C0
C8
F0
E0
ENDCHAR
STARTCHAR Imacron
ENCODING 298
SWIDTH 375 0
DWIDTH 6 0
BBX 8 14 0 0
BITMAP
3F
00
1C
2C
4C
DC
D8
58
18
38
38
30
30
70
ENDCHAR
STARTCHAR imacron
ENCODING 299
SWIDTH 267 0
DWIDTH 4 0
BBX 5 11 0 0
BITMAP
F8
00
00
60
60
60
E0
C0
C8
F0
E0
ENDCHAR
STARTCHAR Ibreve
ENCODING 300
SWIDTH 375 0
DWIDTH 6 0
BBX 9 15 0 0
BITMAP
1180
1E00
0000
1C00
2C00
4C00
DC00
D800
5800
1800
3800
3800
3000
3000
7000
ENDCHAR
STARTCHAR ibreve
ENCODING 301
SWIDTH 267 0
DWIDTH 4 0
BBX 5 12 0 0
BITMAP
48
48
70
00
60
60
60
E0
C0
C8
F0
E0
ENDCHAR
STARTCHAR Iogonek
ENCODING 302
SWIDTH 375 0
DWIDTH 6 0
BBX 6 19 0 -3
BITMAP
10
18
08
00
1C
2C
4C
DC
D8
58
18
38
38
30
30
30
40
48
70
ENDCHAR
STARTCHAR iogonek
ENCODING 303
SWIDTH 267 0
DWIDTH 4 0
BBX 6 14 -1 -3
BITMAP
18
38
18
30
30
30
70
60
64
78
70
40
D0
60
ENDCHAR
STARTCHAR Idotaccent
ENCODING 304
SWIDTH 375 0
DWIDTH 6 0
BBX 7 15 0 0
BITMAP
0E
06
00
1C
2C
4C
DC
D8
58
18
38
38
30
30
70
ENDCHAR
STARTCHAR dotlessi
ENCODING 305
SWIDTH 267 0
DWIDTH 4 0
BBX 5 8 0 0
BITMAP
60
60
60
E0
C0
C8
F0
E0
ENDCHAR
STARTCHAR IJ
ENCODING 306
SWIDTH 663 0
DWIDTH 11 0
BBX 11 15 0 -3
BITMAP
1CE0
2CC0
4CC0
DCC0
D9C0
59C0
1980
3980
3980
3380
3380
3B00
6300
2600
1C00
ENDCHAR
STARTCHAR ij
ENCODING 307
SWIDTH 507 0
DWIDTH 8 0
BBX 9 15 0 -4
BITMAP
3300
7300
3300
6700
6600
6600
E600
CE00
CC80
ED00
EE00
3C00
5C00
5800
7000
ENDCHAR
STARTCHAR Jcircumflex
ENCODING 308
SWIDTH 536 0
DWIDTH 9 0
BBX 10 19 0 -3
BITMAP
0080
01C0
0240
0000
0380
0580
0B80
1B00
1300
0B00
0300
0700
0600
0600
0600
7E00
CC00
CC00
7800
ENDCHAR
STARTCHAR jcircumflex
ENCODING 309
SWIDTH 240 0
DWIDTH 4 0
BBX 8 16 -3 -4
BITMAP
02
06
1B
00
0C
0C
0C
1C
18
19
1A
1C
78
B0
B0
E0
ENDCHAR
STARTCHAR Kcommaaccent
ENCODING 310
SWIDTH 601 0
DWIDTH 10 0
BBX 11 15 0 -3
BITMAP
1C60
2C80
4D00
DF00
DA00
5F00
1980
3980
3B00
3300
3300
3380
4800
0C00
0800
ENDCHAR
STARTCHAR kcommaaccent
ENCODING 311
SWIDTH 518 0
DWIDTH 8 0
BBX 10 15 -1 -4
BITMAP
1800
3800
3800
3380
3400
3E00
7F00
6700
6640
6780
E700
0000
1800
0800
1000
ENDCHAR
STARTCHAR kgreenlandic
ENCODING 312
SWIDTH 518 0
DWIDTH 8 0
BBX 10 8 -1 0
BITMAP
3380
3400
3E00
7F00
6700
6640
6780
E700
ENDCHAR
STARTCHAR Lacute
ENCODING 313
SWIDTH 379 0
DWIDTH 6 0
BBX 11 20 0 -4
BITMAP
0300
0200
0600
0400
1C00
2C00
4C00
DC00
D800
5800
1800
3800
3800
3000
3000
7000
0C00
0720
03C0
01C0
ENDCHAR
STARTCHAR lacute
ENCODING 314
SWIDTH 267 0
DWIDTH 4 0
BBX 6 15 0 0
BITMAP
0C
18
10
00
30
70
60
60
60
60
E0
C0
C8
F0
E0
ENDCHAR
STARTCHAR Lcommaaccent
ENCODING 315
SWIDTH 379 0
DWIDTH 6 0
BBX 11 16 0 -4
BITMAP
1C00
2C00
4C00
DC00
D800
5800
1800
3800
3800
3000
3000
7000
0C00
6720
23C0
41C0
ENDCHAR
STARTCHAR lcommaaccent
ENCODING 316
SWIDTH 267 0
DWIDTH 4 0
BBX 5 15 0 -4
BITMAP
30
70
60
60
60
60
E0
C0
C8
F0
E0
00
C0
C0
80
ENDCHAR
STARTCHAR Lcaron
ENCODING 317
SWIDTH 379 0
DWIDTH 6 0
BBX 11 20 0 -4
BITMAP
0880
0500
0600
0400
1C00
2C00
4C00
DC00
D800
5800
1800
3800
3800
3000
3000
7000
0C00
0720
03C0
01C0
ENDCHAR
STARTCHAR lcaron
ENCODING 318
SWIDTH 267 0
DWIDTH 4 0
BBX 6 12 0 0
BITMAP
0C
34
74
70
60
60
60
E0
C0
C8
F0
E0
ENDCHAR
STARTCHAR Ldot
ENCODING 319
SWIDTH 605 0
DWIDTH 10 0
BBX 11 16 0 -4
BITMAP
1C00
2C00
4C00
DC00
D800
D800
1800
3980
3B80
3180
3000
7000
0C00
0720
03C0
01C0
ENDCHAR
STARTCHAR ldot
ENCODING 320
SWIDTH 353 0
DWIDTH 6 0
BBX 6 11 0 0
BITMAP
30
70
70
60
60
6C
E8
E0
C0
C0
E0
ENDCHAR
STARTCHAR Lslash
ENCODING 321
SWIDTH 392 0
DWIDTH 6 0
BBX 11 16 0 -4
BITMAP
1C00
2C00
4C00
DE00
DC00
5800
3800
3800
3800
3000
3000
7000
0C00
0720
03C0
01C0
ENDCHAR
STARTCHAR lslash
ENCODING 322
SWIDTH 286 0
DWIDTH 5 0
BBX 6 11 -1 0
BITMAP
18
38
3C
3C
30
70
F0
60
64
78
70
ENDCHAR
STARTCHAR Nacute
ENCODING 323
SWIDTH 702 0
DWIDTH 11 0
BBX 11 16 0 0
BITMAP
0060
0040
00C0
0000
1C20
6E20
4E60
DE60
DE60
5640
1740
33C0
33C0
3380
2380
6180
ENDCHAR
STARTCHAR nacute
ENCODING 324
SWIDTH 505 0
DWIDTH 8 0
BBX 10 12 -1 0
BITMAP
0300
0200
0600
0000
3E00
3300
3300
7700
6600
6640
6680
E700
ENDCHAR
STARTCHAR Ncommaaccent
ENCODING 325
SWIDTH 668 0
DWIDTH 11 0
BBX 11 16 0 -4
BITMAP
1C20
6E20
4E60
DE60
DE60
5640
1740
33C0
33C0
3380
2380
6180
0000
0C00
0C00
0800
ENDCHAR
STARTCHAR ncommaaccent
ENCODING 326
SWIDTH 505 0
DWIDTH 8 0
BBX 10 12 -1 -4
BITMAP
3E00
3300
3300
7700
6600
6640
6680
E700
0000
1000
1000
1000
ENDCHAR
STARTCHAR Ncaron
ENCODING 327
SWIDTH 668 0
DWIDTH 11 0
BBX 12 16 0 0
BITMAP
0110
0160
0080
0000
1C20
6E20
4E60
DE60
DE60
5640
1740
33C0
33C0
3380
2380
6180
ENDCHAR
STARTCHAR ncaron
ENCODING 328
SWIDTH 505 0
DWIDTH 8 0
BBX 10 12 -1 0
BITMAP
0980
0E00
0400
0000
3E00
3300
3300
7700
6600
6640
6680
E700
ENDCHAR
STARTCHAR napostrophe
ENCODING 329
SWIDTH 505 0
DWIDTH 8 0
BBX 10 12 -1 0
BITMAP
2000
3000
2000
0000
3E00
3300
3300
7700
6600
6640
6680
E700
ENDCHAR
STARTCHAR Eng
ENCODING 330
SWIDTH 723 0
DWIDTH 12 0
BBX 11 16 1 -4
BITMAP
3C20
6C60
DE60
9E60
9640
D640
36C0
37C0
33C0
2380
2380
6180
1980
1300
1300
0E00
ENDCHAR
STARTCHAR eng
ENCODING 331
SWIDTH 505 0
DWIDTH 8 0
BBX 8 12 -1 -4
BITMAP
36
3F
33
77
66
66
66
E6
1E
2C
2C
38
ENDCHAR
STARTCHAR Omacron
ENCODING 332
SWIDTH 665 0
DWIDTH 11 0
BBX 11 15 0 0
BITMAP
0FC0
0000
0000
0F80
32C0
6CC0
D8C0
D8E0
78C0
30C0
30C0
3180
3180
3300
1E00
ENDCHAR
STARTCHAR omacron
ENCODING 333
SWIDTH 433 0
DWIDTH 7 0
BBX 9 11 0 0
BITMAP
3E00
0000
0000
3800
6400
EF80
C400
C400
CC00
C800
F000
ENDCHAR
STARTCHAR Obreve
ENCODING 334
SWIDTH 665 0
DWIDTH 11 0
BBX 11 15 0 0
BITMAP
0460
0380
0000
0F80
32C0
6CC0
D8C0
D8E0
78C0
30C0
30C0
3180
3180
3300
1E00
ENDCHAR
STARTCHAR obreve
ENCODING 335
SWIDTH 433 0
DWIDTH 7 0
BBX 9 12 0 0
BITMAP
2300
2200
1C00
0000
3800
6400
EF80
C400
C400
CC00
C800
F000
ENDCHAR
STARTCHAR Ohungarumlaut
ENCODING 336
SWIDTH 665 0
DWIDTH 11 0
BBX 12 16 0 0
BITMAP
01B0
0160
0240
0000
0F80
32C0
6CC0
D8C0
D8E0
78C0
30C0
30C0
3180
3180
3300
1E00
ENDCHAR
STARTCHAR ohungarumlaut
ENCODING 337
SWIDTH 433 0
DWIDTH 7 0
BBX 9 12 0 0
BITMAP
1B00
1200
3400
0000
3800
6400
EF80
C400
C400
CC00
C800
F000
ENDCHAR
STARTCHAR OE
ENCODING 338
SWIDTH 846 0
DWIDTH 14 0
BBX 15 12 0 0
BITMAP
0FFE
36DC
6CC0
D8E0
D8C0
38F8
30C0
30C0
3180
3180
33F0
1FF0
ENDCHAR
STARTCHAR oe
ENCODING 339
SWIDTH 663 0
DWIDTH 11 0
BBX 12 8 0 0
BITMAP
39C0
6760
EF40
CE40
C780
CE30
CE40
7780
ENDCHAR
STARTCHAR Racute
ENCODING 340
SWIDTH 601 0
DWIDTH 10 0
BBX 9 16 0 0
BITMAP
0180
0100
0200
0000
1F00
2180
4C80
DD80
D900
5F00
1980
3980
3B00
3300
3300
7380
ENDCHAR
STARTCHAR racute
ENCODING 341
SWIDTH 376 0
DWIDTH 6 0
BBX 7 12 -1 0
BITMAP
06
04
0C
00
36
3E
30
70
60
60
60
E0
ENDCHAR
STARTCHAR Rcommaaccent
ENCODING 342
SWIDTH 601 0
DWIDTH 10 0
BBX 9 15 0 -3
BITMAP
1F00
2180
4C80
DD80
D900
5F00
1980
3980
3B00
3300
3300
3380
4800
0800
0800
ENDCHAR
STARTCHAR rcommaaccent
ENCODING 343
SWIDTH 376 0
DWIDTH 6 0
BBX 7 12 -1 -4
BITMAP
36
3E
30
70
60
60
60
E0
00
20
20
20
ENDCHAR
STARTCHAR Rcaron
ENCODING 344
SWIDTH 601 0
DWIDTH 10 0
BBX 10 16 0 0
BITMAP
06C0
0300
0200
0000
1F00
2180
4C80
DD80
D900
5F00
1980
3980
3B00
3300
3300
7380
ENDCHAR
STARTCHAR rcaron
ENCODING 345
SWIDTH 376 0
DWIDTH 6 0
BBX 8 12 -1 0
BITMAP
13
1C
08
00
36
3E
30
70
60
60
60
E0
ENDCHAR
STARTCHAR Sacute
ENCODING 346
SWIDTH 570 0
DWIDTH 9 0
BBX 8 16 1 0
BITMAP
03
06
04
00
1E
33
73
72
38
1C
0E
EE
C6
86
CC
78
ENDCHAR
STARTCHAR sacute
ENCODING 347
SWIDTH 382 0
DWIDTH 6 0
BBX 8 12 -1 0
BITMAP
03
06
04
08
1C
1C
3C
2C
4C
4D
9E
78
ENDCHAR
STARTCHAR Scircumflex
ENCODING 348
SWIDTH 570 0
DWIDTH 9 0
BBX 8 16 1 0
BITMAP
02
06
19
00
1E
33
73
72
38
1C
0E
EE
C6
86
CC
78
ENDCHAR
STARTCHAR scircumflex
ENCODING 349
SWIDTH 382 0
DWIDTH 6 0
BBX 8 12 -1 0
BITMAP
04
0C
32
00
1C
1C
3C
2C
4C
4D
9E
78
ENDCHAR
STARTCHAR Scedilla
ENCODING 350
SWIDTH 570 0
DWIDTH 9 0
BBX 8 16 1 -4
BITMAP
1E
33
73
72
38
1C
0E
EE
C6
86
CE
78
20
38
58
30
ENDCHAR
STARTCHAR scedilla
ENCODING 351
SWIDTH 382 0
DWIDTH 6 0
BBX 8 12 -1 -4
BITMAP
1C
1C
3C
2C
4C
4D
CE
78
20
30
18
70
ENDCHAR
STARTCHAR Scaron
ENCODING 352
SWIDTH 570 0
DWIDTH 9 0
BBX 9 16 1 0
BITMAP
0480
0700
0400
0000
1E00
3300
7300
7200
3800
1C00
0E00
EE00
C600
8600
CC00
7800
ENDCHAR
STARTCHAR scaron
ENCODING 353
SWIDTH 369 0
DWIDTH 6 0
BBX 8 12 -1 0
BITMAP
13
0C
08
00
1C
1C
3C
2C
4C
CF
5C
78
ENDCHAR
STARTCHAR uni0162
ENCODING 354
SWIDTH 481 0
DWIDTH 8 0
BBX 12 16 0 -4
BITMAP
1F10
67E0
4FE0
CE00
CE00
CC00
0C00
1C00
1C00
1800
1800
1800
1000
1C00
0C00
3800
ENDCHAR
STARTCHAR uni0163
ENCODING 355
SWIDTH 267 0
DWIDTH 4 0
BBX 6 14 -1 -4
BITMAP
38
38
78
30
30
70
60
64
78
70
40
70
10
E0
ENDCHAR
STARTCHAR Tcaron
ENCODING 356
SWIDTH 481 0
DWIDTH 8 0
BBX 12 16 0 0
BITMAP
0440
0780
0200
0000
1F10
67E0
4FE0
CE00
CE00
CC00
0C00
1C00
1C00
1800
1800
1800
ENDCHAR
STARTCHAR tcaron
ENCODING 357
SWIDTH 267 0
DWIDTH 4 0
BBX 7 12 0 0
BITMAP
06
06
74
70
F0
60
60
E0
C0
C8
F0
E0
ENDCHAR
STARTCHAR Tbar
ENCODING 358
SWIDTH 481 0
DWIDTH 8 0
BBX 12 12 0 0
BITMAP
1F10
67E0
CEE0
CE00
CC00
CC00
0C00
7F80
1C00
1800
1800
1800
ENDCHAR
STARTCHAR tbar
ENCODING 359
SWIDTH 267 0
DWIDTH 4 0
BBX 5 10 0 0
BITMAP
70
70
F0
60
F0
E0
E0
C8
D0
E0
ENDCHAR
STARTCHAR Utilde
ENCODING 360
SWIDTH 716 0
DWIDTH 11 0
BBX 12 15 0 0
BITMAP
0090
07E0
0000
1E30
6C30
CC70
CC60
9C60
5860
18E0
18C0
38C0
39C0
1F80
1F00
ENDCHAR
STARTCHAR utilde
ENCODING 361
SWIDTH 505 0
DWIDTH 8 0
BBX 9 11 0 0
BITMAP
3D00
4E00
0000
6600
6600
6600
EE00
CC00
CC80
FF00
EE00
ENDCHAR
STARTCHAR Umacron
ENCODING 362
SWIDTH 716 0
DWIDTH 11 0
BBX 12 15 0 0
BITMAP
03E0
0000
0000
1E30
6C30
CC70
CC60
9C60
5860
18E0
18C0
38C0
39C0
1F80
1F00
ENDCHAR
STARTCHAR umacron
ENCODING 363
SWIDTH 505 0
DWIDTH 8 0
BBX 9 11 0 0
BITMAP
3E00
0000
0000
6600
6600
6600
EE00
CC00
CC80
FF00
EE00
ENDCHAR
STARTCHAR Ubreve
ENCODING 364
SWIDTH 716 0
DWIDTH 11 0
BBX 12 15 0 0
BITMAP
0330
01C0
0000
1E30
6C30
CC70
CC60
9C60
5860
18E0
18C0
38C0
39C0
1F80
1F00
ENDCHAR
STARTCHAR ubreve
ENCODING 365
SWIDTH 505 0
DWIDTH 8 0
BBX 9 12 0 0
BITMAP
2300
3200
1C00
0000
6600
6600
6600
EE00
CC00
CC80
FF00
EE00
ENDCHAR
STARTCHAR Uring
ENCODING 366
SWIDTH 716 0
DWIDTH 11 0
BBX 12 16 0 0
BITMAP
00C0
0140
0180
0000
1E30
6C30
CC70
CC60
9C60
5860
18E0
18C0
38C0
39C0
1F80
1F00
ENDCHAR
STARTCHAR uring
ENCODING 367
SWIDTH 505 0
DWIDTH 8 0
BBX 9 11 0 0
BITMAP
1C00
1C00
0000
6600
6600
6600
EE00
CC00
CC80
FF00
EE00
ENDCHAR
STARTCHAR Uhungarumlaut
ENCODING 368
SWIDTH 716 0
DWIDTH 11 0
BBX 12 16 0 0
BITMAP
00D0
01A0
0160
0000
1E30
6C30
CC70
CC60
9C60
5860
18E0
18C0
38C0
39C0
1F80
1F00
ENDCHAR
STARTCHAR uhungarumlaut
ENCODING 369
SWIDTH 505 0
DWIDTH 8 0
BBX 9 12 0 0
BITMAP
0B00
1200
3400
0000
6600
6600
6600
EE00
CC00
CC80
FF00
EE00
ENDCHAR
STARTCHAR Uogonek
ENCODING 370
SWIDTH 716 0
DWIDTH 11 0
BBX 12 19 0 -3
BITMAP
0300
0100
0180
0000
1E30
2C30
4C70
CC60
9C60
D860
18E0
18C0
38C0
38C0
1980
1F00
0800
0900
0E00
ENDCHAR
STARTCHAR uogonek
ENCODING 371
SWIDTH 505 0
DWIDTH 8 0
BBX 9 11 0 -3
BITMAP
6600
6600
6600
EE00
CC00
CC80
FF00
EE00
0800
0900
0E00
ENDCHAR
STARTCHAR Wcircumflex
ENCODING 372
SWIDTH 962 0
DWIDTH 15 0
BBX 17 16 0 0
BITMAP
000800
001800
006800
000000
1C3180
2C7100
4C7100
CC7200
CCB200
4CB400
0CB400
0D3400
0D3800
0D3800
0E3800
0E3000
ENDCHAR
STARTCHAR wcircumflex
ENCODING 373
SWIDTH 661 0
DWIDTH 11 0
BBX 10 12 0 0
BITMAP
0200
0700
0D00
1000
66C0
66C0
6640
EE40
CC40
CC80
FF80
EF00
ENDCHAR
STARTCHAR Ycircumflex
ENCODING 374
SWIDTH 620 0
DWIDTH 10 0
BBX 11 16 0 0
BITMAP
0040
01C0
0240
0400
1C20
2E20
4E40
C640
C680
4780
0700
0700
0700
0700
0600
0E00
ENDCHAR
STARTCHAR ycircumflex
ENCODING 375
SWIDTH 505 0
DWIDTH 8 0
BBX 8 16 0 -4
BITMAP
04
0C
32
00
66
66
66
EE
CC
CD
FD
FE
3C
58
58
70
ENDCHAR
STARTCHAR Ydieresis
ENCODING 376
SWIDTH 620 0
DWIDTH 10 0
BBX 11 15 0 0
BITMAP
0360
0360
0000
1C20
2E20
4E40
C640
C680
4780
0700
0700
0700
0700
0600
0E00
ENDCHAR
STARTCHAR Zacute
ENCODING 377
SWIDTH 542 0
DWIDTH 9 0
BBX 9 16 0 0
BITMAP
0180
0100
0200
0000
3F80
6300
2700
0E00
0E00
1C00
1C00
3800
3800
7100
7300
FE00
ENDCHAR
STARTCHAR zacute
ENCODING 378
SWIDTH 428 0
DWIDTH 7 0
BBX 7 12 0 0
BITMAP
06
0C
08
00
7E
4C
18
18
30
70
64
FC
ENDCHAR
STARTCHAR Zdotaccent
ENCODING 379
SWIDTH 530 0
DWIDTH 8 0
BBX 9 15 0 0
BITMAP
0600
0600
0000
3F80
6300
2700
0E00
0E00
1C00
1C00
3800
3800
7100
7300
FE00
ENDCHAR
STARTCHAR zdotaccent
ENCODING 380
SWIDTH 428 0
DWIDTH 7 0
BBX 7 11 0 0
BITMAP
18
08
00
7E
4C
18
18
30
70
64
FC
ENDCHAR
STARTCHAR Zcaron
ENCODING 381
SWIDTH 542 0
DWIDTH 9 0
BBX 10 16 0 0
BITMAP
04C0
0500
0200
0000
3F80
6300
2700
0E00
0E00
1C00
1C00
3800
3800
7100
7300
FE00
ENDCHAR
STARTCHAR zcaron
ENCODING 382
SWIDTH 428 0
DWIDTH 7 0
BBX 8 12 0 0
BITMAP
13
1C
08
00
7E
4C
18
18
30
70
64
FC
ENDCHAR
STARTCHAR longs
ENCODING 383
SWIDTH 267 0
DWIDTH 4 0
BBX 9 16 -3 -4
BITMAP
0380
0680
0E00
0C00
1C00
0C00
0C00
1C00
1800
1800
1800
1800
7800
B000
B000
E000
ENDCHAR
STARTCHAR uni018F
ENCODING 399
SWIDTH 544 0
DWIDTH 9 0
BBX 9 12 0 0
BITMAP
1E00
3F00
2300
0380
0380
0F80
3300
6700
6700
C600
CC00
7800
ENDCHAR
STARTCHAR florin
ENCODING 402
SWIDTH 267 0
DWIDTH 4 0
BBX 11 16 -4 -4
BITMAP
00E0
01A0
0360
0300
0FC0
0600
0600
0600
0E00
0C00
0C00
1C00
1800
D800
B000
E000
ENDCHAR
STARTCHAR Ohorn
ENCODING 416
SWIDTH 665 0
DWIDTH 11 0
BBX 12 14 0 0
BITMAP
0030
0020
0FA0
32C0
6CC0
D8C0
D8E0
78C0
30C0
30C0
31C0
3180
3300
1E00
ENDCHAR
STARTCHAR ohorn
ENCODING 417
SWIDTH 439 0
DWIDTH 7 0
BBX 8 10 0 0
BITMAP
03
03
3E
64
E4
E4
C4
CC
C8
70
ENDCHAR
STARTCHAR Uhorn
ENCODING 431
SWIDTH 716 0
DWIDTH 11 0
BBX 14 15 0 0
BITMAP
000C
000C
0008
1E30
6C30
CC70
CC60
9C60
5860
18E0
18C0
38C0
39C0
1F80
1F00
ENDCHAR
STARTCHAR uhorn
ENCODING 432
SWIDTH 505 0
DWIDTH 8 0
BBX 9 11 0 0
BITMAP
0080
0180
0100
6700
6600
6600
EE00
CC00
CC80
FF00
EE00
ENDCHAR
STARTCHAR uni01B7
ENCODING 439
SWIDTH 555 0
DWIDTH 9 0
BBX 9 12 0 0
BITMAP
3F80
2300
2600
0E00
1C00
1E00
0700
0700
6700
C700
C600
7C00
ENDCHAR
STARTCHAR uni01CD
ENCODING 461
SWIDTH 668 0
DWIDTH 11 0
BBX 14 18 0 -2
BITMAP
0044
0058
0020
0000
00E0
01E0
02E0
06C0
04C0
7EC0
D9C0
D9C0
3180
3180
3180
6380
6000
2000
ENDCHAR
STARTCHAR uni01CE
ENCODING 462
SWIDTH 526 0
DWIDTH 8 0
BBX 9 12 0 0
BITMAP
0900
0E00
0400
0000
3F00
6600
E600
C600
CE00
CE80
FF00
6600
ENDCHAR
STARTCHAR uni01CF
ENCODING 463
SWIDTH 375 0
DWIDTH 6 0
BBX 9 16 0 0
BITMAP
0880
0700
0400
0000
1C00
2C00
4C00
DC00
D800
5800
1800
3800
3800
3000
3000
7000
ENDCHAR
STARTCHAR uni01D0
ENCODING 464
SWIDTH 267 0
DWIDTH 4 0
BBX 6 12 0 0
BITMAP
4C
30
20
00
60
60
60
E0
C0
C8
F0
E0
ENDCHAR
STARTCHAR uni01D1
ENCODING 465
SWIDTH 665 0
DWIDTH 11 0
BBX 11 16 0 0
BITMAP
0120
01C0
0100
0000
0F80
32C0
6CC0
D8C0
D8E0
78C0
30C0
30C0
3180
3180
3300
1E00
ENDCHAR
STARTCHAR uni01D2
ENCODING 466
SWIDTH 433 0
DWIDTH 7 0
BBX 9 12 0 0
BITMAP
1300
1C00
0800
0000
3800
6400
EF80
C400
CC00
CC00
D800
F000
ENDCHAR
STARTCHAR uni01D3
ENCODING 467
SWIDTH 716 0
DWIDTH 11 0
BBX 12 16 0 0
BITMAP
0130
00C0
0080
0000
1E30
6C30
CC70
CC60
9C60
5860
18E0
18C0
38C0
39C0
1F80
1F00
ENDCHAR
STARTCHAR uni01D4
ENCODING 468
SWIDTH 505 0
DWIDTH 8 0
BBX 9 12 0 0
BITMAP
1300
0C00
0800
0000
6600
6600
6600
EE00
CC00
CC80
FF00
EE00
ENDCHAR
STARTCHAR uni01D5
ENCODING 469
SWIDTH 716 0
DWIDTH 11 0
BBX 12 16 0 0
BITMAP
03F0
0000
0360
0320
1E30
6C30
CC70
CC60
9C60
5860
18E0
18C0
38C0
39C0
1F80
1F00
ENDCHAR
STARTCHAR uni01D6
ENCODING 470
SWIDTH 505 0
DWIDTH 8 0
BBX 9 13 0 0
BITMAP
3F00
0000
3600
3600
0000
6600
6600
6600
EE00
CC00
CC80
FF00
EE00
ENDCHAR
STARTCHAR uni01D7
ENCODING 471
SWIDTH 716 0
DWIDTH 11 0
BBX 12 16 0 0
BITMAP
0060
06F0
07B0
0000
1E30
6C30
CC70
CC60
9C60
5860
18E0
18C0
38C0
39C0
1F80
1F00
ENDCHAR
STARTCHAR uni01D8
ENCODING 472
SWIDTH 505 0
DWIDTH 8 0
BBX 9 15 0 0
BITMAP
0600
0400
0C00
0000
3600
3600
0000
6600
6600
6600
EE00
CC00
CC80
FF00
EE00
ENDCHAR
STARTCHAR uni01D9
ENCODING 473
SWIDTH 716 0
DWIDTH 11 0
BBX 12 16 0 0
BITMAP
0120
06F0
02B0
0000
1E30
6C30
CC70
CC60
9C60
5860
18E0
18C0
38C0
39C0
1F80
1F00
ENDCHAR
STARTCHAR uni01DA
ENCODING 474
SWIDTH 505 0
DWIDTH 8 0
BBX 9 15 0 0
BITMAP
1100
0A00
0C00
0800
3600
3600
0000
6600
6600
6600
EE00
CC00
CC80
FF00
EE00
ENDCHAR
STARTCHAR uni01DB
ENCODING 475
SWIDTH 716 0
DWIDTH 11 0
BBX 12 16 0 0
BITMAP
0180
06B0
06F0
0000
1E30
6C30
CC70
CC60
9C60
5860
18E0
18C0
38C0
39C0
1F80
1F00
ENDCHAR
STARTCHAR uni01DC
ENCODING 476
SWIDTH 505 0
DWIDTH 8 0
BBX 9 15 0 0
BITMAP
1800
0800
0800
0000
3600
3600
0000
6600
6600
6600
EE00
CC00
CC80
FF00
EE00
ENDCHAR
STARTCHAR uni01E4
ENCODING 484
SWIDTH 601 0
DWIDTH 10 0
BBX 9 15 0 -3
BITMAP
0F00
3980
7180
6100
E000
E180
E780
E300
6700
3B00
0300
3E00
6600
6400
3800
ENDCHAR
STARTCHAR uni01E5
ENCODING 485
SWIDTH 507 0
DWIDTH 8 0
BBX 9 12 0 -4
BITMAP
3F00
6600
E600
C600
CE00
CE80
CD00
7E00
1C00
FE00
5800
7000
ENDCHAR
STARTCHAR Gcaron
ENCODING 486
SWIDTH 578 0
DWIDTH 9 0
BBX 10 19 0 -3
BITMAP
0240
0380
0300
0000
0F00
3980
7180
6180
E000
E000
E180
E300
6700
3B00
0300
3E00
6600
6400
3800
ENDCHAR
STARTCHAR gcaron
ENCODING 487
SWIDTH 507 0
DWIDTH 8 0
BBX 9 16 0 -4
BITMAP
0900
0E00
0400
0000
3F00
6600
E600
C600
CE00
CE00
CC80
7F00
1C00
7C00
5800
7800
ENDCHAR
STARTCHAR uni01E8
ENCODING 488
SWIDTH 601 0
DWIDTH 10 0
BBX 11 16 0 0
BITMAP
0120
01C0
0080
0000
1C60
2C80
4D00
DF00
DA00
5F00
1980
3980
3B00
3300
3300
7380
ENDCHAR
STARTCHAR uni01E9
ENCODING 489
SWIDTH 518 0
DWIDTH 8 0
BBX 10 15 -1 0
BITMAP
04C0
0300
0200
0000
1800
3800
3800
3380
3400
3E00
7F00
6700
6640
6780
E700
ENDCHAR
STARTCHAR uni01EA
ENCODING 490
SWIDTH 665 0
DWIDTH 11 0
BBX 11 19 0 -3
BITMAP
0400
0600
0600
0000
0F80
32C0
6CC0
D8C0
D8E0
78C0
30C0
30C0
3180
3180
3300
1E00
1000
1200
1C00
ENDCHAR
STARTCHAR uni01EB
ENCODING 491
SWIDTH 433 0
DWIDTH 7 0
BBX 9 11 0 -3
BITMAP
3800
6400
EF80
C400
C400
CC00
C800
F000
4000
D000
E000
ENDCHAR
STARTCHAR uni01EE
ENCODING 494
SWIDTH 525 0
DWIDTH 8 0
BBX 9 16 0 0
BITMAP
0480
0700
0400
0000
3F80
2300
2600
0E00
1C00
1E00
0700
0700
6700
C700
C600
7C00
ENDCHAR
STARTCHAR uni01EF
ENCODING 495
SWIDTH 600 0
DWIDTH 10 0
BBX 8 16 0 -4
BITMAP
13
1C
08
00
7E
DC
18
30
30
71
32
3E
38
F8
B0
E0
ENDCHAR
STARTCHAR uni01F4
ENCODING 500
SWIDTH 578 0
DWIDTH 9 0
BBX 9 19 0 -3
BITMAP
0180
0100
0300
0000
0F00
3880
7180
6000
E000
E180
E300
E300
6700
3B00
0300
3E00
6600
6400
3800
ENDCHAR
STARTCHAR uni01F5
ENCODING 501
SWIDTH 507 0
DWIDTH 8 0
BBX 9 16 0 -4
BITMAP
0600
0400
0800
0000
3F00
6600
E600
C600
CE00
CE00
CC80
7F00
1C00
7C00
5800
7800
ENDCHAR
STARTCHAR Aringacute
ENCODING 506
SWIDTH 668 0
DWIDTH 11 0
BBX 13 18 0 -2
BITMAP
0018
0030
0060
0060
0060
01E0
02E0
06C0
04C0
7EC0
D9C0
D9C0
3180
3180
3180
6380
6000
2000
ENDCHAR
STARTCHAR aringacute
ENCODING 507
SWIDTH 526 0
DWIDTH 8 0
BBX 9 13 0 0
BITMAP
0600
0400
0C00
0C00
0000
3F00
6600
E600
C600
CE00
CE80
FF00
6600
ENDCHAR
STARTCHAR AEacute
ENCODING 508
SWIDTH 764 0
DWIDTH 12 0
BBX 15 18 0 -2
BITMAP
0008
0010
0020
0000
00E2
01FC
02E0
04C0
04C0
7FF0
D9C0
1980
3180
3180
31F8
63F0
6000
2000
ENDCHAR
STARTCHAR aeacute
ENCODING 509
SWIDTH 650 0
DWIDTH 10 0
BBX 11 12 0 0
BITMAP
0180
0100
0300
0000
3FC0
4740
0640
7E80
EF00
CC20
CE40
F780
ENDCHAR
STARTCHAR Oslashacute
ENCODING 510
SWIDTH 658 0
DWIDTH 11 0
BBX 10 17 0 -1
BITMAP
00C0
0080
0180
0000
0100
0F80
3EC0
5AC0
DAC0
FAC0
32C0
35C0
3580
3580
3700
1E00
0800
ENDCHAR
STARTCHAR oslashacute
ENCODING 511
SWIDTH 428 0
DWIDTH 7 0
BBX 9 13 -1 -1
BITMAP
0300
0200
0400
0000
1F80
3200
7200
7600
6A00
7600
6400
7800
8000
ENDCHAR
STARTCHAR uni0200
ENCODING 512
SWIDTH 668 0
DWIDTH 11 0
BBX 11 18 0 -2
BITMAP
03C0
0160
01A0
0000
00E0
01E0
02E0
06C0
04C0
7EC0
D9C0
D9C0
3180
3180
3180
6380
6000
2000
ENDCHAR
STARTCHAR uni0201
ENCODING 513
SWIDTH 526 0
DWIDTH 8 0
BBX 9 12 0 0
BITMAP
6C00
3400
1200
0000
3F00
6600
E600
C600
CE00
CE80
FF00
6600
ENDCHAR
STARTCHAR uni0202
ENCODING 514
SWIDTH 668 0
DWIDTH 11 0
BBX 13 17 0 -2
BITMAP
00F0
0198
0000
00E0
01E0
02E0
06C0
04C0
7EC0
D9C0
D9C0
3180
3180
3180
6380
6000
2000
ENDCHAR
STARTCHAR uni0203
ENCODING 515
SWIDTH 526 0
DWIDTH 8 0
BBX 9 11 0 0
BITMAP
1E00
3300
0000
3F00
6600
E600
C600
CE00
CE80
FF00
6600
ENDCHAR
STARTCHAR uni0204
ENCODING 516
SWIDTH 459 0
DWIDTH 7 0
BBX 8 16 0 0
BITMAP
3C
16
0A
00
0E
19
31
32
30
1C
70
60
E0
E1
E2
7C
ENDCHAR
STARTCHAR uni0205
ENCODING 517
SWIDTH 384 0
DWIDTH 6 0
BBX 7 12 0 0
BITMAP
D8
68
24
00
3C
64
EC
C8
F0
C2
EC
70
ENDCHAR
STARTCHAR uni0206
ENCODING 518
SWIDTH 459 0
DWIDTH 7 0
BBX 9 15 0 0
BITMAP
0F00
1980
0000
0E00
1900
3100
3200
3000
1C00
7000
6000
E000
E100
E200
7C00
ENDCHAR
STARTCHAR uni0207
ENCODING 519
SWIDTH 384 0
DWIDTH 6 0
BBX 7 11 0 0
BITMAP
3C
46
00
3C
64
EC
C8
F0
C2
C4
78
ENDCHAR
STARTCHAR uni0208
ENCODING 520
SWIDTH 375 0
DWIDTH 6 0
BBX 7 16 0 0
BITMAP
6C
24
16
00
1C
3C
4C
DC
D8
D8
18
38
38
30
30
70
ENDCHAR
STARTCHAR uni0209
ENCODING 521
SWIDTH 267 0
DWIDTH 4 0
BBX 7 12 -2 0
BITMAP
D8
28
34
00
18
18
18
38
30
32
3C
38
ENDCHAR
STARTCHAR uni020A
ENCODING 522
SWIDTH 375 0
DWIDTH 6 0
BBX 8 15 0 0
BITMAP
1E
33
00
1C
2C
4C
DC
D8
58
18
38
38
30
30
70
ENDCHAR
STARTCHAR uni020B
ENCODING 523
SWIDTH 267 0
DWIDTH 4 0
BBX 5 11 0 0
BITMAP
70
98
00
60
60
60
E0
C0
C8
F0
E0
ENDCHAR
STARTCHAR uni020C
ENCODING 524
SWIDTH 665 0
DWIDTH 11 0
BBX 11 16 0 0
BITMAP
1B00
0900
0580
0000
0F80
32C0
6CC0
D8C0
D8E0
78C0
30C0
30C0
3180
3180
3300
1E00
ENDCHAR
STARTCHAR uni020D
ENCODING 525
SWIDTH 433 0
DWIDTH 7 0
BBX 9 12 0 0
BITMAP
D800
4800
2400
0000
3800
6400
EF80
C400
CC00
CC00
D800
F000
ENDCHAR
STARTCHAR uni020E
ENCODING 526
SWIDTH 665 0
DWIDTH 11 0
BBX 11 15 0 0
BITMAP
03C0
0440
0000
0F80
32C0
6CC0
D8C0
D8E0
78C0
30C0
30C0
3180
3180
3300
1E00
ENDCHAR
STARTCHAR uni020F
ENCODING 527
SWIDTH 433 0
DWIDTH 7 0
BBX 9 11 0 0
BITMAP
3C00
6600
0000
3800
6400
EF80
C400
C400
CC00
C800
F000
ENDCHAR
STARTCHAR uni0210
ENCODING 528
SWIDTH 601 0
DWIDTH 10 0
BBX 9 16 0 0
BITMAP
3C00
1200
0B00
0000
1F00
2180
4C80
DD80
D900
5F00
1980
3980
3B00
3300
3300
7380
ENDCHAR
STARTCHAR uni0211
ENCODING 529
SWIDTH 376 0
DWIDTH 6 0
BBX 7 12 -1 0
BITMAP
D8
28
34
00
36
3E
30
70
60
60
60
E0
ENDCHAR
STARTCHAR uni0212
ENCODING 530
SWIDTH 601 0
DWIDTH 10 0
BBX 9 15 0 0
BITMAP
0700
1980
0000
1F00
2180
4C80
DD80
D900
5F00
1980
3980
3B00
3300
3300
7380
ENDCHAR
STARTCHAR uni0213
ENCODING 531
SWIDTH 376 0
DWIDTH 6 0
BBX 8 11 -1 0
BITMAP
1E
33
00
36
3E
30
70
60
60
60
E0
ENDCHAR
STARTCHAR uni0214
ENCODING 532
SWIDTH 716 0
DWIDTH 11 0
BBX 12 16 0 0
BITMAP
0D80
0680
0240
0100
1E30
6C30
CC70
CC60
9C60
5860
18E0
18C0
38C0
39C0
1F80
1F00
ENDCHAR
STARTCHAR uni0215
ENCODING 533
SWIDTH 505 0
DWIDTH 8 0
BBX 9 12 0 0
BITMAP
D800
6800
2400
0000
6600
6600
6600
EE00
CC00
CC80
FF00
EE00
ENDCHAR
STARTCHAR uni0216
ENCODING 534
SWIDTH 716 0
DWIDTH 11 0
BBX 12 15 0 0
BITMAP
01E0
0220
0000
1E30
6C30
CC70
CC60
9C60
5860
18E0
18C0
38C0
39C0
1F80
1F00
ENDCHAR
STARTCHAR uni0217
ENCODING 535
SWIDTH 505 0
DWIDTH 8 0
BBX 9 11 0 0
BITMAP
1E00
6200
0000
6600
6600
6600
EE00
CC00
CC80
FF00
EE00
ENDCHAR
STARTCHAR Scommaaccent
ENCODING 536
SWIDTH 570 0
DWIDTH 9 0
BBX 8 15 1 -3
BITMAP
1E
33
73
72
38
1C
0E
EE
C6
86
CC
78
20
20
20
ENDCHAR
STARTCHAR scommaaccent
ENCODING 537
SWIDTH 382 0
DWIDTH 6 0
BBX 8 13 -1 -4
BITMAP
04
1C
1C
3C
2C
4C
4F
9C
78
00
30
20
20
ENDCHAR
STARTCHAR uni021A
ENCODING 538
SWIDTH 481 0
DWIDTH 8 0
BBX 12 16 0 -4
BITMAP
1F10
67E0
4FE0
CE00
CE00
CC00
0C00
1C00
1C00
1800
1800
1800
0000
1000
1000
1000
ENDCHAR
STARTCHAR uni021B
ENCODING 539
SWIDTH 267 0
DWIDTH 4 0
BBX 5 14 0 -4
BITMAP
70
70
F0
60
60
E0
C0
C8
F0
E0
00
C0
C0
80
ENDCHAR
STARTCHAR uni021E
ENCODING 542
SWIDTH 665 0
DWIDTH 11 0
BBX 11 16 0 0
BITMAP
0120
01C0
0080
0000
1C60
3CE0
4CE0
DCC0
DCC0
5FC0
19C0
19C0
3980
3180
3180
3380
ENDCHAR
STARTCHAR uni021F
ENCODING 543
SWIDTH 600 0
DWIDTH 10 0
BBX 10 15 -1 0
BITMAP
06C0
0300
0200
0000
1800
3800
3000
3E00
3300
3300
7700
6600
6640
6680
E700
ENDCHAR
STARTCHAR uni0237
ENCODING 567
SWIDTH 240 0
DWIDTH 4 0
BBX 8 12 -3 -4
BITMAP
0C
0C
0C
1C
18
19
1A
1C
78
B0
B0
E0
ENDCHAR
STARTCHAR uni0259
ENCODING 601
SWIDTH 404 0
DWIDTH 6 0
BBX 6 8 0 0
BITMAP
78
4C
0C
3C
4C
D8
98
F0
ENDCHAR
STARTCHAR uni0292
ENCODING 658
SWIDTH 442 0
DWIDTH 7 0
BBX 8 12 0 -4
BITMAP
7E
DC
18
30
30
71
32
3E
38
F8
B0
E0
ENDCHAR
STARTCHAR uni02BB
ENCODING 699
SWIDTH 241 0
DWIDTH 4 0
BBX 2 4 2 8
BITMAP
40
80
C0
C0
ENDCHAR
STARTCHAR uni02BC
ENCODING 700
SWIDTH 228 0
DWIDTH 4 0
BBX 2 3 2 9
BITMAP
C0
40
C0
ENDCHAR
STARTCHAR circumflex
ENCODING 710
SWIDTH 293 0
DWIDTH 5 0
BBX 5 3 0 9
BITMAP
10
30
C8
ENDCHAR
STARTCHAR caron
ENCODING 711
SWIDTH 294 0
DWIDTH 5 0
BBX 4 3 2 9
BITMAP
90
E0
80
ENDCHAR
STARTCHAR uni02C9
ENCODING 713
SWIDTH 421 0
DWIDTH 7 0
BBX 5 1 2 9
BITMAP
F8
ENDCHAR
STARTCHAR uni02CA
ENCODING 714
SWIDTH 256 0
DWIDTH 4 0
BBX 3 3 2 9
BITMAP
60
40
80
ENDCHAR
STARTCHAR uni02CB
ENCODING 715
SWIDTH 274 0
DWIDTH 4 0
BBX 3 3 2 9
BITMAP
C0
40
20
ENDCHAR
STARTCHAR breve
ENCODING 728
SWIDTH 431 0
DWIDTH 7 0
BBX 6 2 1 9
BITMAP
CC
78
ENDCHAR
STARTCHAR dotaccent
ENCODING 729
SWIDTH 250 0
DWIDTH 4 0
BBX 2 3 1 9
BITMAP
C0
C0
C0
ENDCHAR
STARTCHAR ring
ENCODING 730
SWIDTH 156 0
DWIDTH 3 0
BBX 3 3 0 9
BITMAP
C0
A0
C0
ENDCHAR
STARTCHAR ogonek
ENCODING 731
SWIDTH 291 0
DWIDTH 5 0
BBX 3 3 1 -3
BITMAP
C0
80
E0
ENDCHAR
STARTCHAR tilde
ENCODING 732
SWIDTH 403 0
DWIDTH 6 0
BBX 6 2 1 9
BITMAP
20
FC
ENDCHAR
STARTCHAR hungarumlaut
ENCODING 733
SWIDTH 436 0
DWIDTH 7 0
BBX 6 3 1 9
BITMAP
3C
48
D0
ENDCHAR
STARTCHAR gravecomb
ENCODING 768
SWIDTH 0 0
DWIDTH 0 0
BBX 2 3 -3 9
BITMAP
C0
40
40
ENDCHAR
STARTCHAR acutecomb
ENCODING 769
SWIDTH 0 0
DWIDTH 0 0
BBX 3 3 -3 9
BITMAP
60
40
80
ENDCHAR
STARTCHAR uni0302
ENCODING 770
SWIDTH 0 0
DWIDTH 0 0
BBX 4 3 -4 9
BITMAP
20
70
90
ENDCHAR
STARTCHAR tildecomb
ENCODING 771
SWIDTH 0 0
DWIDTH 0 0
BBX 7 2 -6 9
BITMAP
22
FC
ENDCHAR
STARTCHAR uni0304
ENCODING 772
SWIDTH 0 0
DWIDTH 0 0
BBX 6 1 -5 9
BITMAP
FC
ENDCHAR
STARTCHAR uni0306
ENCODING 774
SWIDTH 0 0
DWIDTH 0 0
BBX 6 2 -5 9
BITMAP
CC
70
ENDCHAR
STARTCHAR uni0307
ENCODING 775
SWIDTH 0 0
DWIDTH 0 0
BBX 3 3 -2 9
BITMAP
40
E0
C0
ENDCHAR
STARTCHAR uni0308
ENCODING 776
SWIDTH 0 0
DWIDTH 0 0
BBX 4 2 -4 9
BITMAP
90
D0
ENDCHAR
STARTCHAR hookabovecomb
ENCODING 777
SWIDTH 0 0
DWIDTH 0 0
BBX 4 3 -4 9
BITMAP
E0
30
40
ENDCHAR
STARTCHAR uni030A
ENCODING 778
SWIDTH 0 0
DWIDTH 0 0
BBX 2 3 -2 9
BITMAP
C0
C0
C0
ENDCHAR
STARTCHAR uni030B
ENCODING 779
SWIDTH 0 0
DWIDTH 0 0
BBX 6 3 -5 9
BITMAP
6C
48
90
ENDCHAR
STARTCHAR uni030C
ENCODING 780
SWIDTH 0 0
DWIDTH 0 0
BBX 5 3 -4 9
BITMAP
98
60
40
ENDCHAR
STARTCHAR uni030F
ENCODING 783
SWIDTH 0 0
DWIDTH 0 0
BBX 5 3 -5 9
BITMAP
B0
58
68
ENDCHAR
STARTCHAR uni0311
ENCODING 785
SWIDTH 0 0
DWIDTH 0 0
BBX 6 2 -6 9
BITMAP
38
C4
ENDCHAR
STARTCHAR uni031B
ENCODING 795
SWIDTH 0 0
DWIDTH 0 0
BBX 2 4 -2 7
BITMAP
40
40
40
80
ENDCHAR
STARTCHAR dotbelowcomb
ENCODING 803
SWIDTH 0 0
DWIDTH 0 0
BBX 3 3 -3 -4
BITMAP
40
E0
C0
ENDCHAR
STARTCHAR uni0324
ENCODING 804
SWIDTH 0 0
DWIDTH 0 0
BBX 5 2 -7 -3
BITMAP
D8
D8
ENDCHAR
STARTCHAR uni0326
ENCODING 806
SWIDTH 0 0
DWIDTH 0 0
BBX 2 3 -4 -4
BITMAP
C0
40
80
ENDCHAR
STARTCHAR uni0327
ENCODING 807
SWIDTH 0 0
DWIDTH 0 0
BBX 4 4 -6 -4
BITMAP
60
60
30
E0
ENDCHAR
STARTCHAR uni0328
ENCODING 808
SWIDTH 0 0
DWIDTH 0 0
BBX 4 3 -6 -3
BITMAP
60
C0
70
ENDCHAR
STARTCHAR uni032E
ENCODING 814
SWIDTH 0 0
DWIDTH 0 0
BBX 5 2 -7 -3
BITMAP
C8
70
ENDCHAR
STARTCHAR uni0331
ENCODING 817
SWIDTH 0 0
DWIDTH 0 0
BBX 5 1 -7 -3
BITMAP
F8
ENDCHAR
STARTCHAR uni0335
ENCODING 821
SWIDTH 0 0
DWIDTH 0 0
BBX 5 1 -6 4
BITMAP
F8
ENDCHAR
STARTCHAR uni0394
ENCODING 916
SWIDTH 619 0
DWIDTH 10 0
BBX 10 12 0 0
BITMAP
0300
0300
0700
0580
0980
1980
1180
3080
2080
60C0
C0C0
FFC0
ENDCHAR
STARTCHAR uni03A9
ENCODING 937
SWIDTH 745 0
DWIDTH 12 0
BBX 11 12 0 0
BITMAP
07C0
0CE0
1860
3020
2020
2020
6060
6040
2040
2080
1900
F3C0
ENDCHAR
STARTCHAR uni03BC
ENCODING 956
SWIDTH 505 0
DWIDTH 8 0
BBX 10 11 -1 -3
BITMAP
3300
3300
3300
7700
7600
6640
6E80
7780
E000
C000
C000
ENDCHAR
STARTCHAR pi
ENCODING 960
SWIDTH 530 0
DWIDTH 8 0
BBX 9 8 0 0
BITMAP
FF80
6600
4400
4400
4400
CC00
CC00
8C00
ENDCHAR
STARTCHAR uni0400
ENCODING 1024
SWIDTH 459 0
DWIDTH 7 0
BBX 8 16 0 0
BITMAP
0C
04
04
00
0E
19
31
32
30
1C
70
60
E0
E1
E2
7C
ENDCHAR
STARTCHAR uni0401
ENCODING 1025
SWIDTH 459 0
DWIDTH 7 0
BBX 9 15 0 0
BITMAP
0D00
0D80
0000
0E00
1900
3100
3200
3000
1C00
7000
6000
E000
E100
E200
7C00
ENDCHAR
STARTCHAR uni0402
ENCODING 1026
SWIDTH 725 0
DWIDTH 12 0
BBX 12 15 0 -3
BITMAP
1FF0
66E0
4600
CE00
CE00
4FC0
0CC0
0CC0
1CC0
18C0
18C0
1980
0180
0300
0E00
ENDCHAR
STARTCHAR uni0403
ENCODING 1027
SWIDTH 400 0
DWIDTH 6 0
BBX 10 16 0 0
BITMAP
00C0
0180
0100
0000
1FC0
6FC0
CC00
DC00
DC00
5800
1800
1800
3800
3000
3000
3000
ENDCHAR
STARTCHAR uni0404
ENCODING 1028
SWIDTH 497 0
DWIDTH 8 0
BBX 9 12 0 0
BITMAP
0F00
1900
3180
7100
7000
7E00
E000
E000
E000
E080
6100
3E00
ENDCHAR
STARTCHAR uni0405
ENCODING 1029
SWIDTH 570 0
DWIDTH 9 0
BBX 8 12 1 0
BITMAP
1E
33
73
72
38
1C
0E
EE
C6
86
CC
78
ENDCHAR
STARTCHAR uni0406
ENCODING 1030
SWIDTH 374 0
DWIDTH 6 0
BBX 6 12 0 0
BITMAP
1C
2C
4C
DC
DC
58
18
18
38
30
30
30
ENDCHAR
STARTCHAR uni0407
ENCODING 1031
SWIDTH 375 0
DWIDTH 6 0
BBX 8 15 0 0
BITMAP
1B
1B
00
1C
2C
4C
DC
D8
58
18
38
38
30
30
70
ENDCHAR
STARTCHAR uni0408
ENCODING 1032
SWIDTH 536 0
DWIDTH 9 0
BBX 9 15 0 -3
BITMAP
0380
0580
0B80
1B00
1300
0B00
0300
0700
0600
0600
0600
7E00
CC00
CC00
7800
ENDCHAR
STARTCHAR uni0409
ENCODING 1033
SWIDTH 817 0
DWIDTH 13 0
BBX 13 13 0 -1
BITMAP
0380
0580
0B80
1B80
3300
33F0
6330
6738
C630
C630
C730
CEE0
C000
ENDCHAR
STARTCHAR uni040A
ENCODING 1034
SWIDTH 931 0
DWIDTH 15 0
BBX 14 12 0 0
BITMAP
1C60
2CE0
4CE0
DCC0
DCC0
5FF8
19CC
19CC
398C
318C
31CC
33F8
ENDCHAR
STARTCHAR uni040B
ENCODING 1035
SWIDTH 745 0
DWIDTH 12 0
BBX 12 12 0 0
BITMAP
1FF0
66E0
4600
CE00
CE00
4FC0
0CC0
0CC0
1CC0
18C0
18C0
18C0
ENDCHAR
STARTCHAR uni040C
ENCODING 1036
SWIDTH 635 0
DWIDTH 10 0
BBX 11 16 0 0
BITMAP
00C0
0080
0100
0000
1CE0
2DE0
4D00
DE00
DC00
5F00
1980
1980
3B80
3300
3300
3380
ENDCHAR
STARTCHAR uni040D
ENCODING 1037
SWIDTH 705 0
DWIDTH 11 0
BBX 12 16 0 0
BITMAP
0300
0100
0100
0000
1C70
2C60
4CE0
DDE0
DDE0
5BE0
1AC0
1EC0
3CC0
39C0
39C0
3180
ENDCHAR
STARTCHAR uni040E
ENCODING 1038
SWIDTH 644 0
DWIDTH 10 0
BBX 11 15 0 0
BITMAP
0220
0320
03C0
1E20
2E20
4E40
C640
C6C0
4780
0380
0300
0300
0200
1A00
1C00
ENDCHAR
STARTCHAR uni040F
ENCODING 1039
SWIDTH 665 0
DWIDTH 11 0
BBX 11 17 0 -5
BITMAP
1C60
2CE0
4CE0
DCC0
D8C0
58C0
19C0
19C0
3980
3180
3180
3F80
0800
1800
0C00
0C00
0C00
ENDCHAR
STARTCHAR uni0410
ENCODING 1040
SWIDTH 668 0
DWIDTH 11 0
BBX 11 14 0 -2
BITMAP
00E0
01E0
02E0
06C0
04C0
7EC0
D9C0
D9C0
3180
3180
3180
6380
6000
2000
ENDCHAR
STARTCHAR uni0411
ENCODING 1041
SWIDTH 638 0
DWIDTH 10 0
BBX 10 12 0 0
BITMAP
1FC0
6FC0
DC00
D800
D800
5F00
1980
3980
3180
3180
3980
7700
ENDCHAR
STARTCHAR uni0412
ENCODING 1042
SWIDTH 641 0
DWIDTH 10 0
BBX 10 12 0 0
BITMAP
1F00
3180
4C80
DC80
DD80
5F80
19C0
19C0
39C0
3180
3980
3700
ENDCHAR
STARTCHAR uni0413
ENCODING 1043
SWIDTH 400 0
DWIDTH 6 0
BBX 10 12 0 0
BITMAP
1FC0
6FC0
CC00
DC00
DC00
5800
1800
1800
3800
3000
3000
3000
ENDCHAR
STARTCHAR uni0414
ENCODING 1044
SWIDTH 669 0
DWIDTH 11 0
BBX 10 12 0 0
BITMAP
1F00
21C0
4CC0
DCC0
DCC0
18C0
18C0
38C0
F9C0
B180
B380
EE00
ENDCHAR
STARTCHAR uni0415
ENCODING 1045
SWIDTH 459 0
DWIDTH 7 0
BBX 8 12 0 0
BITMAP
0E
19
31
32
30
1C
70
60
E0
E1
E2
7C
ENDCHAR
STARTCHAR uni0416
ENCODING 1046
SWIDTH 777 0
DWIDTH 12 0
BBX 14 12 -1 0
BITMAP
19CC
3D9C
05A0
05A0
07C0
1FF0
3B30
3330
3330
3770
7760
E670
ENDCHAR
STARTCHAR uni0417
ENCODING 1047
SWIDTH 525 0
DWIDTH 8 0
BBX 8 12 0 0
BITMAP
1E
27
43
07
06
3C
06
07
07
C6
CE
78
ENDCHAR
STARTCHAR uni0418
ENCODING 1048
SWIDTH 705 0
DWIDTH 11 0
BBX 12 12 0 0
BITMAP
1C70
2C60
4CE0
DDE0
DDE0
5BE0
1AC0
1EC0
3CC0
39C0
39C0
3180
ENDCHAR
STARTCHAR uni0419
ENCODING 1049
SWIDTH 705 0
DWIDTH 11 0
BBX 12 15 0 0
BITMAP
0220
0340
0380
1C70
2C60
4CE0
DDE0
DDE0
5BE0
1AC0
1EC0
3CC0
39C0
39C0
3180
ENDCHAR
STARTCHAR uni041A
ENCODING 1050
SWIDTH 635 0
DWIDTH 10 0
BBX 11 12 0 0
BITMAP
1CE0
2DE0
4D00
DE00
DC00
5F00
1980
1980
3B80
3300
3300
3380
ENDCHAR
STARTCHAR uni041B
ENCODING 1051
SWIDTH 549 0
DWIDTH 9 0
BBX 9 14 0 -2
BITMAP
0380
0580
0B80
1B80
1300
3300
6300
6700
C600
C600
C600
CE00
8000
C000
ENDCHAR
STARTCHAR uni041C
ENCODING 1052
SWIDTH 787 0
DWIDTH 13 0
BBX 12 12 1 0
BITMAP
1C70
2C70
4C70
DCE0
DCE0
7DE0
2D60
2F60
6EE0
4EE0
4EC0
CCC0
ENDCHAR
STARTCHAR uni041D
ENCODING 1053
SWIDTH 665 0
DWIDTH 11 0
BBX 11 12 0 0
BITMAP
1C60
3CE0
4CE0
DCC0
DCC0
5FC0
19C0
19C0
3980
3180
3180
3380
ENDCHAR
STARTCHAR uni041E
ENCODING 1054
SWIDTH 665 0
DWIDTH 11 0
BBX 11 12 0 0
BITMAP
0F80
32C0
6CC0
D8C0
D8E0
78C0
30C0
30C0
3180
3180
3300
1E00
ENDCHAR
STARTCHAR uni041F
ENCODING 1055
SWIDTH 688 0
DWIDTH 11 0
BBX 13 12 0 0
BITMAP
1FF8
6DF0
4CE0
DCC0
D8C0
58C0
19C0
19C0
3980
3180
3180
3380
ENDCHAR
STARTCHAR uni0420
ENCODING 1056
SWIDTH 573 0
DWIDTH 9 0
BBX 9 12 0 0
BITMAP
1F00
2180
4C80
DC80
D980
5980
1B00
3C00
3800
3000
3000
7000
ENDCHAR
STARTCHAR uni0421
ENCODING 1057
SWIDTH 497 0
DWIDTH 8 0
BBX 9 12 0 0
BITMAP
0F00
1900
3180
7100
7000
6000
E000
E000
E000
E080
6100
3E00
ENDCHAR
STARTCHAR uni0422
ENCODING 1058
SWIDTH 481 0
DWIDTH 8 0
BBX 12 12 0 0
BITMAP
1F10
67E0
4FE0
CE00
CE00
CC00
0C00
1C00
1C00
1800
1800
1800
ENDCHAR
STARTCHAR uni0423
ENCODING 1059
SWIDTH 644 0
DWIDTH 10 0
BBX 11 12 0 0
BITMAP
1E20
2E20
4E40
C640
C6C0
4780
0380
0300
0300
0200
1A00
1C00
ENDCHAR
STARTCHAR uni0424
ENCODING 1060
SWIDTH 786 0
DWIDTH 13 0
BBX 12 13 0 0
BITMAP
1F80
3380
3300
0FC0
3760
6730
E630
E630
E670
6EE0
3F80
0C00
0C00
ENDCHAR
STARTCHAR uni0425
ENCODING 1061
SWIDTH 620 0
DWIDTH 10 0
BBX 10 12 0 0
BITMAP
1C40
2E80
4E80
CF00
C600
4600
0700
0700
0B00
0B00
1380
2380
ENDCHAR
STARTCHAR uni0426
ENCODING 1062
SWIDTH 692 0
DWIDTH 11 0
BBX 11 15 0 -3
BITMAP
1C60
2CE0
4CE0
DCC0
DCC0
58C0
19C0
19C0
3980
3180
3180
3F80
0780
01E0
00E0
ENDCHAR
STARTCHAR uni0427
ENCODING 1063
SWIDTH 695 0
DWIDTH 11 0
BBX 12 12 0 0
BITMAP
1C70
2C60
4C60
DC60
DCE0
5CC0
0FC0
00C0
01C0
01C0
0180
0180
ENDCHAR
STARTCHAR uni0428
ENCODING 1064
SWIDTH 906 0
DWIDTH 15 0
BBX 15 12 0 0
BITMAP
1CE6
2CCE
4CCC
DCCC
D9CC
599C
199C
1998
3998
3398
3338
3FF8
ENDCHAR
STARTCHAR uni0429
ENCODING 1065
SWIDTH 934 0
DWIDTH 15 0
BBX 15 15 0 -3
BITMAP
1CE6
2CCE
4CCC
DCCC
D9CC
599C
199C
1998
3998
3398
3338
3F38
03F0
007E
001E
ENDCHAR
STARTCHAR uni042A
ENCODING 1066
SWIDTH 714 0
DWIDTH 11 0
BBX 11 12 0 0
BITMAP
1F00
6600
4600
C600
CE00
4FC0
0CE0
0C60
1C60
1CE0
1CC0
1B80
ENDCHAR
STARTCHAR uni042B
ENCODING 1067
SWIDTH 909 0
DWIDTH 15 0
BBX 15 12 0 0
BITMAP
1C06
2C0E
4C0C
DC0C
DC0C
5F8C
199C
19D8
39D8
3198
39B8
3738
ENDCHAR
STARTCHAR uni042C
ENCODING 1068
SWIDTH 640 0
DWIDTH 10 0
BBX 10 12 0 0
BITMAP
1C00
2C00
4C00
DC00
DC00
5F80
1980
19C0
39C0
3180
3980
3700
ENDCHAR
STARTCHAR uni042D
ENCODING 1069
SWIDTH 544 0
DWIDTH 9 0
BBX 9 12 0 0
BITMAP
1E00
2700
4300
0380
0380
3F00
0300
0700
0700
CE00
8C00
7800
ENDCHAR
STARTCHAR uni042E
ENCODING 1070
SWIDTH 946 0
DWIDTH 15 0
BBX 15 12 0 0
BITMAP
1C78
2C8C
4C66
DCC6
DDC6
5F86
198E
1B8C
3B8C
3398
33B8
31E0
ENDCHAR
STARTCHAR uni042F
ENCODING 1071
SWIDTH 630 0
DWIDTH 10 0
BBX 12 12 -1 0
BITMAP
07E0
0C70
1990
1190
19A0
1B80
1F00
3B00
3300
3300
7700
E600
ENDCHAR
STARTCHAR uni0430
ENCODING 1072
SWIDTH 526 0
DWIDTH 8 0
BBX 9 8 0 0
BITMAP
3F00
6600
E600
C600
CE00
CE80
FF00
6600
ENDCHAR
STARTCHAR uni0431
ENCODING 1073
SWIDTH 430 0
DWIDTH 7 0
BBX 9 12 0 0
BITMAP
0080
3F80
1F00
0800
3800
6400
E400
C400
C400
CC00
C800
7000
ENDCHAR
STARTCHAR uni0432
ENCODING 1074
SWIDTH 449 0
DWIDTH 7 0
BBX 9 12 0 0
BITMAP
1C00
3400
3600
6400
6400
6400
FF80
DC00
C400
C400
C800
7000
ENDCHAR
STARTCHAR uni0433
ENCODING 1075
SWIDTH 375 0
DWIDTH 6 0
BBX 7 8 0 0
BITMAP
78
98
98
38
F0
C2
C4
F8
ENDCHAR
STARTCHAR uni0434
ENCODING 1076
SWIDTH 507 0
DWIDTH 8 0
BBX 9 12 0 -4
BITMAP
3F00
6600
E600
C600
CE00
CE00
CC80
7F00
1C00
7C00
5800
7800
ENDCHAR
STARTCHAR uni0435
ENCODING 1077
SWIDTH 384 0
DWIDTH 6 0
BBX 7 8 0 0
BITMAP
3C
64
EC
C8
F0
C2
C4
78
ENDCHAR
STARTCHAR uni0436
ENCODING 1078
SWIDTH 882 0
DWIDTH 14 0
BBX 16 8 -1 0
BITMAP
39CE
4D9A
0DB4
0FF0
0DB0
4BB1
DB32
733C
ENDCHAR
STARTCHAR uni0437
ENCODING 1079
SWIDTH 498 0
DWIDTH 8 0
BBX 9 12 0 -4
BITMAP
3C00
4E00
4E00
8E00
8C00
9C80
3100
1900
1E00
7C00
5800
7000
ENDCHAR
STARTCHAR uni0438
ENCODING 1080
SWIDTH 505 0
DWIDTH 8 0
BBX 9 8 0 0
BITMAP
6600
6600
6600
EE00
CC00
CC80
FF00
EE00
ENDCHAR
STARTCHAR uni0439
ENCODING 1081
SWIDTH 505 0
DWIDTH 8 0
BBX 9 12 0 0
BITMAP
1100
3200
3C00
0000
6600
6600
6600
EE00
CC00
CC80
FF00
EE00
ENDCHAR
STARTCHAR uni043A
ENCODING 1082
SWIDTH 501 0
DWIDTH 8 0
BBX 10 8 -1 0
BITMAP
3380
3580
3800
7E00
7600
6640
6680
E700
ENDCHAR
STARTCHAR uni043B
ENCODING 1083
SWIDTH 558 0
DWIDTH 9 0
BBX 11 8 -1 0
BITMAP
0780
0580
0B80
0B00
0B00
5320
D340
7380
ENDCHAR
STARTCHAR uni043C
ENCODING 1084
SWIDTH 827 0
DWIDTH 13 0
BBX 15 8 -1 0
BITMAP
0718
0738
0B38
0B58
0B70
53B2
D3BC
6318
ENDCHAR
STARTCHAR uni043D
ENCODING 1085
SWIDTH 507 0
DWIDTH 8 0
BBX 10 8 -1 0
BITMAP
3300
3300
3300
7F00
6600
6640
6680
E700
ENDCHAR
STARTCHAR uni043E
ENCODING 1086
SWIDTH 439 0
DWIDTH 7 0
BBX 9 8 0 0
BITMAP
3C00
6400
6D80
E600
C400
CC00
C800
7000
ENDCHAR
STARTCHAR uni043F
ENCODING 1087
SWIDTH 505 0
DWIDTH 8 0
BBX 10 8 -1 0
BITMAP
3E00
3300
3300
7700
6600
6640
6680
E700
ENDCHAR
STARTCHAR uni0440
ENCODING 1088
SWIDTH 468 0
DWIDTH 7 0
BBX 8 13 -1 -4
BITMAP
38
3E
33
33
73
63
67
6E
FC
E0
C0
C0
80
ENDCHAR
STARTCHAR uni0441
ENCODING 1089
SWIDTH 384 0
DWIDTH 6 0
BBX 7 8 0 0
BITMAP
3C
64
6C
E0
C0
C2
C4
78
ENDCHAR
STARTCHAR uni0442
ENCODING 1090
SWIDTH 752 0
DWIDTH 12 0
BBX 14 8 -1 0
BITMAP
3FE0
3330
3770
7770
6660
6664
6668
EE70
ENDCHAR
STARTCHAR uni0443
ENCODING 1091
SWIDTH 486 0
DWIDTH 8 0
BBX 8 12 0 -4
BITMAP
66
66
66
EE
CC
CD
FD
FE
3C
58
58
70
ENDCHAR
STARTCHAR uni0444
ENCODING 1092
SWIDTH 738 0
DWIDTH 12 0
BBX 11 15 0 -4
BITMAP
0300
0300
0300
3FE0
6660
E660
C660
CE60
CCE0
CCC0
FF80
0C00
1800
1800
1000
ENDCHAR
STARTCHAR uni0445
ENCODING 1093
SWIDTH 522 0
DWIDTH 8 0
BBX 9 9 0 0
BITMAP
0300
3B00
5900
5E00
8C00
8C00
1C80
2C80
C700
ENDCHAR
STARTCHAR uni0446
ENCODING 1094
SWIDTH 535 0
DWIDTH 9 0
BBX 8 12 0 -4
BITMAP
66
66
66
EE
CC
CC
FF
EE
02
3E
3C
40
ENDCHAR
STARTCHAR uni0447
ENCODING 1095
SWIDTH 505 0
DWIDTH 8 0
BBX 9 8 0 0
BITMAP
6600
6600
6600
EE00
FC00
7C80
0D00
0E00
ENDCHAR
STARTCHAR uni0448
ENCODING 1096
SWIDTH 752 0
DWIDTH 12 0
BBX 13 8 0 0
BITMAP
6660
6660
66E0
EEE0
CCC0
CCC8
FFF0
EEE0
ENDCHAR
STARTCHAR uni0449
ENCODING 1097
SWIDTH 782 0
DWIDTH 13 0
BBX 12 12 0 -4
BITMAP
6660
6660
66E0
EEE0
CCC0
CCC0
FFF0
EEE0
0020
03E0
07C0
0400
ENDCHAR
STARTCHAR uni044A
ENCODING 1098
SWIDTH 448 0
DWIDTH 7 0
BBX 7 8 0 0
BITMAP
F8
F0
3C
6C
CE
CC
CC
70
ENDCHAR
STARTCHAR uni044B
ENCODING 1099
SWIDTH 655 0
DWIDTH 10 0
BBX 11 8 0 0
BITMAP
60C0
6380
7D80
ED80
CD80
CFA0
DBC0
71C0
ENDCHAR
STARTCHAR uni044C
ENCODING 1100
SWIDTH 448 0
DWIDTH 7 0
BBX 7 8 0 0
BITMAP
60
60
7C
EC
CE
CC
DC
78
ENDCHAR
STARTCHAR uni044D
ENCODING 1101
SWIDTH 413 0
DWIDTH 7 0
BBX 7 8 -1 0
BITMAP
3C
4E
06
3E
0E
CC
D8
70
ENDCHAR
STARTCHAR uni044E
ENCODING 1102
SWIDTH 675 0
DWIDTH 11 0
BBX 14 8 -1 0
BITMAP
31C0
3324
3778
7E20
6660
6640
6640
E780
ENDCHAR
STARTCHAR uni044F
ENCODING 1103
SWIDTH 527 0
DWIDTH 8 0
BBX 10 8 -1 0
BITMAP
0F80
3B00
3300
3300
1F00
5740
D640
7380
ENDCHAR
STARTCHAR uni0450
ENCODING 1104
SWIDTH 384 0
DWIDTH 6 0
BBX 7 12 0 0
BITMAP
30
10
18
00
3C
64
EC
C8
F0
C2
C4
78
ENDCHAR
STARTCHAR uni0451
ENCODING 1105
SWIDTH 384 0
DWIDTH 6 0
BBX 7 11 0 0
BITMAP
36
36
00
3C
64
EC
C8
F0
C2
C4
78
ENDCHAR
STARTCHAR uni0452
ENCODING 1106
SWIDTH 491 0
DWIDTH 8 0
BBX 10 15 -1 -4
BITMAP
1800
3800
7E00
3000
3E00
3700
7700
6640
6680
6680
EF00
1C00
2C00
2C00
3800
ENDCHAR
STARTCHAR uni0453
ENCODING 1107
SWIDTH 375 0
DWIDTH 6 0
BBX 7 12 0 0
BITMAP
06
08
18
00
78
98
98
38
F0
C2
C4
F8
ENDCHAR
STARTCHAR uni0454
ENCODING 1108
SWIDTH 384 0
DWIDTH 6 0
BBX 7 8 0 0
BITMAP
3C
64
68
F0
C0
C2
C4
78
ENDCHAR
STARTCHAR uni0455
ENCODING 1109
SWIDTH 382 0
DWIDTH 6 0
BBX 8 9 -1 0
BITMAP
04
1C
1C
3C
2C
4C
4F
9C
78
ENDCHAR
STARTCHAR uni0456
ENCODING 1110
SWIDTH 267 0
DWIDTH 4 0
BBX 5 11 0 0
BITMAP
30
70
30
60
60
60
E0
C0
C8
F0
E0
ENDCHAR
STARTCHAR uni0457
ENCODING 1111
SWIDTH 267 0
DWIDTH 4 0
BBX 5 11 0 0
BITMAP
D8
D8
00
60
60
60
E0
C0
C8
F0
E0
ENDCHAR
STARTCHAR uni0458
ENCODING 1112
SWIDTH 240 0
DWIDTH 4 0
BBX 8 15 -3 -4
BITMAP
06
0E
04
0C
0C
0C
1C
18
19
1A
1C
78
B0
B0
E0
ENDCHAR
STARTCHAR uni0459
ENCODING 1113
SWIDTH 745 0
DWIDTH 12 0
BBX 12 8 -1 0
BITMAP
0780
0580
0BE0
0BF0
0B30
5330
D320
73C0
ENDCHAR
STARTCHAR uni045A
ENCODING 1114
SWIDTH 694 0
DWIDTH 11 0
BBX 11 8 -1 0
BITMAP
3300
3300
33E0
7F60
6660
6660
6660
E380
ENDCHAR
STARTCHAR uni045B
ENCODING 1115
SWIDTH 505 0
DWIDTH 8 0
BBX 10 11 -1 0
BITMAP
1800
3800
7E00
3000
3E00
3700
7700
6600
6640
6680
E700
ENDCHAR
STARTCHAR uni045C
ENCODING 1116
SWIDTH 501 0
DWIDTH 8 0
BBX 10 12 -1 0
BITMAP
0300
0200
0400
0000
3380
3580
3800
7E00
7600
6640
6680
E700
ENDCHAR
STARTCHAR uni045D
ENCODING 1117
SWIDTH 505 0
DWIDTH 8 0
BBX 9 12 0 0
BITMAP
1800
1800
0800
0000
6600
6600
6600
EE00
CC00
CC80
FF00
EE00
ENDCHAR
STARTCHAR uni045E
ENCODING 1118
SWIDTH 486 0
DWIDTH 8 0
BBX 8 16 0 -4
BITMAP
11
32
3C
00
66
66
66
EE
CC
CD
FD
FE
3C
58
58
70
ENDCHAR
STARTCHAR uni045F
ENCODING 1119
SWIDTH 505 0
DWIDTH 8 0
BBX 9 12 0 -4
BITMAP
6600
6600
6600
EE00
CC00
CC80
FF00
EE00
1000
3000
1800
1000
ENDCHAR
STARTCHAR uni0462
ENCODING 1122
SWIDTH 659 0
DWIDTH 11 0
BBX 10 12 0 0
BITMAP
0C00
0C00
7FC0
DB80
D800
DF00
1980
3980
3180
3180
3980
7700
ENDCHAR
STARTCHAR uni0463
ENCODING 1123
SWIDTH 692 0
DWIDTH 11 0
BBX 11 8 -1 0
BITMAP
3F00
3300
33E0
7760
6660
6660
6660
E380
ENDCHAR
STARTCHAR uni046A
ENCODING 1130
SWIDTH 834 0
DWIDTH 13 0
BBX 12 12 1 0
BITMAP
1FF0
6E20
CE40
8680
8780
5FE0
3760
6660
6660
6660
66E0
CE60
ENDCHAR
STARTCHAR uni046B
ENCODING 1131
SWIDTH 750 0
DWIDTH 12 0
BBX 9 8 1 0
BITMAP
3F80
DD00
CD00
3F80
6D80
6D80
6D80
DD80
ENDCHAR
STARTCHAR uni0472
ENCODING 1138
SWIDTH 665 0
DWIDTH 11 0
BBX 11 12 0 0
BITMAP
0F80
32C0
6CC0
D8C0
D8E0
7EC0
33C0
30C0
3180
3180
3300
1E00
ENDCHAR
STARTCHAR uni0473
ENCODING 1139
SWIDTH 439 0
DWIDTH 7 0
BBX 9 8 0 0
BITMAP
3C00
6400
6F80
C400
FC00
CC00
F800
7000
ENDCHAR
STARTCHAR uni0474
ENCODING 1140
SWIDTH 668 0
DWIDTH 11 0
BBX 12 12 0 0
BITMAP
1C30
2C60
4CC0
CCC0
CC80
4D80
0D00
0D00
0D00
0E00
0E00
0E00
ENDCHAR
STARTCHAR uni0475
ENCODING 1141
SWIDTH 414 0
DWIDTH 7 0
BBX 6 8 0 0
BITMAP
6C
64
64
E4
C4
C8
F8
F0
ENDCHAR
STARTCHAR uni0490
ENCODING 1168
SWIDTH 431 0
DWIDTH 7 0
BBX 10 14 0 0
BITMAP
0040
0040
1FC0
6FC0
4C00
DC00
D800
5800
1800
3800
3800
3000
3000
7000
ENDCHAR
STARTCHAR uni0491
ENCODING 1169
SWIDTH 342 0
DWIDTH 5 0
BBX 7 9 -1 0
BITMAP
06
3E
30
30
70
60
60
60
E0
ENDCHAR
STARTCHAR uni0492
ENCODING 1170
SWIDTH 400 0
DWIDTH 6 0
BBX 10 12 0 0
BITMAP
1FC0
6FC0
CC00
DC00
D800
1800
7E00
1800
3800
3000
3000
3000
ENDCHAR
STARTCHAR uni0493
ENCODING 1171
SWIDTH 375 0
DWIDTH 6 0
BBX 7 8 0 0
BITMAP
78
98
18
FC
E2
C4
CC
F0
ENDCHAR
STARTCHAR uni0494
ENCODING 1172
SWIDTH 665 0
DWIDTH 11 0
BBX 10 12 0 0
BITMAP
1FC0
6FC0
4C00
DC00
DC00
DF80
19C0
18C0
38C0
31C0
3180
3700
ENDCHAR
STARTCHAR uni0495
ENCODING 1173
SWIDTH 486 0
DWIDTH 8 0
BBX 9 12 -1 -4
BITMAP
3F00
3F00
3000
7E00
7600
6680
6680
EF00
1C00
2C00
2C00
3800
ENDCHAR
STARTCHAR uni0496
ENCODING 1174
SWIDTH 777 0
DWIDTH 12 0
BBX 14 17 -1 -5
BITMAP
19CC
3D9C
05A0
05A0
07C0
1FF0
3B30
3330
3330
3770
7760
E670
0060
0060
0070
0030
0020
ENDCHAR
STARTCHAR uni0497
ENCODING 1175
SWIDTH 882 0
DWIDTH 14 0
BBX 16 12 -1 -4
BITMAP
39CE
4D9A
0DB4
0FF0
0DB0
4BB1
DB32
733C
0010
0018
0018
0010
ENDCHAR
STARTCHAR uni0498
ENCODING 1176
SWIDTH 525 0
DWIDTH 8 0
BBX 8 17 0 -5
BITMAP
1E
27
43
07
06
3C
06
07
07
C6
CE
78
30
30
18
18
10
ENDCHAR
STARTCHAR uni0499
ENCODING 1177
SWIDTH 498 0
DWIDTH 8 0
BBX 9 16 0 -8
BITMAP
3C00
4E00
4E00
8E00
8C00
9C80
3100
1900
1E00
7C00
5800
7000
2000
6000
3000
2000
ENDCHAR
STARTCHAR uni049A
ENCODING 1178
SWIDTH 635 0
DWIDTH 10 0
BBX 11 17 0 -5
BITMAP
1CE0
2DE0
4D00
DE00
DC00
5F00
1980
1980
3B80
3300
3300
3380
0200
0300
0380
0100
0100
ENDCHAR
STARTCHAR uni049B
ENCODING 1179
SWIDTH 501 0
DWIDTH 8 0
BBX 10 12 -1 -4
BITMAP
3380
3580
3800
7E00
7600
6640
6680
E700
0200
0700
0300
0200
ENDCHAR
STARTCHAR uni049C
ENCODING 1180
SWIDTH 721 0
DWIDTH 12 0
BBX 12 12 0 0
BITMAP
1C30
2C70
4C80
DF00
DF00
5F80
1DC0
1D80
3980
3180
3180
3180
ENDCHAR
STARTCHAR uni049D
ENCODING 1181
SWIDTH 551 0
DWIDTH 9 0
BBX 10 8 -1 0
BITMAP
31C0
3A80
3C00
7F00
7B00
7340
63C0
E380
ENDCHAR
STARTCHAR uni04A0
ENCODING 1184
SWIDTH 691 0
DWIDTH 11 0
BBX 12 12 0 0
BITMAP
1E70
66B0
CF00
CF00
CE00
4F80
0DC0
1CC0
1D80
1980
1980
39C0
ENDCHAR
STARTCHAR uni04A1
ENCODING 1185
SWIDTH 676 0
DWIDTH 11 0
BBX 11 8 0 0
BITMAP
7CC0
CD40
DE00
DF80
1980
19A0
19E0
39C0
ENDCHAR
STARTCHAR uni04A2
ENCODING 1186
SWIDTH 665 0
DWIDTH 11 0
BBX 11 14 0 -2
BITMAP
1C60
2CE0
4CE0
DCC0
DCC0
5FC0
19C0
1980
3980
3180
3180
3380
00E0
00E0
ENDCHAR
STARTCHAR uni04A3
ENCODING 1187
SWIDTH 507 0
DWIDTH 8 0
BBX 10 12 -1 -4
BITMAP
3300
3300
3300
7F00
6600
6640
6680
E700
0200
0700
0300
0200
ENDCHAR
STARTCHAR uni04A4
ENCODING 1188
SWIDTH 689 0
DWIDTH 11 0
BBX 15 12 0 0
BITMAP
1C7E
2CFC
4CE0
DCC0
DCC0
5FC0
19C0
19C0
3980
3180
3180
3380
ENDCHAR
STARTCHAR uni04A5
ENCODING 1189
SWIDTH 681 0
DWIDTH 11 0
BBX 12 8 -1 0
BITMAP
33F0
33F0
3300
7F00
6600
6640
6780
E700
ENDCHAR
STARTCHAR uni04AA
ENCODING 1194
SWIDTH 497 0
DWIDTH 8 0
BBX 9 17 0 -5
BITMAP
0F00
1900
3180
7100
7000
6000
E000
E000
E000
E080
7100
7E00
1000
1800
1800
0800
0800
ENDCHAR
STARTCHAR uni04AB
ENCODING 1195
SWIDTH 384 0
DWIDTH 6 0
BBX 7 12 0 -4
BITMAP
3C
64
68
C0
C0
C2
C4
78
20
60
20
20
ENDCHAR
STARTCHAR uni04AE
ENCODING 1198
SWIDTH 620 0
DWIDTH 10 0
BBX 11 12 0 0
BITMAP
1C20
2E20
4E40
C640
C680
4780
0700
0700
0700
0700
0600
0E00
ENDCHAR
STARTCHAR uni04AF
ENCODING 1199
SWIDTH 480 0
DWIDTH 8 0
BBX 6 12 1 -4
BITMAP
CC
CC
C4
C4
E8
E8
F0
60
60
E0
C0
C0
ENDCHAR
STARTCHAR uni04B0
ENCODING 1200
SWIDTH 620 0
DWIDTH 10 0
BBX 11 12 0 0
BITMAP
1C20
2E20
4E40
C640
C680
4780
0700
0F80
0700
0700
0600
0E00
ENDCHAR
STARTCHAR uni04B1
ENCODING 1201
SWIDTH 480 0
DWIDTH 8 0
BBX 7 12 0 -4
BITMAP
66
66
62
62
74
74
78
FC
30
70
60
60
ENDCHAR
STARTCHAR uni04B6
ENCODING 1206
SWIDTH 695 0
DWIDTH 11 0
BBX 12 14 0 -2
BITMAP
1C70
2C60
4C60
DC60
DCE0
5CC0
0FC0
00C0
01C0
0180
0180
01C0
00F0
0060
ENDCHAR
STARTCHAR uni04B7
ENCODING 1207
SWIDTH 505 0
DWIDTH 8 0
BBX 9 12 0 -4
BITMAP
6600
6600
6600
EE00
FC00
7C80
0D00
0E00
0400
0E00
0600
0400
ENDCHAR
STARTCHAR uni04B8
ENCODING 1208
SWIDTH 715 0
DWIDTH 11 0
BBX 12 12 0 0
BITMAP
1C70
2C70
4C60
DC60
DC60
5EE0
0FE0
02C0
00C0
00C0
01C0
0180
ENDCHAR
STARTCHAR uni04B9
ENCODING 1209
SWIDTH 545 0
DWIDTH 9 0
BBX 9 8 0 0
BITMAP
6300
6700
6E00
F600
FE00
7680
1E80
0700
ENDCHAR
STARTCHAR uni04BA
ENCODING 1210
SWIDTH 679 0
DWIDTH 11 0
BBX 10 12 0 0
BITMAP
1C00
2C00
4C00
DC00
DC00
5F80
18C0
18C0
39C0
31C0
3180
3180
ENDCHAR
STARTCHAR uni04BB
ENCODING 1211
SWIDTH 505 0
DWIDTH 8 0
BBX 10 11 -1 0
BITMAP
1800
3800
3000
3E00
3300
3300
7700
6600
6640
6680
E700
ENDCHAR
STARTCHAR uni04C0
ENCODING 1216
SWIDTH 375 0
DWIDTH 6 0
BBX 6 12 0 0
BITMAP
1C
2C
4C
DC
D8
58
18
38
38
30
30
70
ENDCHAR
STARTCHAR uni04C1
ENCODING 1217
SWIDTH 777 0
DWIDTH 12 0
BBX 14 15 -1 0
BITMAP
0110
0320
01C0
19CC
3D9C
05A0
05A0
07C0
1FF0
3B30
3330
3330
3770
7760
E670
ENDCHAR
STARTCHAR uni04C2
ENCODING 1218
SWIDTH 882 0
DWIDTH 14 0
BBX 16 12 -1 0
BITMAP
0110
0320
01C0
0000
39CE
4D9A
0DB4
0FF0
0DB0
4BB1
DB32
733C
ENDCHAR
STARTCHAR uni04CB
ENCODING 1227
SWIDTH 695 0
DWIDTH 11 0
BBX 12 14 0 -2
BITMAP
1C70
2C60
4C60
DC60
DCE0
1CC0
0FC0
00C0
01C0
01C0
0180
0380
1E00
1C00
ENDCHAR
STARTCHAR uni04CC
ENCODING 1228
SWIDTH 516 0
DWIDTH 8 0
BBX 9 12 0 -4
BITMAP
7700
6600
6600
6E00
7E00
7C80
0C80
0F00
0400
7C00
7800
8000
ENDCHAR
STARTCHAR uni04CF
ENCODING 1231
SWIDTH 267 0
DWIDTH 4 0
BBX 5 11 0 0
BITMAP
30
70
60
60
60
60
E0
C0
C8
F0
E0
ENDCHAR
STARTCHAR uni04D0
ENCODING 1232
SWIDTH 668 0
DWIDTH 11 0
BBX 13 17 0 -2
BITMAP
0088
00D0
00E0
00E0
01E0
02E0
06C0
04C0
7EC0
D9C0
D9C0
3180
3180
3180
6380
6000
2000
ENDCHAR
STARTCHAR uni04D1
ENCODING 1233
SWIDTH 526 0
DWIDTH 8 0
BBX 9 12 0 0
BITMAP
1100
1900
1E00
0000
3F00
6600
E600
C600
CE00
CE80
FF00
6600
ENDCHAR
STARTCHAR uni04D2
ENCODING 1234
SWIDTH 668 0
DWIDTH 11 0
BBX 13 17 0 -2
BITMAP
00D8
00D8
0000
00E0
01E0
02E0
06C0
04C0
7EC0
D9C0
D9C0
3180
3180
3180
6380
6000
2000
ENDCHAR
STARTCHAR uni04D3
ENCODING 1235
SWIDTH 526 0
DWIDTH 8 0
BBX 9 11 0 0
BITMAP
1B00
1B00
0000
3F00
6600
E600
C600
CE00
CE80
FF00
6600
ENDCHAR
STARTCHAR uni04D4
ENCODING 1236
SWIDTH 764 0
DWIDTH 12 0
BBX 15 14 0 -2
BITMAP
00E2
01FC
02E0
04C0
04C0
7FF0
D9C0
1980
3180
3180
31F8
63F0
6000
2000
ENDCHAR
STARTCHAR uni04D5
ENCODING 1237
SWIDTH 650 0
DWIDTH 10 0
BBX 11 8 0 0
BITMAP
3FC0
4740
0640
7E80
EF00
CC20
CE40
F780
ENDCHAR
STARTCHAR uni04D6
ENCODING 1238
SWIDTH 459 0
DWIDTH 7 0
BBX 9 15 0 0
BITMAP
0880
1D00
0E00
0E00
1900
3100
3200
3000
1C00
7000
6000
E000
E100
E200
7C00
ENDCHAR
STARTCHAR uni04D7
ENCODING 1239
SWIDTH 384 0
DWIDTH 6 0
BBX 7 12 0 0
BITMAP
22
32
3C
00
3C
64
EC
C8
F0
C2
C4
78
ENDCHAR
STARTCHAR uni04D8
ENCODING 1240
SWIDTH 544 0
DWIDTH 9 0
BBX 9 12 0 0
BITMAP
1E00
3F00
2300
0380
0380
0F80
3300
6700
6700
C600
CC00
7800
ENDCHAR
STARTCHAR uni04D9
ENCODING 1241
SWIDTH 404 0
DWIDTH 6 0
BBX 6 8 0 0
BITMAP
78
4C
0C
3C
4C
D8
98
F0
ENDCHAR
STARTCHAR uni04DC
ENCODING 1244
SWIDTH 777 0
DWIDTH 12 0
BBX 14 15 -1 0
BITMAP
0120
01A0
0000
19CC
3D9C
05A0
05A0
07C0
1FF0
3B30
3330
3330
3770
7760
E670
ENDCHAR
STARTCHAR uni04DD
ENCODING 1245
SWIDTH 882 0
DWIDTH 14 0
BBX 16 11 -1 0
BITMAP
0120
01E0
0000
39CE
4D9A
0DB4
0FF0
0DB0
4BB1
DB32
733C
ENDCHAR
STARTCHAR uni04DE
ENCODING 1246
SWIDTH 525 0
DWIDTH 8 0
BBX 8 15 0 0
BITMAP
09
1B
00
1E
27
43
07
06
3C
06
07
07
C6
CE
78
ENDCHAR
STARTCHAR uni04DF
ENCODING 1247
SWIDTH 498 0
DWIDTH 8 0
BBX 9 15 0 -4
BITMAP
1600
3600
0000
3C00
4E00
4E00
8E00
8C00
9C80
3100
1900
1E00
7C00
5800
7000
ENDCHAR
STARTCHAR uni04E2
ENCODING 1250
SWIDTH 705 0
DWIDTH 11 0
BBX 12 14 0 0
BITMAP
03E0
0000
1C70
2C60
4CE0
DDE0
DDE0
5BE0
1AC0
1EC0
3CC0
39C0
39C0
3180
ENDCHAR
STARTCHAR uni04E3
ENCODING 1251
SWIDTH 505 0
DWIDTH 8 0
BBX 9 10 0 0
BITMAP
3E00
0000
6600
6600
6600
EE00
CC00
CC80
FF00
EE00
ENDCHAR
STARTCHAR uni04E4
ENCODING 1252
SWIDTH 705 0
DWIDTH 11 0
BBX 12 15 0 0
BITMAP
0360
0360
0000
1C70
2C60
4CE0
DDE0
DDE0
5BE0
1AC0
1EC0
3CC0
39C0
39C0
3180
ENDCHAR
STARTCHAR uni04E5
ENCODING 1253
SWIDTH 505 0
DWIDTH 8 0
BBX 9 11 0 0
BITMAP
3600
3600
0000
6600
6600
6600
EE00
CC00
CC80
FF00
EE00
ENDCHAR
STARTCHAR uni04E6
ENCODING 1254
SWIDTH 665 0
DWIDTH 11 0
BBX 11 15 0 0
BITMAP
0240
02C0
0000
0F80
32C0
6CC0
D8C0
D8E0
78C0
30C0
30C0
3180
3180
3300
1E00
ENDCHAR
STARTCHAR uni04E7
ENCODING 1255
SWIDTH 439 0
DWIDTH 7 0
BBX 9 11 0 0
BITMAP
1600
3600
0000
3C00
6400
6D80
E600
C400
CC00
C800
7000
ENDCHAR
STARTCHAR uni04E8
ENCODING 1256
SWIDTH 665 0
DWIDTH 11 0
BBX 11 12 0 0
BITMAP
0F80
32C0
6CC0
DCC0
D8E0
F8C0
3FC0
30C0
3180
3180
3300
1E00
ENDCHAR
STARTCHAR uni04E9
ENCODING 1257
SWIDTH 439 0
DWIDTH 7 0
BBX 9 8 0 0
BITMAP
3C00
6400
6D80
FE00
C400
CC00
C800
7000
ENDCHAR
STARTCHAR uni04EE
ENCODING 1262
SWIDTH 644 0
DWIDTH 10 0
BBX 11 14 0 0
BITMAP
03E0
0000
1E20
2E20
4E40
C640
C6C0
4780
0380
0300
0300
0200
1A00
1C00
ENDCHAR
STARTCHAR uni04EF
ENCODING 1263
SWIDTH 486 0
DWIDTH 8 0
BBX 8 14 0 -4
BITMAP
3E
00
66
66
66
EE
CC
CD
FD
FE
3C
58
58
70
ENDCHAR
STARTCHAR uni04F0
ENCODING 1264
SWIDTH 644 0
DWIDTH 10 0
BBX 11 15 0 0
BITMAP
0360
0360
0000
1E20
2E20
4E40
C640
C6C0
4780
0380
0300
0300
0200
1A00
1C00
ENDCHAR
STARTCHAR uni04F1
ENCODING 1265
SWIDTH 486 0
DWIDTH 8 0
BBX 8 15 0 -4
BITMAP
36
36
00
66
66
66
EE
CC
CD
FD
FE
3C
58
58
70
ENDCHAR
STARTCHAR uni04F2
ENCODING 1266
SWIDTH 644 0
DWIDTH 10 0
BBX 12 16 0 0
BITMAP
01B0
0120
0240
0000
1E20
2E20
4E40
C640
C6C0
4780
0380
0300
0300
0200
1A00
1C00
ENDCHAR
STARTCHAR uni04F3
ENCODING 1267
SWIDTH 486 0
DWIDTH 8 0
BBX 8 16 0 -4
BITMAP
0F
12
34
00
66
66
66
EE
CC
CD
FD
FE
3C
58
58
70
ENDCHAR
STARTCHAR uni04F4
ENCODING 1268
SWIDTH 695 0
DWIDTH 11 0
BBX 12 15 0 0
BITMAP
0360
0360
0000
1C70
2C60
4C60
DC60
DCE0
5CC0
0FC0
00C0
01C0
01C0
0180
0180
ENDCHAR
STARTCHAR uni04F5
ENCODING 1269
SWIDTH 505 0
DWIDTH 8 0
BBX 9 11 0 0
BITMAP
3600
3600
0000
6600
6600
6600
EE00
FC00
7C80
0D00
0E00
ENDCHAR
STARTCHAR uni04F6
ENCODING 1270
SWIDTH 442 0
DWIDTH 7 0
BBX 10 14 0 -2
BITMAP
1FC0
6FC0
CC00
DC00
DC00
5800
1800
1800
3800
3000
3000
3000
1E00
0C00
ENDCHAR
STARTCHAR uni04F7
ENCODING 1271
SWIDTH 375 0
DWIDTH 6 0
BBX 7 12 0 -4
BITMAP
78
98
98
38
E2
C4
E8
F0
40
60
60
40
ENDCHAR
STARTCHAR uni04F8
ENCODING 1272
SWIDTH 909 0
DWIDTH 15 0
BBX 15 15 0 0
BITMAP
0090
00D0
0000
1C06
2C0E
4C0C
DC0C
DC0C
5F8C
199C
19D8
39D8
3198
39B8
3738
ENDCHAR
STARTCHAR uni04F9
ENCODING 1273
SWIDTH 642 0
DWIDTH 10 0
BBX 11 11 0 0
BITMAP
0900
1B00
0000
60C0
6380
7D80
ED80
CF80
CB20
DBC0
7180
ENDCHAR
STARTCHAR uni051A
ENCODING 1306
SWIDTH 665 0
DWIDTH 11 0
BBX 11 13 0 -1
BITMAP
0F80
32C0
6CC0
D8C0
D8E0
78C0
30C0
30C0
31C0
3D80
3300
1F00
03C0
ENDCHAR
STARTCHAR uni051B
ENCODING 1307
SWIDTH 486 0
DWIDTH 8 0
BBX 8 12 0 -4
BITMAP
3F
66
E6
C6
CE
CC
CC
7C
0C
1C
18
10
ENDCHAR
STARTCHAR uni051C
ENCODING 1308
SWIDTH 962 0
DWIDTH 15 0
BBX 17 12 0 0
BITMAP
1C3180
2C7100
4C7100
CC7200
CCB200
4CB400
0CB400
0D3400
0D3800
0D3800
0E3800
0E3000
ENDCHAR
STARTCHAR uni051D
ENCODING 1309
SWIDTH 661 0
DWIDTH 11 0
BBX 10 8 0 0
BITMAP
66C0
66C0
6640
EE40
CC40
CC80
FF80
EF00
ENDCHAR
STARTCHAR uni0524
ENCODING 1316
SWIDTH 742 0
DWIDTH 12 0
BBX 13 14 0 -2
BITMAP
1FF8
6DF0
4CE0
DCC0
D8C0
58C0
19C0
19C0
3980
3180
3180
3380
00E0
00E0
ENDCHAR
STARTCHAR uni0525
ENCODING 1317
SWIDTH 505 0
DWIDTH 8 0
BBX 10 12 -1 -4
BITMAP
3E00
3300
3300
7700
6600
6640
6780
E700
0200
0700
0300
0200
ENDCHAR
STARTCHAR uni1E0C
ENCODING 7692
SWIDTH 663 0
DWIDTH 11 0
BBX 10 16 0 -4
BITMAP
1F00
2180
4CC0
DCC0
D8C0
D8C0
18C0
38C0
39C0
3180
3300
3E00
4000
1800
1C00
1800
ENDCHAR
STARTCHAR uni1E0D
ENCODING 7693
SWIDTH 525 0
DWIDTH 8 0
BBX 9 15 0 -4
BITMAP
0300
0300
0700
3F00
6600
E600
C600
CE00
CE00
CC80
7F00
0000
3000
7000
3000
ENDCHAR
STARTCHAR uni1E20
ENCODING 7712
SWIDTH 578 0
DWIDTH 9 0
BBX 9 18 0 -3
BITMAP
0F80
0000
0000
0F00
3980
7180
6180
E000
E000
E180
E300
6700
3B00
0300
3E00
6600
6400
3800
ENDCHAR
STARTCHAR uni1E21
ENCODING 7713
SWIDTH 507 0
DWIDTH 8 0
BBX 9 15 0 -4
BITMAP
3F00
0000
0000
3F00
6600
E600
C600
CE00
CE00
CC80
7F00
1C00
7C00
5800
7800
ENDCHAR
STARTCHAR uni1E24
ENCODING 7716
SWIDTH 665 0
DWIDTH 11 0
BBX 11 16 0 -4
BITMAP
1C60
3CE0
4CE0
DCC0
DCC0
5FC0
19C0
19C0
3980
3180
3180
3380
0000
0800
1C00
0C00
ENDCHAR
STARTCHAR uni1E25
ENCODING 7717
SWIDTH 505 0
DWIDTH 8 0
BBX 10 15 -1 -4
BITMAP
1800
3800
3000
3E00
3300
3300
7700
6600
6640
6680
E700
0000
1000
3800
1800
ENDCHAR
STARTCHAR uni1E2A
ENCODING 7722
SWIDTH 665 0
DWIDTH 11 0
BBX 11 15 0 -3
BITMAP
1C60
3CE0
4CE0
DCC0
DCC0
5FC0
19C0
19C0
3980
3180
3180
3380
0100
3200
1C00
ENDCHAR
STARTCHAR uni1E2B
ENCODING 7723
SWIDTH 505 0
DWIDTH 8 0
BBX 10 14 -1 -3
BITMAP
1800
3800
3000
3E00
3300
3300
7700
6600
6640
6680
E700
0000
4400
3800
ENDCHAR
STARTCHAR uni1E36
ENCODING 7734
SWIDTH 379 0
DWIDTH 6 0
BBX 11 16 0 -4
BITMAP
1C00
2C00
4C00
DC00
D800
5800
1800
3800
3800
3000
3000
7000
0C00
2720
73C0
61C0
ENDCHAR
STARTCHAR uni1E37
ENCODING 7735
SWIDTH 293 0
DWIDTH 5 0
BBX 5 15 0 -4
BITMAP
18
30
30
70
70
60
60
60
E8
E8
70
00
C0
C0
C0
ENDCHAR
STARTCHAR uni1E42
ENCODING 7746
SWIDTH 787 0
DWIDTH 13 0
BBX 12 16 1 -4
BITMAP
1C70
2C70
4C70
DCE0
DCE0
7DE0
2D60
2F60
6EE0
4EE0
4EC0
CCC0
0000
0800
1C00
1800
ENDCHAR
STARTCHAR uni1E43
ENCODING 7747
SWIDTH 752 0
DWIDTH 12 0
BBX 14 12 -1 -4
BITMAP
3FE0
3330
3770
7770
6660
6664
6668
EE70
0000
0C00
0C00
0C00
ENDCHAR
STARTCHAR uni1E44
ENCODING 7748
SWIDTH 668 0
DWIDTH 11 0
BBX 11 15 0 0
BITMAP
01C0
01C0
0000
1C20
6E20
4E60
DE60
DE60
5640
1740
33C0
33C0
3380
2380
6180
ENDCHAR
STARTCHAR uni1E45
ENCODING 7749
SWIDTH 505 0
DWIDTH 8 0
BBX 10 12 -1 0
BITMAP
0600
0600
0600
0000
3E00
3300
3300
7700
6600
6640
6680
E700
ENDCHAR
STARTCHAR uni1E46
ENCODING 7750
SWIDTH 668 0
DWIDTH 11 0
BBX 11 16 0 -4
BITMAP
1C20
6E20
4E60
DE60
DE60
5640
1740
33C0
33C0
3380
2380
6180
0000
0C00
0C00
0C00
ENDCHAR
STARTCHAR uni1E47
ENCODING 7751
SWIDTH 505 0
DWIDTH 8 0
BBX 10 12 -1 -4
BITMAP
3E00
3300
3300
7700
6600
6640
6680
E700
0000
1800
3800
1800
ENDCHAR
STARTCHAR uni1E5A
ENCODING 7770
SWIDTH 601 0
DWIDTH 10 0
BBX 9 16 0 -4
BITMAP
0F00
3180
4C80
DC80
DD80
D900
5F00
1980
3B80
3300
3300
3380
4000
0800
1C00
0C00
ENDCHAR
STARTCHAR uni1E5B
ENCODING 7771
SWIDTH 376 0
DWIDTH 6 0
BBX 7 12 -1 -4
BITMAP
36
3E
30
70
60
60
60
E0
00
40
E0
40
ENDCHAR
STARTCHAR uni1E60
ENCODING 7776
SWIDTH 570 0
DWIDTH 9 0
BBX 8 15 1 0
BITMAP
0E
06
00
1E
33
73
72
38
1C
0E
EE
C6
86
CC
78
ENDCHAR
STARTCHAR uni1E61
ENCODING 7777
SWIDTH 382 0
DWIDTH 6 0
BBX 8 12 -1 0
BITMAP
0C
0C
0C
00
1C
1C
3C
2C
4C
4D
9E
78
ENDCHAR
STARTCHAR uni1E62
ENCODING 7778
SWIDTH 570 0
DWIDTH 9 0
BBX 8 16 1 -4
BITMAP
1E
33
73
72
38
1C
0E
EE
C6
86
CC
78
00
60
70
60
ENDCHAR
STARTCHAR uni1E63
ENCODING 7779
SWIDTH 382 0
DWIDTH 6 0
BBX 8 12 -1 -4
BITMAP
1C
1C
3C
2C
4C
4D
DE
78
00
60
60
60
ENDCHAR
STARTCHAR uni1E6C
ENCODING 7788
SWIDTH 481 0
DWIDTH 8 0
BBX 12 16 0 -4
BITMAP
1F10
67E0
4FE0
CE00
CE00
CC00
0C00
1C00
1C00
1800
1800
1800
0000
3000
3800
3000
ENDCHAR
STARTCHAR uni1E6D
ENCODING 7789
SWIDTH 267 0
DWIDTH 4 0
BBX 6 14 -1 -4
BITMAP
38
38
78
30
30
70
60
64
78
70
00
40
E0
40
ENDCHAR
STARTCHAR Wgrave
ENCODING 7808
SWIDTH 962 0
DWIDTH 15 0
BBX 17 16 0 0
BITMAP
006000
002000
002000
000000
1C3180
2C7100
4C7100
CC7200
CCB200
4CB400
0CB400
0D3400
0D3800
0D3800
0E3800
0E3000
ENDCHAR
STARTCHAR wgrave
ENCODING 7809
SWIDTH 661 0
DWIDTH 11 0
BBX 10 12 0 0
BITMAP
0C00
0400
0400
0000
66C0
66C0
6640
EE40
CC40
CC80
FF80
EF00
ENDCHAR
STARTCHAR Wacute
ENCODING 7810
SWIDTH 962 0
DWIDTH 15 0
BBX 17 16 0 0
BITMAP
000C00
001800
003000
000000
1C3180
2C7100
4C7100
CC7200
CCB200
4CB400
0CB400
0D3400
0D3800
0D3800
0E3800
0E3000
ENDCHAR
STARTCHAR wacute
ENCODING 7811
SWIDTH 661 0
DWIDTH 11 0
BBX 10 12 0 0
BITMAP
0180
0300
0200
0400
66C0
66C0
6640
EE40
CC40
CC80
FF80
EF00
ENDCHAR
STARTCHAR Wdieresis
ENCODING 7812
SWIDTH 962 0
DWIDTH 15 0
BBX 17 15 0 0
BITMAP
004800
005800
000000
1C3180
2C7100
4C7100
CC7200
CCB200
4CB400
0CB400
0D3400
0D3800
0D3800
0E3800
0E3000
ENDCHAR
STARTCHAR wdieresis
ENCODING 7813
SWIDTH 661 0
DWIDTH 11 0
BBX 10 11 0 0
BITMAP
0F00
0900
0000
66C0
66C0
6640
EE40
CC40
CC80
FF80
EF00
ENDCHAR
STARTCHAR uni1E8E
ENCODING 7822
SWIDTH 620 0
DWIDTH 10 0
BBX 11 15 0 0
BITMAP
01C0
0180
0000
1C20
2E20
4E40
C640
C680
4780
0700
0700
0700
0700
0600
0E00
ENDCHAR
STARTCHAR uni1E8F
ENCODING 7823
SWIDTH 505 0
DWIDTH 8 0
BBX 8 16 0 -4
BITMAP
0C
1C
0C
00
66
66
66
EE
CC
CD
FD
FE
3C
58
58
70
ENDCHAR
STARTCHAR uni1E92
ENCODING 7826
SWIDTH 542 0
DWIDTH 9 0
BBX 9 20 0 -4
BITMAP
0180
0100
0300
0200
3F80
6300
2700
0E00
0E00
1C00
1C00
3800
3800
7100
7300
FE00
0000
1000
3800
3000
ENDCHAR
STARTCHAR uni1E93
ENCODING 7827
SWIDTH 428 0
DWIDTH 7 0
BBX 7 12 0 -4
BITMAP
7E
4C
18
18
30
70
64
FC
00
60
60
60
ENDCHAR
STARTCHAR uni1E97
ENCODING 7831
SWIDTH 267 0
DWIDTH 4 0
BBX 6 13 0 0
BITMAP
68
6C
00
70
70
F0
60
60
E0
C0
C8
F0
E0
ENDCHAR
STARTCHAR uni1E9E
ENCODING 7838
SWIDTH 559 0
DWIDTH 9 0
BBX 11 16 -1 -4
BITMAP
0FE0
0DC0
1980
1B80
3B00
3700
3300
3180
3180
7180
6300
6E00
6000
6000
E000
8000
ENDCHAR
STARTCHAR uni1EA0
ENCODING 7840
SWIDTH 668 0
DWIDTH 11 0
BBX 11 16 0 -4
BITMAP
00E0
01E0
02E0
06C0
04C0
7EC0
D9C0
D9C0
3180
3180
3180
6380
6000
2600
0600
0600
ENDCHAR
STARTCHAR uni1EA1
ENCODING 7841
SWIDTH 526 0
DWIDTH 8 0
BBX 9 12 0 -4
BITMAP
3F00
6600
E600
C600
CE00
CE80
FF00
6600
0000
3000
7000
3000
ENDCHAR
STARTCHAR uni1EA2
ENCODING 7842
SWIDTH 668 0
DWIDTH 11 0
BBX 12 18 0 -2
BITMAP
0070
0010
0060
0000
00E0
01E0
02E0
06C0
04C0
7EC0
D9C0
D9C0
3180
3180
3180
6380
6000
2000
ENDCHAR
STARTCHAR uni1EA3
ENCODING 7843
SWIDTH 526 0
DWIDTH 8 0
BBX 9 12 0 0
BITMAP
0E00
0200
0400
0000
3F00
6600
E600
C600
CE00
CE80
FF00
6600
ENDCHAR
STARTCHAR uni1EA4
ENCODING 7844
SWIDTH 668 0
DWIDTH 11 0
BBX 14 18 0 -2
BITMAP
0004
0028
00D0
0000
00E0
01E0
02E0
06C0
04C0
7EC0
D9C0
D9C0
3180
3180
3180
6380
6000
2000
ENDCHAR
STARTCHAR uni1EA5
ENCODING 7845
SWIDTH 526 0
DWIDTH 8 0
BBX 10 14 0 0
BITMAP
00C0
0080
0500
0E00
1200
0000
3F00
6600
E600
C600
CE00
CE80
FF00
6600
ENDCHAR
STARTCHAR uni1EA6
ENCODING 7846
SWIDTH 668 0
DWIDTH 11 0
BBX 13 18 0 -2
BITMAP
0008
0028
00D0
0000
00E0
01E0
02E0
06C0
04C0
7EC0
D9C0
D9C0
3180
3180
3180
6380
6000
2000
ENDCHAR
STARTCHAR uni1EA7
ENCODING 7847
SWIDTH 526 0
DWIDTH 8 0
BBX 9 14 0 0
BITMAP
0100
0100
0580
0E00
1200
0000
3F00
6600
E600
C600
CE00
CE80
FF00
6600
ENDCHAR
STARTCHAR uni1EA8
ENCODING 7848
SWIDTH 668 0
DWIDTH 11 0
BBX 14 18 0 -2
BITMAP
001C
002C
00D0
0000
00E0
01E0
02E0
06C0
04C0
7EC0
D9C0
D9C0
3180
3180
3180
6380
6000
2000
ENDCHAR
STARTCHAR uni1EA9
ENCODING 7849
SWIDTH 526 0
DWIDTH 8 0
BBX 9 13 0 0
BITMAP
0180
0500
0E00
1200
0000
3F00
6600
E600
C600
CE00
CE80
FF00
6600
ENDCHAR
STARTCHAR uni1EAA
ENCODING 7850
SWIDTH 668 0
DWIDTH 11 0
BBX 13 18 0 -2
BITMAP
0078
0020
00D0
0000
00E0
01E0
02E0
06C0
04C0
7EC0
D9C0
D9C0
3180
3180
3180
6380
6000
2000
ENDCHAR
STARTCHAR uni1EAB
ENCODING 7851
SWIDTH 526 0
DWIDTH 8 0
BBX 9 14 0 0
BITMAP
0F00
0000
0400
0E00
1200
0000
3F00
6600
E600
C600
CE00
CE80
FF00
6600
ENDCHAR
STARTCHAR uni1EAC
ENCODING 7852
SWIDTH 668 0
DWIDTH 11 0
BBX 12 20 0 -4
BITMAP
0010
0030
0050
0190
00E0
01E0
02E0
06C0
04C0
7EC0
D9C0
D9C0
3180
3180
3180
6380
6000
2600
0600
0600
ENDCHAR
STARTCHAR uni1EAD
ENCODING 7853
SWIDTH 526 0
DWIDTH 8 0
BBX 9 16 0 -4
BITMAP
0400
0E00
1200
2000
3F00
6600
E600
C600
CE00
CE80
FF00
6600
0000
3000
7000
3000
ENDCHAR
STARTCHAR uni1EAE
ENCODING 7854
SWIDTH 668 0
DWIDTH 11 0
BBX 13 18 0 -2
BITMAP
0010
0020
00B8
0070
00E0
01E0
02E0
06C0
04C0
7EC0
D9C0
D9C0
3180
3180
3180
6380
6000
2000
ENDCHAR
STARTCHAR uni1EAF
ENCODING 7855
SWIDTH 526 0
DWIDTH 8 0
BBX 9 14 0 0
BITMAP
0200
0600
0400
1300
1E00
0000
3F00
6600
E600
C600
CE00
CE80
FF00
6600
ENDCHAR
STARTCHAR uni1EB0
ENCODING 7856
SWIDTH 668 0
DWIDTH 11 0
BBX 13 18 0 -2
BITMAP
0060
0020
0098
0070
00E0
01E0
02E0
06C0
04C0
7EC0
D9C0
D9C0
3180
3180
3180
6380
6000
2000
ENDCHAR
STARTCHAR uni1EB1
ENCODING 7857
SWIDTH 526 0
DWIDTH 8 0
BBX 9 13 0 0
BITMAP
0C00
0400
1300
1E00
0000
3F00
6600
E600
C600
CE00
CE80
FF00
6600
ENDCHAR
STARTCHAR uni1EB2
ENCODING 7858
SWIDTH 668 0
DWIDTH 11 0
BBX 13 18 0 -2
BITMAP
0070
00A8
0090
0070
00E0
01E0
02E0
06C0
04C0
7EC0
D9C0
D9C0
3180
3180
3180
6380
6000
2000
ENDCHAR
STARTCHAR uni1EB3
ENCODING 7859
SWIDTH 526 0
DWIDTH 8 0
BBX 9 14 0 0
BITMAP
0C00
0200
0400
1300
1E00
0000
3F00
6600
E600
C600
CE00
CE80
FF00
6600
ENDCHAR
STARTCHAR uni1EB4
ENCODING 7860
SWIDTH 668 0
DWIDTH 11 0
BBX 13 18 0 -2
BITMAP
0078
00A0
0098
0070
00E0
01E0
02E0
06C0
04C0
7EC0
D9C0
D9C0
3180
3180
3180
6380
6000
2000
ENDCHAR
STARTCHAR uni1EB5
ENCODING 7861
SWIDTH 526 0
DWIDTH 8 0
BBX 9 14 0 0
BITMAP
0F00
0000
0000
1100
0E00
0000
3F00
6600
E600
C600
CE00
CE80
FF00
6600
ENDCHAR
STARTCHAR uni1EB6
ENCODING 7862
SWIDTH 668 0
DWIDTH 11 0
BBX 13 19 0 -4
BITMAP
0188
0098
00F0
00E0
01E0
02E0
06C0
04C0
7EC0
D9C0
D9C0
3180
3180
3180
6380
6000
2600
0600
0600
ENDCHAR
STARTCHAR uni1EB7
ENCODING 7863
SWIDTH 526 0
DWIDTH 8 0
BBX 9 16 0 -4
BITMAP
3100
1300
1E00
0000
3F00
6600
E600
C600
CE00
CE80
FF00
6600
0000
3000
7000
3000
ENDCHAR
STARTCHAR uni1EB8
ENCODING 7864
SWIDTH 459 0
DWIDTH 7 0
BBX 8 16 0 -4
BITMAP
0E
19
31
32
30
1C
70
60
E0
E1
E2
7C
00
20
70
60
ENDCHAR
STARTCHAR uni1EB9
ENCODING 7865
SWIDTH 384 0
DWIDTH 6 0
BBX 7 12 0 -4
BITMAP
3C
64
EC
C8
F0
C2
C4
78
00
40
E0
60
ENDCHAR
STARTCHAR uni1EBA
ENCODING 7866
SWIDTH 459 0
DWIDTH 7 0
BBX 8 16 0 0
BITMAP
07
01
06
00
0E
19
31
32
30
1C
70
60
E0
E1
E2
7C
ENDCHAR
STARTCHAR uni1EBB
ENCODING 7867
SWIDTH 384 0
DWIDTH 6 0
BBX 7 12 0 0
BITMAP
1C
04
18
00
3C
64
EC
C8
F0
C2
C4
78
ENDCHAR
STARTCHAR uni1EBC
ENCODING 7868
SWIDTH 459 0
DWIDTH 7 0
BBX 10 15 0 0
BITMAP
0FC0
1F80
0000
0E00
1900
3100
3200
3000
1C00
7000
6000
E000
E100
E200
7C00
ENDCHAR
STARTCHAR uni1EBD
ENCODING 7869
SWIDTH 384 0
DWIDTH 6 0
BBX 7 11 0 0
BITMAP
3E
5C
00
3C
64
EC
C8
F0
C2
C4
78
ENDCHAR
STARTCHAR uni1EBE
ENCODING 7870
SWIDTH 459 0
DWIDTH 7 0
BBX 10 16 0 0
BITMAP
00C0
0280
0D00
0000
0E00
1900
3100
3200
3000
1C00
7000
6000
E000
E100
E200
7C00
ENDCHAR
STARTCHAR uni1EBF
ENCODING 7871
SWIDTH 384 0
DWIDTH 6 0
BBX 9 14 0 0
BITMAP
0180
0100
0600
1C00
2400
0000
3C00
6400
EC00
C800
F000
C200
C400
7800
ENDCHAR
STARTCHAR uni1EC0
ENCODING 7872
SWIDTH 459 0
DWIDTH 7 0
BBX 9 16 0 0
BITMAP
0080
0280
0D00
0000
0E00
1900
3100
3200
3000
1C00
7000
6000
E000
E100
E200
7C00
ENDCHAR
STARTCHAR uni1EC1
ENCODING 7873
SWIDTH 384 0
DWIDTH 6 0
BBX 8 14 0 0
BITMAP
02
03
05
1C
24
00
3C
64
EC
C8
F0
C2
C4
78
ENDCHAR
STARTCHAR uni1EC2
ENCODING 7874
SWIDTH 459 0
DWIDTH 7 0
BBX 10 16 0 0
BITMAP
00C0
02C0
0D00
0000
0E00
1900
3100
3200
3000
1C00
7000
6000
E000
E100
E200
7C00
ENDCHAR
STARTCHAR uni1EC3
ENCODING 7875
SWIDTH 384 0
DWIDTH 6 0
BBX 8 13 0 0
BITMAP
03
06
1C
24
00
3C
64
EC
C8
F0
C2
C4
78
ENDCHAR
STARTCHAR uni1EC4
ENCODING 7876
SWIDTH 459 0
DWIDTH 7 0
BBX 9 16 0 0
BITMAP
0780
0200
0D00
0000
0E00
1900
3100
3200
3000
1C00
7000
6000
E000
E100
E200
7C00
ENDCHAR
STARTCHAR uni1EC5
ENCODING 7877
SWIDTH 384 0
DWIDTH 6 0
BBX 8 14 0 0
BITMAP
1F
00
04
1C
24
00
3C
64
EC
C8
F0
C2
C4
78
ENDCHAR
STARTCHAR uni1EC6
ENCODING 7878
SWIDTH 459 0
DWIDTH 7 0
BBX 8 20 0 -4
BITMAP
02
06
0D
11
0E
19
31
32
30
1C
70
60
E0
E1
E2
7C
00
20
70
60
ENDCHAR
STARTCHAR uni1EC7
ENCODING 7879
SWIDTH 384 0
DWIDTH 6 0
BBX 7 16 0 -4
BITMAP
04
1C
34
00
3C
64
EC
C8
F0
C2
C4
78
00
40
E0
60
ENDCHAR
STARTCHAR uni1EC8
ENCODING 7880
SWIDTH 375 0
DWIDTH 6 0
BBX 7 16 0 0
BITMAP
0E
02
04
00
1C
2C
4C
DC
D8
58
18
38
38
30
30
70
ENDCHAR
STARTCHAR uni1EC9
ENCODING 7881
SWIDTH 267 0
DWIDTH 4 0
BBX 5 12 0 0
BITMAP
70
18
20
00
60
60
60
E0
C0
C8
F0
E0
ENDCHAR
STARTCHAR uni1ECA
ENCODING 7882
SWIDTH 375 0
DWIDTH 6 0
BBX 6 16 0 -4
BITMAP
1C
2C
4C
DC
D8
58
18
38
38
30
30
30
40
60
60
60
ENDCHAR
STARTCHAR uni1ECB
ENCODING 7883
SWIDTH 267 0
DWIDTH 4 0
BBX 6 15 -1 -4
BITMAP
18
38
18
30
30
30
70
60
64
78
70
00
40
E0
40
ENDCHAR
STARTCHAR uni1ECC
ENCODING 7884
SWIDTH 665 0
DWIDTH 11 0
BBX 11 16 0 -4
BITMAP
0F80
32C0
6CC0
D8C0
D8E0
78C0
30C0
30C0
3180
3180
3300
1E00
0000
1800
1800
1800
ENDCHAR
STARTCHAR uni1ECD
ENCODING 7885
SWIDTH 433 0
DWIDTH 7 0
BBX 9 12 0 -4
BITMAP
3800
6400
EF80
C400
C400
CC00
C800
F000
0000
4000
E000
6000
ENDCHAR
STARTCHAR uni1ECE
ENCODING 7886
SWIDTH 665 0
DWIDTH 11 0
BBX 11 16 0 0
BITMAP
0380
0080
0100
0000
0F80
32C0
6CC0
D8C0
D8E0
78C0
30C0
30C0
3180
3180
3300
1E00
ENDCHAR
STARTCHAR uni1ECF
ENCODING 7887
SWIDTH 433 0
DWIDTH 7 0
BBX 9 12 0 0
BITMAP
1C00
0400
0800
0000
3800
6400
EF80
C400
C400
CC00
C800
F000
ENDCHAR
STARTCHAR uni1ED0
ENCODING 7888
SWIDTH 665 0
DWIDTH 11 0
BBX 11 16 0 0
BITMAP
0020
01C0
06C0
0000
0F80
32C0
6CC0
D8C0
D8E0
78C0
30C0
30C0
3180
3180
3300
1E00
ENDCHAR
STARTCHAR uni1ED1
ENCODING 7889
SWIDTH 433 0
DWIDTH 7 0
BBX 9 14 0 0
BITMAP
0180
0100
0600
1C00
2400
0000
3800
6400
EF80
C400
C400
CC00
C800
F000
ENDCHAR
STARTCHAR uni1ED2
ENCODING 7890
SWIDTH 665 0
DWIDTH 11 0
BBX 11 16 0 0
BITMAP
0040
01C0
0680
0000
0F80
32C0
6CC0
D8C0
D8E0
78C0
30C0
30C0
3180
3180
3300
1E00
ENDCHAR
STARTCHAR uni1ED3
ENCODING 7891
SWIDTH 433 0
DWIDTH 7 0
BBX 9 14 0 0
BITMAP
0200
0300
0500
1C00
2400
0000
3800
6400
EF80
C400
C400
CC00
C800
F000
ENDCHAR
STARTCHAR uni1ED4
ENCODING 7892
SWIDTH 665 0
DWIDTH 11 0
BBX 11 16 0 0
BITMAP
0060
01A0
0680
0000
0F80
32C0
6CC0
D8C0
D8E0
78C0
30C0
30C0
3180
3180
3300
1E00
ENDCHAR
STARTCHAR uni1ED5
ENCODING 7893
SWIDTH 433 0
DWIDTH 7 0
BBX 9 13 0 0
BITMAP
0300
0700
0C00
3400
0000
3800
6400
EF80
C400
C400
CC00
C800
F000
ENDCHAR
STARTCHAR uni1ED6
ENCODING 7894
SWIDTH 665 0
DWIDTH 11 0
BBX 11 16 0 0
BITMAP
03C0
0180
0680
0000
0F80
32C0
6CC0
D8C0
D8E0
78C0
30C0
30C0
3180
3180
3300
1E00
ENDCHAR
STARTCHAR uni1ED7
ENCODING 7895
SWIDTH 433 0
DWIDTH 7 0
BBX 9 14 0 0
BITMAP
0900
1600
0400
1C00
2400
0000
3800
6400
EF80
C400
C400
CC00
C800
F000
ENDCHAR
STARTCHAR uni1ED8
ENCODING 7896
SWIDTH 665 0
DWIDTH 11 0
BBX 11 20 0 -4
BITMAP
0100
0100
0680
0880
0F80
32C0
6CC0
D8C0
D8E0
78C0
30C0
30C0
3180
3180
3300
1E00
0000
1800
1800
1800
ENDCHAR
STARTCHAR uni1ED9
ENCODING 7897
SWIDTH 433 0
DWIDTH 7 0
BBX 9 16 0 -4
BITMAP
0800
1C00
2400
0000
3800
6400
EF80
C400
C400
CC00
C800
F000
0000
4000
E000
6000
ENDCHAR
STARTCHAR uni1EDA
ENCODING 7898
SWIDTH 665 0
DWIDTH 11 0
BBX 12 16 0 0
BITMAP
0080
0180
0330
0020
0FA0
32C0
6CC0
D8C0
D8E0
78C0
30C0
30C0
31C0
3180
3300
1E00
ENDCHAR
STARTCHAR uni1EDB
ENCODING 7899
SWIDTH 439 0
DWIDTH 7 0
BBX 8 12 0 0
BITMAP
06
0C
0B
13
3E
64
E4
E4
C4
CC
C8
70
ENDCHAR
STARTCHAR uni1EDC
ENCODING 7900
SWIDTH 665 0
DWIDTH 11 0
BBX 12 16 0 0
BITMAP
0600
0600
0230
0020
0FA0
32C0
6CC0
D8C0
D8E0
78C0
30C0
30C0
31C0
3180
3300
1E00
ENDCHAR
STARTCHAR uni1EDD
ENCODING 7901
SWIDTH 439 0
DWIDTH 7 0
BBX 8 12 0 0
BITMAP
18
18
0B
03
3E
64
E4
E4
C4
CC
C8
70
ENDCHAR
STARTCHAR uni1EDE
ENCODING 7902
SWIDTH 665 0
DWIDTH 11 0
BBX 12 16 0 0
BITMAP
0380
0080
0130
0020
0FA0
32C0
6CC0
D8C0
D8E0
78C0
30C0
30C0
31C0
3180
3300
1E00
ENDCHAR
STARTCHAR uni1EDF
ENCODING 7903
SWIDTH 439 0
DWIDTH 7 0
BBX 8 12 0 0
BITMAP
1C
04
0B
03
3E
64
E4
E4
C4
CC
C8
70
ENDCHAR
STARTCHAR uni1EE0
ENCODING 7904
SWIDTH 665 0
DWIDTH 11 0
BBX 12 15 0 0
BITMAP
0200
0FB0
0020
0FA0
32C0
6CC0
D8C0
D8E0
78C0
30C0
30C0
31C0
3180
3300
1E00
ENDCHAR
STARTCHAR uni1EE1
ENCODING 7905
SWIDTH 439 0
DWIDTH 7 0
BBX 8 11 0 0
BITMAP
3C
5B
03
3E
64
E4
C4
C4
CC
F8
70
ENDCHAR
STARTCHAR uni1EE2
ENCODING 7906
SWIDTH 665 0
DWIDTH 11 0
BBX 12 18 0 -4
BITMAP
0020
0030
0FA0
32C0
6CC0
D8C0
D8E0
78C0
30C0
30C0
31C0
3180
3300
1E00
0000
1800
1800
1800
ENDCHAR
STARTCHAR uni1EE3
ENCODING 7907
SWIDTH 439 0
DWIDTH 7 0
BBX 8 14 0 -4
BITMAP
01
03
3E
64
E4
E4
C4
CC
C8
70
00
40
E0
60
ENDCHAR
STARTCHAR uni1EE4
ENCODING 7908
SWIDTH 716 0
DWIDTH 11 0
BBX 12 16 0 -4
BITMAP
1E30
6C30
CC70
CC60
9C60
5860
18E0
18C0
38C0
39C0
1F80
1F00
0000
0C00
0C00
0C00
ENDCHAR
STARTCHAR uni1EE5
ENCODING 7909
SWIDTH 505 0
DWIDTH 8 0
BBX 9 12 0 -4
BITMAP
6600
6600
6600
EE00
CC00
CC80
FF00
EE00
0000
2000
7000
3000
ENDCHAR
STARTCHAR uni1EE6
ENCODING 7910
SWIDTH 716 0
DWIDTH 11 0
BBX 12 16 0 0
BITMAP
01C0
0060
0080
0000
1E30
6C30
CC70
CC60
9C60
5860
18E0
18C0
38C0
39C0
1F80
1F00
ENDCHAR
STARTCHAR uni1EE7
ENCODING 7911
SWIDTH 505 0
DWIDTH 8 0
BBX 9 12 0 0
BITMAP
1C00
0400
0800
0000
6600
6600
6600
EE00
CC00
CC80
FF00
EE00
ENDCHAR
STARTCHAR uni1EE8
ENCODING 7912
SWIDTH 716 0
DWIDTH 11 0
BBX 14 16 0 0
BITMAP
0060
004C
008C
0008
1E30
6C30
CC70
CC60
9C60
5860
18E0
18C0
38C0
39C0
1F80
1F00
ENDCHAR
STARTCHAR uni1EE9
ENCODING 7913
SWIDTH 505 0
DWIDTH 8 0
BBX 9 12 0 0
BITMAP
0600
0480
0980
0100
6600
6600
6600
EE00
CC00
CC80
FF00
EE00
ENDCHAR
STARTCHAR uni1EEA
ENCODING 7914
SWIDTH 716 0
DWIDTH 11 0
BBX 14 16 0 0
BITMAP
0300
010C
018C
0008
1E38
6C30
CC70
CC60
9C60
5860
18E0
18C0
38C0
39C0
1F80
1F00
ENDCHAR
STARTCHAR uni1EEB
ENCODING 7915
SWIDTH 505 0
DWIDTH 8 0
BBX 9 12 0 0
BITMAP
1800
1980
0980
0100
6600
6600
6600
EE00
CC00
CC80
FF00
EE00
ENDCHAR
STARTCHAR uni1EEC
ENCODING 7916
SWIDTH 716 0
DWIDTH 11 0
BBX 14 16 0 0
BITMAP
01C0
006C
008C
0008
1E38
6C30
CC70
CC60
9C60
5860
18E0
18C0
38C0
39C0
1F80
1F00
ENDCHAR
STARTCHAR uni1EED
ENCODING 7917
SWIDTH 505 0
DWIDTH 8 0
BBX 9 12 0 0
BITMAP
1C00
0400
0980
0100
6700
6600
6600
EE00
CC00
CC80
FF00
EE00
ENDCHAR
STARTCHAR uni1EEE
ENCODING 7918
SWIDTH 716 0
DWIDTH 11 0
BBX 14 15 0 0
BITMAP
039C
07EC
0008
1E30
6C30
CC70
CC60
9C60
5860
18E0
18C0
38C0
39C0
1F80
1F00
ENDCHAR
STARTCHAR uni1EEF
ENCODING 7919
SWIDTH 505 0
DWIDTH 8 0
BBX 9 11 0 0
BITMAP
1F80
2D80
0100
6600
6600
6600
EE00
CC00
CC80
FF00
EE00
ENDCHAR
STARTCHAR uni1EF0
ENCODING 7920
SWIDTH 716 0
DWIDTH 11 0
BBX 14 19 0 -4
BITMAP
0004
000C
000C
1E38
6C30
CC70
CC60
9C60
5860
18E0
18C0
38C0
39C0
1F80
1F00
0000
0C00
0C00
0C00
ENDCHAR
STARTCHAR uni1EF1
ENCODING 7921
SWIDTH 505 0
DWIDTH 8 0
BBX 9 14 0 -4
BITMAP
0180
0180
6700
6600
6600
EE00
CC00
CC80
FF00
EE00
0000
2000
7000
3000
ENDCHAR
STARTCHAR Ygrave
ENCODING 7922
SWIDTH 620 0
DWIDTH 10 0
BBX 11 16 0 0
BITMAP
0180
0180
0080
0000
1C20
2E20
4E40
C640
C680
4780
0700
0700
0700
0700
0600
0E00
ENDCHAR
STARTCHAR ygrave
ENCODING 7923
SWIDTH 505 0
DWIDTH 8 0
BBX 8 16 0 -4
BITMAP
18
18
08
00
66
66
66
EE
CC
CD
FD
FE
3C
58
58
70
ENDCHAR
STARTCHAR uni1EF4
ENCODING 7924
SWIDTH 620 0
DWIDTH 10 0
BBX 11 16 0 -4
BITMAP
1C20
2E20
4E40
C640
C680
4780
0700
0700
0700
0700
0600
0E00
0000
0C00
0E00
0C00
ENDCHAR
STARTCHAR uni1EF5
ENCODING 7925
SWIDTH 505 0
DWIDTH 8 0
BBX 8 12 0 -4
BITMAP
66
66
66
EE
CC
CD
FD
FE
3C
58
5B
73
ENDCHAR
STARTCHAR uni1EF6
ENCODING 7926
SWIDTH 620 0
DWIDTH 10 0
BBX 11 16 0 0
BITMAP
01C0
0060
0080
0000
1C20
2E20
4E40
C640
C680
4780
0700
0700
0700
0700
0600
0E00
ENDCHAR
STARTCHAR uni1EF7
ENCODING 7927
SWIDTH 505 0
DWIDTH 8 0
BBX 8 16 0 -4
BITMAP
1C
04
08
00
66
66
66
EE
CC
CD
FD
FE
3C
58
58
70
ENDCHAR
STARTCHAR uni1EF8
ENCODING 7928
SWIDTH 620 0
DWIDTH 10 0
BBX 11 15 0 0
BITMAP
0100
07E0
0000
1C20
2E20
4E40
C640
C680
4780
0700
0700
0700
0700
0600
0E00
ENDCHAR
STARTCHAR uni1EF9
ENCODING 7929
SWIDTH 505 0
DWIDTH 8 0
BBX 8 15 0 -4
BITMAP
3D
4E
00
66
66
66
EE
CC
CD
FD
FE
3C
58
58
70
ENDCHAR
STARTCHAR uni2010
ENCODING 8208
SWIDTH 290 0
DWIDTH 5 0
BBX 4 1 0 4
BITMAP
F0
ENDCHAR
STARTCHAR endash
ENCODING 8211
SWIDTH 352 0
DWIDTH 6 0
BBX 5 1 0 4
BITMAP
F8
ENDCHAR
STARTCHAR emdash
ENCODING 8212
SWIDTH 444 0
DWIDTH 7 0
BBX 6 1 0 4
BITMAP
FC
ENDCHAR
STARTCHAR quoteleft
ENCODING 8216
SWIDTH 209 0
DWIDTH 3 0
BBX 3 4 1 8
BITMAP
20
40
E0
60
ENDCHAR
STARTCHAR quoteright
ENCODING 8217
SWIDTH 238 0
DWIDTH 4 0
BBX 3 4 1 8
BITMAP
60
E0
40
80
ENDCHAR
STARTCHAR quotesinglbase
ENCODING 8218
SWIDTH 220 0
DWIDTH 4 0
BBX 2 4 0 -2
BITMAP
C0
C0
40
80
ENDCHAR
STARTCHAR quotedblleft
ENCODING 8220
SWIDTH 429 0
DWIDTH 7 0
BBX 6 4 1 8
BITMAP
24
48
EC
6C
ENDCHAR
STARTCHAR quotedblright
ENCODING 8221
SWIDTH 426 0
DWIDTH 7 0
BBX 5 4 2 8
BITMAP
D8
D8
88
90
ENDCHAR
STARTCHAR quotedblbase
ENCODING 8222
SWIDTH 440 0
DWIDTH 7 0
BBX 5 4 0 -2
BITMAP
D8
D8
48
90
ENDCHAR
STARTCHAR dagger
ENCODING 8224
SWIDTH 495 0
DWIDTH 8 0
BBX 6 16 1 -4
BITMAP
08
08
18
10
10
FC
FC
20
20
20
20
60
40
40
40
C0
ENDCHAR
STARTCHAR daggerdbl
ENCODING 8225
SWIDTH 495 0
DWIDTH 8 0
BBX 7 16 0 -4
BITMAP
04
04
0C
08
08
7E
7E
10
10
7E
FC
10
20
20
20
60
ENDCHAR
STARTCHAR bullet
ENCODING 8226
SWIDTH 434 0
DWIDTH 7 0
BBX 3 3 2 3
BITMAP
E0
E0
E0
ENDCHAR
STARTCHAR ellipsis
ENCODING 8230
SWIDTH 702 0
DWIDTH 11 0
BBX 11 3 0 0
BITMAP
6440
EEE0
64C0
ENDCHAR
STARTCHAR perthousand
ENCODING 8240
SWIDTH 1175 0
DWIDTH 19 0
BBX 18 12 1 0
BITMAP
30C000
588000
D90000
9B0000
9A0000
94E380
E5A6C0
0934C0
0924C0
132480
116580
21C700
ENDCHAR
STARTCHAR minute
ENCODING 8242
SWIDTH 196 0
DWIDTH 3 0
BBX 3 4 1 8
BITMAP
60
40
40
80
ENDCHAR
STARTCHAR second
ENCODING 8243
SWIDTH 341 0
DWIDTH 5 0
BBX 5 4 1 8
BITMAP
78
58
50
B0
ENDCHAR
STARTCHAR guilsinglleft
ENCODING 8249
SWIDTH 359 0
DWIDTH 6 0
BBX 5 6 0 1
BITMAP
08
30
C0
40
30
08
ENDCHAR
STARTCHAR guilsinglright
ENCODING 8250
SWIDTH 344 0
DWIDTH 6 0
BBX 5 6 0 1
BITMAP
40
30
08
18
60
80
ENDCHAR
STARTCHAR fraction
ENCODING 8260
SWIDTH 248 0
DWIDTH 4 0
BBX 8 12 -2 0
BITMAP
01
02
02
04
04
08
18
10
20
20
40
C0
ENDCHAR
STARTCHAR uni2052
ENCODING 8274
SWIDTH 796 0
DWIDTH 13 0
BBX 9 12 2 0
BITMAP
6180
E100
4200
0600
0400
0800
0800
1000
1000
2000
2300
4300
ENDCHAR
STARTCHAR uni2070
ENCODING 8304
SWIDTH 379 0
DWIDTH 6 0
BBX 5 7 1 5
BITMAP
30
58
D8
98
98
90
E0
ENDCHAR
STARTCHAR uni2074
ENCODING 8308
SWIDTH 352 0
DWIDTH 6 0
BBX 4 6 1 6
BITMAP
50
50
70
F0
20
20
ENDCHAR
STARTCHAR uni2075
ENCODING 8309
SWIDTH 335 0
DWIDTH 5 0
BBX 4 7 1 5
BITMAP
70
40
40
F0
D0
B0
E0
ENDCHAR
STARTCHAR uni2076
ENCODING 8310
SWIDTH 351 0
DWIDTH 6 0
BBX 4 7 1 5
BITMAP
30
50
C0
B0
D0
90
E0
ENDCHAR
STARTCHAR uni2077
ENCODING 8311
SWIDTH 329 0
DWIDTH 5 0
BBX 4 6 1 6
BITMAP
F0
20
20
40
C0
C0
ENDCHAR
STARTCHAR uni2078
ENCODING 8312
SWIDTH 354 0
DWIDTH 6 0
BBX 5 7 1 5
BITMAP
70
58
70
70
90
90
E0
ENDCHAR
STARTCHAR uni2079
ENCODING 8313
SWIDTH 345 0
DWIDTH 6 0
BBX 4 7 1 5
BITMAP
70
90
90
B0
D0
A0
C0
ENDCHAR
STARTCHAR uni2080
ENCODING 8320
SWIDTH 379 0
DWIDTH 6 0
BBX 5 7 1 0
BITMAP
30
58
D8
98
98
90
E0
ENDCHAR
STARTCHAR uni2081
ENCODING 8321
SWIDTH 229 0
DWIDTH 4 0
BBX 3 7 1 0
BITMAP
20
C0
40
C0
C0
80
80
ENDCHAR
STARTCHAR uni2082
ENCODING 8322
SWIDTH 328 0
DWIDTH 5 0
BBX 4 7 1 0
BITMAP
70
90
50
20
40
80
F0
ENDCHAR
STARTCHAR uni2083
ENCODING 8323
SWIDTH 336 0
DWIDTH 5 0
BBX 4 7 1 0
BITMAP
70
50
50
20
D0
90
E0
ENDCHAR
STARTCHAR uni2084
ENCODING 8324
SWIDTH 352 0
DWIDTH 6 0
BBX 4 7 1 0
BITMAP
50
50
50
B0
F0
20
20
ENDCHAR
STARTCHAR uni2085
ENCODING 8325
SWIDTH 335 0
DWIDTH 5 0
BBX 4 7 1 0
BITMAP
70
40
40
F0
D0
B0
E0
ENDCHAR
STARTCHAR uni2086
ENCODING 8326
SWIDTH 351 0
DWIDTH 6 0
BBX 4 7 1 0
BITMAP
30
50
C0
B0
D0
90
E0
ENDCHAR
STARTCHAR uni2087
ENCODING 8327
SWIDTH 329 0
DWIDTH 5 0
BBX 4 7 1 0
BITMAP
F0
20
20
40
C0
80
C0
ENDCHAR
STARTCHAR uni2088
ENCODING 8328
SWIDTH 354 0
DWIDTH 6 0
BBX 5 7 1 0
BITMAP
70
58
70
70
90
90
E0
ENDCHAR
STARTCHAR uni2089
ENCODING 8329
SWIDTH 345 0
DWIDTH 6 0
BBX 4 7 1 0
BITMAP
70
90
90
F0
10
B0
E0
ENDCHAR
STARTCHAR colonmonetary
ENCODING 8353
SWIDTH 384 0
DWIDTH 6 0
BBX 7 11 0 0
BITMAP
14
1C
26
64
C0
C0
C0
C4
78
50
50
ENDCHAR
STARTCHAR franc
ENCODING 8355
SWIDTH 529 0
DWIDTH 8 0
BBX 9 12 0 0
BITMAP
1F80
0C00
1C00
1C00
1800
1E00
1800
3800
FE00
3000
3000
7000
ENDCHAR
STARTCHAR lira
ENCODING 8356
SWIDTH 455 0
DWIDTH 7 0
BBX 8 12 0 0
BITMAP
0F
19
1B
18
38
7E
FC
30
30
61
7F
FE
ENDCHAR
STARTCHAR uni20A6
ENCODING 8358
SWIDTH 723 0
DWIDTH 12 0
BBX 12 12 0 0
BITMAP
0C30
0C20
0E60
1E60
1E60
7FF0
1740
FFF0
33C0
3380
2380
6380
ENDCHAR
STARTCHAR uni20A9
ENCODING 8361
SWIDTH 841 0
DWIDTH 13 0
BBX 15 12 0 0
BITMAP
38C6
39C4
39C4
39C8
3AC8
7FFE
3AD0
FFFC
3CD0
3CE0
38E0
38C0
ENDCHAR
STARTCHAR Euro
ENCODING 8364
SWIDTH 507 0
DWIDTH 8 0
BBX 10 12 0 0
BITMAP
0780
0C80
18C0
3980
3800
7F00
3000
FE00
3000
3080
3F00
1E00
ENDCHAR
STARTCHAR uni20AE
ENCODING 8366
SWIDTH 481 0
DWIDTH 8 0
BBX 12 12 0 0
BITMAP
1F10
67E0
4EE0
CE00
CE00
CC00
3F80
6D80
7E00
9800
1800
1800
ENDCHAR
STARTCHAR uni20B3
ENCODING 8371
SWIDTH 573 0
DWIDTH 9 0
BBX 9 12 0 0
BITMAP
1F00
2180
4C80
DC80
D880
D980
1B00
7E00
7E00
3000
3000
7000
ENDCHAR
STARTCHAR uni20B4
ENCODING 8372
SWIDTH 570 0
DWIDTH 9 0
BBX 9 12 0 0
BITMAP
1F00
2380
2300
1300
7F80
0800
FF00
3000
6700
6300
6300
3E00
ENDCHAR
STARTCHAR uni20B8
ENCODING 8376
SWIDTH 522 0
DWIDTH 8 0
BBX 12 12 0 0
BITMAP
7FF0
0000
1FF0
67E0
C600
C600
CE00
0C00
0C00
0C00
1C00
1800
ENDCHAR
STARTCHAR uni20B9
ENCODING 8377
SWIDTH 544 0
DWIDTH 9 0
BBX 8 12 1 0
BITMAP
7F
FF
0C
0C
18
F0
18
18
18
18
38
18
ENDCHAR
STARTCHAR uni20BA
ENCODING 8378
SWIDTH 455 0
DWIDTH 7 0
BBX 9 12 0 0
BITMAP
1C00
1C00
1800
1E00
7900
BE00
7200
B100
3180
3300
7600
7800
ENDCHAR
STARTCHAR uni20BD
ENCODING 8381
SWIDTH 573 0
DWIDTH 9 0
BBX 9 12 0 0
BITMAP
1F00
2180
4C80
DC80
D880
D980
1B00
7E00
FC00
3000
3000
7000
ENDCHAR
STARTCHAR uni2116
ENCODING 8470
SWIDTH 996 0
DWIDTH 16 0
BBX 16 12 0 0
BITMAP
1C30
7E26
4E6D
DE69
DE6A
DE4A
174C
13DE
33C0
3380
2380
6180
ENDCHAR
STARTCHAR uni2120
ENCODING 8480
SWIDTH 585 0
DWIDTH 9 0
BBX 7 5 2 7
BITMAP
40
AE
5C
AC
EC
ENDCHAR
STARTCHAR trademark
ENCODING 8482
SWIDTH 379 0
DWIDTH 6 0
BBX 6 4 0 7
BITMAP
F4
D4
5C
B4
ENDCHAR
STARTCHAR uni2126
ENCODING 8486
SWIDTH 745 0
DWIDTH 12 0
BBX 11 12 0 0
BITMAP
07C0
0CE0
1860
3020
2020
2020
6060
6040
2040
2080
1900
F3C0
ENDCHAR
STARTCHAR uni212A
ENCODING 8490
SWIDTH 601 0
DWIDTH 10 0
BBX 11 12 0 0
BITMAP
1C60
2C80
4D00
DF00
DA00
5F00
1980
3980
3B00
3300
3300
7380
ENDCHAR
STARTCHAR uni212B
ENCODING 8491
SWIDTH 668 0
DWIDTH 11 0
BBX 12 16 0 -2
BITMAP
0020
0050
0060
01E0
02E0
06C0
04C0
7EC0
D9C0
D9C0
3180
3180
3180
6380
6000
2000
ENDCHAR
STARTCHAR estimated
ENCODING 8494
SWIDTH 786 0
DWIDTH 13 0
BBX 11 12 1 0
BITMAP
1F00
2180
60C0
E0E0
E0E0
FFE0
E000
E000
E000
6000
2180
1F00
ENDCHAR
STARTCHAR uni2153
ENCODING 8531
SWIDTH 733 0
DWIDTH 12 0
BBX 11 12 1 0
BITMAP
2180
C100
4200
C600
C400
89C0
8960
1140
1080
2340
2240
41C0
ENDCHAR
STARTCHAR uni2154
ENCODING 8532
SWIDTH 852 0
DWIDTH 14 0
BBX 12 12 1 0
BITMAP
7040
90C0
5080
2180
4100
8270
F250
0450
0420
08D0
1890
1060
ENDCHAR
STARTCHAR oneeighth
ENCODING 8539
SWIDTH 741 0
DWIDTH 12 0
BBX 11 12 1 0
BITMAP
2180
C100
4200
C600
C400
88C0
8920
11C0
11C0
2240
2240
41C0
ENDCHAR
STARTCHAR threeeighths
ENCODING 8540
SWIDTH 828 0
DWIDTH 13 0
BBX 12 12 1 0
BITMAP
7040
5080
5180
2100
D200
B270
64D0
0450
0860
08B0
11B0
30E0
ENDCHAR
STARTCHAR fiveeighths
ENCODING 8541
SWIDTH 827 0
DWIDTH 13 0
BBX 12 12 1 0
BITMAP
7040
4080
4180
F100
D200
B270
E4D0
0450
0860
08B0
11B0
30E0
ENDCHAR
STARTCHAR seveneighths
ENCODING 8542
SWIDTH 761 0
DWIDTH 12 0
BBX 11 12 1 0
BITMAP
F180
2100
2200
4200
C400
84E0
49A0
09A0
10C0
3160
2360
41C0
ENDCHAR
STARTCHAR partialdiff
ENCODING 8706
SWIDTH 597 0
DWIDTH 10 0
BBX 9 12 1 0
BITMAP
0E00
1300
0100
0180
0100
3D00
6300
8300
8200
8600
CC00
F800
ENDCHAR
STARTCHAR uni2206
ENCODING 8710
SWIDTH 619 0
DWIDTH 10 0
BBX 10 12 0 0
BITMAP
0300
0300
0700
0580
0980
1980
1180
3080
2080
60C0
C0C0
FFC0
ENDCHAR
STARTCHAR product
ENCODING 8719
SWIDTH 661 0
DWIDTH 11 0
BBX 10 12 0 0
BITMAP
7FC0
1100
3100
2300
2200
2200
6200
6200
4600
4400
4400
C400
ENDCHAR
STARTCHAR summation
ENCODING 8721
SWIDTH 605 0
DWIDTH 10 0
BBX 10 12 0 0
BITMAP
1FC0
3000
1800
0800
0C00
0400
0600
0800
1800
3000
6000
FF00
ENDCHAR
STARTCHAR minus
ENCODING 8722
SWIDTH 471 0
DWIDTH 8 0
BBX 6 1 1 5
BITMAP
FC
ENDCHAR
STARTCHAR uni2215
ENCODING 8725
SWIDTH 488 0
DWIDTH 8 0
BBX 8 12 0 0
BITMAP
03
02
04
04
08
08
10
30
20
60
40
80
ENDCHAR
STARTCHAR uni2219
ENCODING 8729
SWIDTH 434 0
DWIDTH 7 0
BBX 3 3 2 3
BITMAP
E0
E0
E0
ENDCHAR
STARTCHAR radical
ENCODING 8730
SWIDTH 660 0
DWIDTH 11 0
BBX 10 12 0 0
BITMAP
03C0
0200
0200
0600
0400
0400
0800
E800
7800
3000
3000
3000
ENDCHAR
STARTCHAR infinity
ENCODING 8734
SWIDTH 833 0
DWIDTH 13 0
BBX 11 5 1 2
BITMAP
71C0
CA60
8C60
9E40
F380
ENDCHAR
STARTCHAR integral
ENCODING 8747
SWIDTH 305 0
DWIDTH 5 0
BBX 8 16 -2 -3
BITMAP
03
04
04
0C
0C
08
08
08
18
18
10
10
10
30
20
E0
ENDCHAR
STARTCHAR approxequal
ENCODING 8776
SWIDTH 441 0
DWIDTH 7 0
BBX 7 5 0 2
BITMAP
7A
4E
00
72
9C
ENDCHAR
STARTCHAR notequal
ENCODING 8800
SWIDTH 500 0
DWIDTH 8 0
BBX 6 8 1 1
BITMAP
10
10
FC
FC
20
FC
FC
60
ENDCHAR
STARTCHAR lessequal
ENCODING 8804
SWIDTH 405 0
DWIDTH 6 0
BBX 6 8 0 2
BITMAP
04
0C
30
60
38
0C
00
FC
ENDCHAR
STARTCHAR greaterequal
ENCODING 8805
SWIDTH 405 0
DWIDTH 6 0
BBX 6 8 0 2
BITMAP
20
30
0C
0C
30
40
00
FC
ENDCHAR
STARTCHAR lozenge
ENCODING 9674
SWIDTH 619 0
DWIDTH 10 0
BBX 8 12 1 0
BITMAP
0C
1C
36
22
43
C1
83
C2
44
48
78
30
ENDCHAR
STARTCHAR uni27E8
ENCODING 10216
SWIDTH 456 0
DWIDTH 7 0
BBX 6 16 1 -2
BITMAP
04
04
08
10
30
20
40
80
80
80
40
20
20
10
08
08
ENDCHAR
STARTCHAR uni27E9
ENCODING 10217
SWIDTH 456 0
DWIDTH 7 0
BBX 7 16 0 -2
BITMAP
40
20
20
10
08
08
04
06
04
08
08
10
20
40
40
80
ENDCHAR
STARTCHAR ff
ENCODING 64256
SWIDTH 508 0
DWIDTH 8 0
BBX 13 16 -3 -4
BITMAP
03F8
06E8
0EE0
0CC0
0FF0
0CC0
0CC0
1DC0
1D80
1980
1980
1F80
7B80
BB00
B300
FE00
ENDCHAR
STARTCHAR fi
ENCODING 64257
SWIDTH 534 0
DWIDTH 9 0
BBX 12 16 -3 -4
BITMAP
03C0
0660
0E60
0E00
0FE0
0CC0
0CC0
1CC0
1DC0
1990
19F0
18E0
7800
B000
B000
E000
ENDCHAR
STARTCHAR fl
ENCODING 64258
SWIDTH 548 0
DWIDTH 9 0
BBX 12 16 -3 -4
BITMAP
03C0
0670
0E60
0E60
0FE0
0CE0
0CC0
1CC0
1CC0
19D0
19D0
18E0
7800
B000
B000
E000
ENDCHAR
STARTCHAR ffi
ENCODING 64259
SWIDTH 764 0
DWIDTH 12 0
BBX 16 16 -3 -4
BITMAP
03BC
066E
0ECC
0EC0
0FFC
0CCC
0DCC
1D9C
1D98
1999
1B9E
1F9C
7B00
B300
B700
EE00
ENDCHAR
STARTCHAR ffl
ENCODING 64260
SWIDTH 780 0
DWIDTH 12 0
BBX 16 16 -3 -4
BITMAP
03FC
06E6
0EC6
0ECE
0FFC
0CCC
0DCC
1D8C
1D9C
1999
1B9F
1F8C
7B00
B300
B700
EE00
ENDCHAR
STARTCHAR .notdef
ENCODING -1
SWIDTH 810 0
DWIDTH 13 0
BBX 13 20 0 -4
BITMAP
0FF8
0808
0808
1010
1010
1010
1310
2590
2720
2220
2420
2020
4440
4040
4040
4040
4040
8080
8080
FF80
ENDCHAR
STARTCHAR A.salt
ENCODING -1
SWIDTH 590 0
DWIDTH 9 0
BBX 10 14 0 -2
BITMAP
01C0
03C0
0580
0980
1180
1F80
3380
2300
6300
6300
C700
C600
C000
C000
ENDCHAR
STARTCHAR B.salt
ENCODING -1
SWIDTH 633 0
DWIDTH 10 0
BBX 10 12 0 0
BITMAP
1F00
2180
4C80
DD80
D900
DF80
1980
39C0
3980
3180
3300
7E00
ENDCHAR
STARTCHAR E.salt
ENCODING -1
SWIDTH 554 0
DWIDTH 9 0
BBX 10 12 0 0
BITMAP
1FC0
6F80
DC00
D800
D800
1F00
1800
3800
3000
3000
3F00
7E00
ENDCHAR
STARTCHAR N.salt
ENCODING -1
SWIDTH 669 0
DWIDTH 11 0
BBX 11 12 0 0
BITMAP
1FC0
3CC0
5CC0
DCC0
D8C0
59C0
39C0
3980
3980
31A0
31A0
71C0
ENDCHAR
STARTCHAR i.loclTRK
ENCODING -1
SWIDTH 267 0
DWIDTH 4 0
BBX 5 11 0 0
BITMAP
30
70
30
60
60
60
E0
C0
C8
F0
E0
ENDCHAR
STARTCHAR a.end
ENCODING -1
SWIDTH 467 0
DWIDTH 7 0
BBX 8 8 0 0
BITMAP
3F
66
E6
C6
CE
CE
CC
76
ENDCHAR
STARTCHAR aacute.end
ENCODING -1
SWIDTH 461 0
DWIDTH 7 0
BBX 8 12 0 0
BITMAP
06
04
0C
00
3F
66
E6
C6
CE
CE
CC
FE
ENDCHAR
STARTCHAR c.end
ENCODING -1
SWIDTH 341 0
DWIDTH 5 0
BBX 6 8 0 0
BITMAP
38
64
EC
C0
C0
C0
C8
F0
ENDCHAR
STARTCHAR d.end
ENCODING -1
SWIDTH 476 0
DWIDTH 8 0
BBX 8 11 0 0
BITMAP
03
03
07
3F
66
E6
C6
CE
CE
CC
7F
ENDCHAR
STARTCHAR e.end
ENCODING -1
SWIDTH 366 0
DWIDTH 6 0
BBX 6 8 0 0
BITMAP
3C
64
EC
C8
F0
C0
C8
70
ENDCHAR
STARTCHAR eacute.end
ENCODING -1
SWIDTH 367 0
DWIDTH 6 0
BBX 6 12 0 0
BITMAP
04
0C
18
00
3C
64
EC
C8
F0
C0
C8
70
ENDCHAR
STARTCHAR uni0292.end
ENCODING -1
SWIDTH 391 0
DWIDTH 6 0
BBX 6 12 0 -4
BITMAP
7C
D8
18
30
70
70
38
18
38
D8
B0
F0
ENDCHAR
STARTCHAR g.end
ENCODING -1
SWIDTH 480 0
DWIDTH 8 0
BBX 8 12 0 -4
BITMAP
3F
66
E6
C6
CE
CE
CC
7C
2C
5C
58
70
ENDCHAR
STARTCHAR uni01E5.end
ENCODING -1
SWIDTH 507 0
DWIDTH 8 0
BBX 8 12 0 -4
BITMAP
3F
66
E6
C6
CE
CE
CC
7C
2C
FE
58
30
ENDCHAR
STARTCHAR h.end
ENCODING -1
SWIDTH 453 0
DWIDTH 7 0
BBX 8 11 -1 0
BITMAP
18
38
30
3E
33
33
77
66
66
67
E7
ENDCHAR
STARTCHAR i.end
ENCODING -1
SWIDTH 209 0
DWIDTH 3 0
BBX 4 12 0 0
BITMAP
30
70
30
00
60
60
60
E0
C0
C0
E0
E0
ENDCHAR
STARTCHAR iacute.end
ENCODING -1
SWIDTH 209 0
DWIDTH 3 0
BBX 5 12 0 0
BITMAP
18
10
20
00
60
60
60
E0
C0
C0
E0
E0
ENDCHAR
STARTCHAR ij.end
ENCODING -1
SWIDTH 480 0
DWIDTH 8 0
BBX 8 15 0 -4
BITMAP
33
73
33
67
66
66
E6
CE
CE
EC
EC
3C
5C
58
70
ENDCHAR
STARTCHAR j.end
ENCODING -1
SWIDTH 213 0
DWIDTH 3 0
BBX 7 15 -3 -4
BITMAP
06
0E
04
0C
0C
0C
1C
18
18
18
18
78
B0
B0
E0
ENDCHAR
STARTCHAR k.end
ENCODING -1
SWIDTH 472 0
DWIDTH 8 0
BBX 9 11 -1 0
BITMAP
1800
3800
3000
3380
3400
3E00
7700
6700
6600
6780
E700
ENDCHAR
STARTCHAR l.end
ENCODING -1
SWIDTH 207 0
DWIDTH 3 0
BBX 4 11 0 0
BITMAP
10
30
70
60
60
60
E0
E0
C0
C0
E0
ENDCHAR
STARTCHAR m.end
ENCODING -1
SWIDTH 701 0
DWIDTH 11 0
BBX 12 8 -1 0
BITMAP
3FE0
3330
3770
7770
6660
6660
6670
EE70
ENDCHAR
STARTCHAR n.end
ENCODING -1
SWIDTH 454 0
DWIDTH 7 0
BBX 8 8 -1 0
BITMAP
3E
33
33
77
66
66
67
E7
ENDCHAR
STARTCHAR o.end
ENCODING -1
SWIDTH 487 0
DWIDTH 8 0
BBX 8 8 0 0
BITMAP
3C
65
EE
E4
C4
CC
C8
70
ENDCHAR
STARTCHAR oacute.end
ENCODING -1
SWIDTH 487 0
DWIDTH 8 0
BBX 8 12 0 0
BITMAP
06
0C
08
10
3C
65
6E
E4
C4
CC
C8
70
ENDCHAR
STARTCHAR s.end
ENCODING -1
SWIDTH 316 0
DWIDTH 5 0
BBX 6 8 -1 0
BITMAP
1C
1C
3C
2C
4C
4C
9C
78
ENDCHAR
STARTCHAR t.end
ENCODING -1
SWIDTH 276 0
DWIDTH 4 0
BBX 4 10 0 0
BITMAP
70
70
F0
60
60
E0
E0
C0
C0
E0
ENDCHAR
STARTCHAR u.end
ENCODING -1
SWIDTH 459 0
DWIDTH 7 0
BBX 7 8 0 0
BITMAP
66
66
66
EE
CC
CC
FE
EE
ENDCHAR
STARTCHAR uacute.end
ENCODING -1
SWIDTH 459 0
DWIDTH 7 0
BBX 7 12 0 0
BITMAP
06
0C
08
10
66
66
66
EE
CC
CC
FE
EE
ENDCHAR
STARTCHAR x.end
ENCODING -1
SWIDTH 500 0
DWIDTH 8 0
BBX 8 9 0 0
BITMAP
03
3B
59
5E
8C
9C
1C
2F
C6
ENDCHAR
STARTCHAR y.end
ENCODING -1
SWIDTH 460 0
DWIDTH 7 0
BBX 7 12 0 -4
BITMAP
66
66
66
EE
CC
CC
FC
FC
3C
58
58
70
ENDCHAR
STARTCHAR k.salt
ENCODING -1
SWIDTH 518 0
DWIDTH 8 0
BBX 10 11 -1 0
BITMAP
1800
3800
3800
3300
3700
3E00
7F00
6700
6640
6780
E700
ENDCHAR
STARTCHAR p.salt
ENCODING -1
SWIDTH 482 0
DWIDTH 8 0
BBX 10 13 -1 -4
BITMAP
3800
3600
3F00
3300
7340
6380
6E00
7600
EC00
E000
C000
C000
8000
ENDCHAR
STARTCHAR E_x
ENCODING -1
SWIDTH 797 0
DWIDTH 13 0
BBX 13 12 0 0
BITMAP
0E00
1900
3300
3210
3018
1DD0
70D0
60E0
E0C0
E0C8
E3F8
7C70
ENDCHAR
STARTCHAR F_i
ENCODING -1
SWIDTH 726 0
DWIDTH 12 0
BBX 12 12 0 0
BITMAP
1FF0
6DE0
CC00
CC00
DCE0
5FC0
18C0
18C0
39C0
39D0
31F0
30E0
ENDCHAR
STARTCHAR T_h
ENCODING -1
SWIDTH 971 0
DWIDTH 16 0
BBX 16 12 0 0
BITMAP
1FF0
6660
CE60
CE60
CC7C
0CEC
0CCC
1CCC
1CCC
18DD
19DD
198E
ENDCHAR
STARTCHAR T_i
ENCODING -1
SWIDTH 744 0
DWIDTH 12 0
BBX 13 12 0 0
BITMAP
1FF0
67F0
CE00
CE00
CC60
4CE0
0CE0
1CC0
1CC0
18C8
19D0
18E0
ENDCHAR
STARTCHAR a_x
ENCODING -1
SWIDTH 899 0
DWIDTH 14 0
BBX 15 9 0 0
BITMAP
000C
3F6C
6664
E678
C678
CE30
CE72
FFBC
6718
ENDCHAR
STARTCHAR a_z
ENCODING -1
SWIDTH 906 0
DWIDTH 15 0
BBX 15 8 0 0
BITMAP
3F7E
665C
E658
C638
CE30
CE60
CC6C
76F8
ENDCHAR
STARTCHAR b_s
ENCODING -1
SWIDTH 799 0
DWIDTH 13 0
BBX 13 11 0 0
BITMAP
3000
7000
7000
7C60
6CE0
6760
E470
E470
CDF8
C970
F1E0
ENDCHAR
STARTCHAR b_s_x
ENCODING -1
SWIDTH 1144 0
DWIDTH 18 0
BBX 19 11 0 0
BITMAP
300000
700000
7010C0
7C66C0
64E640
677640
E47780
C47700
CDF720
F97BC0
71E380
ENDCHAR
STARTCHAR b_s_z
ENCODING -1
SWIDTH 1158 0
DWIDTH 19 0
BBX 19 11 0 0
BITMAP
300000
700000
700000
7C67E0
64E5C0
677580
E47380
E47300
CDF600
C966C0
F1EF80
ENDCHAR
STARTCHAR c_x
ENCODING -1
SWIDTH 755 0
DWIDTH 12 0
BBX 13 9 0 0
BITMAP
0030
3BB0
6590
E9A0
C1C0
C1C0
C1C8
C6F0
78E0
ENDCHAR
STARTCHAR c_z
ENCODING -1
SWIDTH 769 0
DWIDTH 12 0
BBX 12 8 0 0
BITMAP
39F0
6560
ED60
C0C0
C1C0
C180
CBB0
F7E0
ENDCHAR
STARTCHAR e_x
ENCODING -1
SWIDTH 762 0
DWIDTH 12 0
BBX 13 9 0 0
BITMAP
0030
3DB0
6590
EDA0
C9E0
F1C0
C1C8
C2F0
7CE0
ENDCHAR
STARTCHAR e_z
ENCODING -1
SWIDTH 788 0
DWIDTH 13 0
BBX 13 8 0 0
BITMAP
39F8
6530
EC60
C8E0
F0C0
C1C0
C9B0
F3E0
ENDCHAR
STARTCHAR eacute_x
ENCODING -1
SWIDTH 760 0
DWIDTH 12 0
BBX 13 12 0 0
BITMAP
0600
0C00
0800
0030
3DB0
6590
EDA0
C9C0
F1C0
C1C8
C2F0
7CE0
ENDCHAR
STARTCHAR f_f_t
ENCODING -1
SWIDTH 780 0
DWIDTH 12 0
BBX 16 16 -3 -4
BITMAP
03FC
06E6
0EC6
0ECE
0FFF
0CCC
0DCC
1D8C
1D9C
1999
1B9F
1F8C
7B00
B300
B700
EE00
ENDCHAR
STARTCHAR f_i_x
ENCODING -1
SWIDTH 898 0
DWIDTH 14 0
BBX 18 16 -3 -4
BITMAP
03C000
066000
0E6000
0E0180
0FED80
0CCC80
0CCC80
1CCF00
1DC600
198E40
19F780
18E300
780000
B00000
B00000
E00000
ENDCHAR
STARTCHAR f_i_z
ENCODING -1
SWIDTH 904 0
DWIDTH 14 0
BBX 17 16 -3 -4
BITMAP
03C000
066000
0E6000
0E0000
0FEF80
0CDB80
0CC300
1CC600
1DC600
19CC00
19FD80
18DF00
780000
B00000
B00000
E00000
ENDCHAR
STARTCHAR f_l_x
ENCODING -1
SWIDTH 912 0
DWIDTH 15 0
BBX 18 16 -3 -4
BITMAP
03C000
067000
0E6000
0E6180
0FED80
0CEE80
0CCE80
1CC700
1CC600
19CE40
19F7C0
18E380
780000
B00000
B00000
E00000
ENDCHAR
STARTCHAR f_l_z
ENCODING -1
SWIDTH 938 0
DWIDTH 15 0
BBX 18 16 -3 -4
BITMAP
03C000
067000
0E6000
0E6000
0FE7C0
0CED80
0CC380
1CC300
1CC600
19C600
19CC80
18FF80
780000
B00000
B00000
E00000
ENDCHAR
STARTCHAR f_t
ENCODING -1
SWIDTH 548 0
DWIDTH 9 0
BBX 12 16 -3 -4
BITMAP
03C0
0670
0E60
0E60
0FF0
0CE0
0CC0
1CC0
1CC0
19D0
19D0
18E0
7800
B000
B000
E000
ENDCHAR
STARTCHAR f_u
ENCODING -1
SWIDTH 772 0
DWIDTH 12 0
BBX 16 16 -3 -4
BITMAP
0380
0680
0E00
0C00
0FEE
0CCC
0CCC
1CCC
19DC
19D9
19FE
18CC
7800
B000
B000
E000
ENDCHAR
STARTCHAR f_x
ENCODING -1
SWIDTH 663 0
DWIDTH 11 0
BBX 14 16 -3 -4
BITMAP
0380
0680
0E00
0C08
0FD8
0CE8
0CE8
1C70
1860
19E0
1964
1B38
7800
B000
B000
E000
ENDCHAR
STARTCHAR g_p
ENCODING -1
SWIDTH 975 0
DWIDTH 16 0
BBX 15 13 0 -4
BITMAP
0070
3F7E
6666
E666
C6E6
CEE6
CCCE
CCCC
7FF8
3DC0
5D80
5980
7180
ENDCHAR
STARTCHAR g_x
ENCODING -1
SWIDTH 892 0
DWIDTH 14 0
BBX 15 13 0 -4
BITMAP
000C
3F6C
6664
E668
C678
CE70
CC72
FCBC
6F38
3C00
5C00
5800
7000
ENDCHAR
STARTCHAR g_z
ENCODING -1
SWIDTH 907 0
DWIDTH 15 0
BBX 15 12 0 -4
BITMAP
3F7E
665C
E658
C638
CE30
CE60
CC6C
FCF8
2C00
5C00
5800
7000
ENDCHAR
STARTCHAR i_x
ENCODING -1
SWIDTH 631 0
DWIDTH 10 0
BBX 11 12 0 0
BITMAP
3000
7000
3000
00C0
66C0
6640
6680
E700
C700
C720
FBC0
E380
ENDCHAR
STARTCHAR i_z
ENCODING -1
SWIDTH 637 0
DWIDTH 10 0
BBX 10 12 0 0
BITMAP
3000
7000
3000
0000
67C0
6D80
6180
E300
C700
C600
CEC0
FF80
ENDCHAR
STARTCHAR iacute_x
ENCODING -1
SWIDTH 631 0
DWIDTH 10 0
BBX 11 12 0 0
BITMAP
1800
1000
2000
00C0
66C0
6640
6680
E700
C700
C720
FBC0
E380
ENDCHAR
STARTCHAR iacute_z
ENCODING -1
SWIDTH 637 0
DWIDTH 10 0
BBX 10 12 0 0
BITMAP
1800
1000
2000
0000
67C0
6D80
6180
E300
C700
C600
CEC0
FF80
ENDCHAR
STARTCHAR j_x
ENCODING -1
SWIDTH 624 0
DWIDTH 10 0
BBX 14 15 -3 -4
BITMAP
0600
0E00
0410
0DD8
0CC8
0CD0
1CE0
18C0
18E4
1B78
1C70
7800
B000
B000
E000
ENDCHAR
STARTCHAR j_z
ENCODING -1
SWIDTH 618 0
DWIDTH 10 0
BBX 13 15 -3 -4
BITMAP
0600
0E00
0400
0CF8
0DB0
0C60
1C60
1CC0
19C0
1990
1BF0
7800
B000
B000
E000
ENDCHAR
STARTCHAR l_x
ENCODING -1
SWIDTH 631 0
DWIDTH 10 0
BBX 11 11 0 0
BITMAP
3000
7000
60C0
66C0
6640
6680
E700
C700
C720
FBC0
E380
ENDCHAR
STARTCHAR l_z
ENCODING -1
SWIDTH 635 0
DWIDTH 10 0
BBX 10 11 0 0
BITMAP
3000
7000
7000
67C0
6D80
6B80
E300
C700
C600
CEC0
FF80
ENDCHAR
STARTCHAR m_x
ENCODING -1
SWIDTH 1124 0
DWIDTH 18 0
BBX 20 9 -1 0
BITMAP
000040
3FE760
333320
377340
777380
666380
666390
666DA0
EE71C0
ENDCHAR
STARTCHAR m_z
ENCODING -1
SWIDTH 1125 0
DWIDTH 18 0
BBX 19 8 -1 0
BITMAP
3FE3E0
3336C0
3771C0
777180
666300
666300
666640
EE7FC0
ENDCHAR
STARTCHAR n_z
ENCODING -1
SWIDTH 882 0
DWIDTH 14 0
BBX 15 8 -1 0
BITMAP
3E3E
336C
331C
7718
6638
6630
6664
E7FC
ENDCHAR
STARTCHAR o_ae
ENCODING -1
SWIDTH 1089 0
DWIDTH 17 0
BBX 18 8 0 0
BITMAP
3C7B80
658E80
6E0C80
E4FD00
C5DE00
CD9840
C99C80
71EF00
ENDCHAR
STARTCHAR o_s
ENCODING -1
SWIDTH 786 0
DWIDTH 13 0
BBX 13 8 0 0
BITMAP
38E0
64E0
ED60
E660
C460
CD68
CA70
71E0
ENDCHAR
STARTCHAR o_s_x
ENCODING -1
SWIDTH 1132 0
DWIDTH 18 0
BBX 19 9 0 0
BITMAP
0000C0
38E6C0
64E640
6D6680
C66680
C46700
CD7720
FA7BC0
71E380
ENDCHAR
STARTCHAR o_s_z
ENCODING -1
SWIDTH 1139 0
DWIDTH 18 0
BBX 18 8 0 0
BITMAP
38E7C0
64ED80
ED6580
E66300
C46700
CD6600
CA6EC0
71DF80
ENDCHAR
STARTCHAR o_x
ENCODING -1
SWIDTH 851 0
DWIDTH 14 0
BBX 14 9 0 0
BITMAP
0018
3CD8
64E8
EFE8
C470
C460
CDE0
C964
7338
ENDCHAR
STARTCHAR oacute_s
ENCODING -1
SWIDTH 787 0
DWIDTH 13 0
BBX 13 12 0 0
BITMAP
0600
0C00
0800
1000
3CE0
64E0
6D60
E660
C460
CD78
CA70
71E0
ENDCHAR
STARTCHAR oacute_s_x
ENCODING -1
SWIDTH 1141 0
DWIDTH 18 0
BBX 18 12 0 0
BITMAP
060000
0C0000
080000
000000
3C67C0
64ED80
6D6580
E66300
C46700
CD7600
CA6EC0
71DF80
ENDCHAR
STARTCHAR oacute_s_z
ENCODING -1
SWIDTH 1140 0
DWIDTH 18 0
BBX 18 12 0 0
BITMAP
060000
0C0000
080000
100000
3CE7C0
64ED80
6D6580
E66300
C46700
CD7600
CA6EC0
71DF80
ENDCHAR
STARTCHAR oacute_x
ENCODING -1
SWIDTH 852 0
DWIDTH 14 0
BBX 14 12 0 0
BITMAP
0600
0C00
0800
1008
3CD8
64E8
6FE8
E470
C460
CDE0
C964
7338
ENDCHAR
STARTCHAR r_x
ENCODING -1
SWIDTH 784 0
DWIDTH 13 0
BBX 14 9 -1 0
BITMAP
0018
36D8
3EC8
30F8
7070
60E0
6164
6364
E338
ENDCHAR
STARTCHAR r_z
ENCODING -1
SWIDTH 654 0
DWIDTH 10 0
BBX 11 8 -1 0
BITMAP
37E0
3EE0
30C0
7180
6180
6300
6760
E7C0
ENDCHAR
STARTCHAR s_x
ENCODING -1
SWIDTH 727 0
DWIDTH 12 0
BBX 13 9 -1 0
BITMAP
0430
1D90
1DD0
3CD0
2CE0
4CC0
CDC8
5EF8
7870
ENDCHAR
STARTCHAR s_z
ENCODING -1
SWIDTH 744 0
DWIDTH 12 0
BBX 13 8 -1 0
BITMAP
1CF8
1DB0
3C60
2C60
4CC0
4CC0
9D90
7BF0
ENDCHAR
STARTCHAR t_x
ENCODING -1
SWIDTH 631 0
DWIDTH 10 0
BBX 11 10 0 0
BITMAP
1000
7000
FEC0
6640
66C0
E680
E700
C720
CB40
F380
ENDCHAR
STARTCHAR t_z
ENCODING -1
SWIDTH 704 0
DWIDTH 11 0
BBX 11 10 0 0
BITMAP
7000
7000
F3E0
66C0
60C0
E180
E380
C300
C760
EFC0
ENDCHAR
STARTCHAR u_v
ENCODING -1
SWIDTH 923 0
DWIDTH 15 0
BBX 14 8 0 0
BITMAP
666C
6664
6664
EEE4
CCE4
CCC8
FCF8
FCF0
ENDCHAR
STARTCHAR u_x
ENCODING -1
SWIDTH 878 0
DWIDTH 14 0
BBX 15 9 0 0
BITMAP
000C
66EC
6664
6668
EE70
CC70
CC72
FFBC
EF38
ENDCHAR
STARTCHAR y_p
ENCODING -1
SWIDTH 954 0
DWIDTH 15 0
BBX 15 13 0 -4
BITMAP
0060
667C
6666
66E6
EEC6
CCCE
CCCC
FDDC
FFF8
3D80
5980
5980
7300
ENDCHAR
STARTCHAR y_x
ENCODING -1
SWIDTH 871 0
DWIDTH 14 0
BBX 15 13 0 -4
BITMAP
0008
66EC
6664
6668
EE70
CC60
CC72
FDBC
FE38
3C00
5800
5800
7000
ENDCHAR
STARTCHAR y_z
ENCODING -1
SWIDTH 888 0
DWIDTH 14 0
BBX 14 12 0 -4
BITMAP
667C
66D8
6618
EE30
CC70
CC68
FCCC
FDF8
3C00
5800
5800
7000
ENDCHAR
STARTCHAR a_x.end
ENCODING -1
SWIDTH 884 0
DWIDTH 14 0
BBX 14 9 0 0
BITMAP
000C
3F6C
6664
E678
C678
CE30
CE70
FFBC
6718
ENDCHAR
STARTCHAR b_s.end
ENCODING -1
SWIDTH 731 0
DWIDTH 12 0
BBX 12 11 0 0
BITMAP
3000
7000
7000
7C60
6CE0
6770
E470
E470
CDF0
C960
F1E0
ENDCHAR
STARTCHAR e_x.end
ENCODING -1
SWIDTH 747 0
DWIDTH 12 0
BBX 12 9 0 0
BITMAP
0030
3DB0
6590
EDA0
C9E0
F1C0
C1C0
C2C0
7CE0
ENDCHAR
STARTCHAR f_u.end
ENCODING -1
SWIDTH 724 0
DWIDTH 12 0
BBX 15 16 -3 -4
BITMAP
0380
0680
0E00
0C00
0FEE
0CCC
0CCC
1CCC
19DC
1998
19FE
18CC
7800
B000
B000
E000
ENDCHAR
STARTCHAR fi.end
ENCODING -1
SWIDTH 479 0
DWIDTH 8 0
BBX 11 16 -3 -4
BITMAP
03C0
0660
0E60
0E00
0FE0
0CC0
0CC0
1CC0
1DC0
1980
19E0
18C0
7800
B000
B000
E000
ENDCHAR
STARTCHAR fl.end
ENCODING -1
SWIDTH 490 0
DWIDTH 8 0
BBX 12 16 -3 -4
BITMAP
03C0
0670
0E60
0E60
0FE0
0CE0
0CC0
1CC0
1CC0
19C0
19E0
18C0
7800
B000
B000
E000
ENDCHAR
STARTCHAR i_x.end
ENCODING -1
SWIDTH 616 0
DWIDTH 10 0
BBX 10 12 0 0
BITMAP
3000
7000
3000
00C0
66C0
6640
6680
E700
C700
C700
FB80
E380
ENDCHAR
STARTCHAR o_s.end
ENCODING -1
SWIDTH 718 0
DWIDTH 11 0
BBX 11 8 0 0
BITMAP
38E0
64E0
ED60
E660
C460
CD60
CA60
71C0
ENDCHAR
STARTCHAR oacute_s.end
ENCODING -1
SWIDTH 719 0
DWIDTH 12 0
BBX 12 12 0 0
BITMAP
0600
0C00
0800
1000
3CE0
64E0
6D60
E660
C460
CD70
CA60
71C0
ENDCHAR
STARTCHAR u_x.end
ENCODING -1
SWIDTH 863 0
DWIDTH 14 0
BBX 14 9 0 0
BITMAP
0008
66EC
6664
6668
EE70
CC70
CC70
DDB4
EF38
ENDCHAR
STARTCHAR uni0424.loclBGR
ENCODING -1
SWIDTH 840 0
DWIDTH 13 0
BBX 13 14 0 -2
BITMAP
0F80
1180
1180
0FE0
33B0
6318
6318
E318
C718
E638
6670
3FC0
0E00
0E00
ENDCHAR
STARTCHAR uni0492.loclBSH
ENCODING -1
SWIDTH 459 0
DWIDTH 7 0
BBX 10 12 0 0
BITMAP
1FC0
6F80
5C00
DC00
D800
5F00
1800
3800
3000
3000
3000
7000
ENDCHAR
STARTCHAR uni04AA.loclCHU
ENCODING -1
SWIDTH 497 0
DWIDTH 8 0
BBX 9 15 0 -3
BITMAP
0F00
1900
3180
7100
6000
6000
E000
E000
E000
E100
7E00
3800
1800
0C00
3800
ENDCHAR
STARTCHAR uni0418.loclSRB
ENCODING -1
SWIDTH 705 0
DWIDTH 11 0
BBX 12 12 0 0
BITMAP
1C70
2C60
4C60
DCE0
DDE0
5BE0
1EC0
1CC0
38C0
31C0
31C0
3180
ENDCHAR
STARTCHAR uni0419.loclSRB
ENCODING -1
SWIDTH 705 0
DWIDTH 11 0
BBX 12 15 0 0
BITMAP
0220
0340
0380
1C70
2C60
4C60
DCE0
DDE0
5BE0
1EC0
1CC0
38C0
31C0
31C0
3180
ENDCHAR
STARTCHAR uni0430.end
ENCODING -1
SWIDTH 467 0
DWIDTH 7 0
BBX 8 8 0 0
BITMAP
3F
66
E6
C6
CE
CE
CC
76
ENDCHAR
STARTCHAR uni0432.end
ENCODING -1
SWIDTH 406 0
DWIDTH 7 0
BBX 7 12 0 0
BITMAP
1C
34
36
64
64
64
FC
DC
C4
C4
C8
70
ENDCHAR
STARTCHAR uni0434.end
ENCODING -1
SWIDTH 480 0
DWIDTH 8 0
BBX 8 12 0 -4
BITMAP
3F
66
E6
C6
CE
CE
CC
7C
2C
5C
58
70
ENDCHAR
STARTCHAR uni0435.end
ENCODING -1
SWIDTH 366 0
DWIDTH 6 0
BBX 6 8 0 0
BITMAP
3C
64
EC
C8
F0
C0
C8
70
ENDCHAR
STARTCHAR uni0451.end
ENCODING -1
SWIDTH 366 0
DWIDTH 6 0
BBX 7 11 0 0
BITMAP
36
36
00
3C
64
EC
C8
F0
C0
C8
70
ENDCHAR
STARTCHAR uni0436.end
ENCODING -1
SWIDTH 848 0
DWIDTH 14 0
BBX 15 8 -1 0
BITMAP
39CE
4D9A
0DB4
0FF0
0DB0
4BB0
DB32
733C
ENDCHAR
STARTCHAR uni0437.end
ENCODING -1
SWIDTH 426 0
DWIDTH 7 0
BBX 7 12 0 -4
BITMAP
3C
4E
4E
8E
8C
9C
30
1C
1C
7C
58
70
ENDCHAR
STARTCHAR uni0438.end
ENCODING -1
SWIDTH 459 0
DWIDTH 7 0
BBX 7 8 0 0
BITMAP
66
66
66
EE
CC
CC
FE
EE
ENDCHAR
STARTCHAR uni0439.end
ENCODING -1
SWIDTH 459 0
DWIDTH 7 0
BBX 8 11 0 0
BITMAP
33
3C
00
66
66
66
EE
CC
CC
FE
EE
ENDCHAR
STARTCHAR uni043A.end
ENCODING -1
SWIDTH 501 0
DWIDTH 8 0
BBX 9 8 -1 0
BITMAP
3380
3580
3800
7E00
7600
6600
6680
E700
ENDCHAR
STARTCHAR uni043B.end
ENCODING -1
SWIDTH 511 0
DWIDTH 8 0
BBX 9 8 -1 0
BITMAP
0780
0580
0B80
0B00
0B00
5300
D380
7380
ENDCHAR
STARTCHAR uni043C.end
ENCODING -1
SWIDTH 780 0
DWIDTH 12 0
BBX 13 8 -1 0
BITMAP
0718
0738
0B38
0B58
0B78
53B0
D3B8
6338
ENDCHAR
STARTCHAR uni043D.end
ENCODING -1
SWIDTH 460 0
DWIDTH 7 0
BBX 8 8 -1 0
BITMAP
33
33
33
7F
66
66
66
E7
ENDCHAR
STARTCHAR uni043E.end
ENCODING -1
SWIDTH 439 0
DWIDTH 7 0
BBX 6 8 0 0
BITMAP
3C
64
64
E4
C4
CC
C8
70
ENDCHAR
STARTCHAR uni043F.end
ENCODING -1
SWIDTH 454 0
DWIDTH 7 0
BBX 8 8 -1 0
BITMAP
3E
33
33
77
66
66
67
E7
ENDCHAR
STARTCHAR uni0441.end
ENCODING -1
SWIDTH 341 0
DWIDTH 5 0
BBX 6 8 0 0
BITMAP
38
64
EC
C0
C0
C0
C8
F0
ENDCHAR
STARTCHAR uni0442.end
ENCODING -1
SWIDTH 701 0
DWIDTH 11 0
BBX 12 8 -1 0
BITMAP
3FE0
3330
3770
7770
6660
6660
6670
EE70
ENDCHAR
STARTCHAR uni0443.end
ENCODING -1
SWIDTH 460 0
DWIDTH 7 0
BBX 7 12 0 -4
BITMAP
66
66
66
EE
CC
CC
FC
FC
3C
58
58
70
ENDCHAR
STARTCHAR uni0445.end
ENCODING -1
SWIDTH 500 0
DWIDTH 8 0
BBX 8 9 0 0
BITMAP
03
3B
59
5E
8C
9C
1C
2F
C6
ENDCHAR
STARTCHAR uni0447.end
ENCODING -1
SWIDTH 459 0
DWIDTH 7 0
BBX 7 8 0 0
BITMAP
66
66
66
EE
FC
7C
0C
0E
ENDCHAR
STARTCHAR uni0448.end
ENCODING -1
SWIDTH 706 0
DWIDTH 11 0
BBX 11 8 0 0
BITMAP
6660
6660
66E0
EEE0
CCC0
CCC0
FFE0
EEE0
ENDCHAR
STARTCHAR uni044B.end
ENCODING -1
SWIDTH 608 0
DWIDTH 10 0
BBX 10 8 0 0
BITMAP
60C0
6380
7D80
ED80
CD80
CF80
DBC0
7180
ENDCHAR
STARTCHAR uni0455.end
ENCODING -1
SWIDTH 316 0
DWIDTH 5 0
BBX 6 8 -1 0
BITMAP
1C
1C
3C
2C
4C
4C
9C
78
ENDCHAR
STARTCHAR uni0456.end
ENCODING -1
SWIDTH 209 0
DWIDTH 3 0
BBX 4 12 0 0
BITMAP
30
70
30
00
60
60
60
E0
C0
C0
E0
E0
ENDCHAR
STARTCHAR uni0458.end
ENCODING -1
SWIDTH 213 0
DWIDTH 3 0
BBX 7 15 -3 -4
BITMAP
06
0E
04
0C
0C
0C
1C
18
18
18
18
78
B0
B0
E0
ENDCHAR
STARTCHAR uni044E.end
ENCODING -1
SWIDTH 675 0
DWIDTH 11 0
BBX 11 8 -1 0
BITMAP
31C0
3320
3720
7E20
6660
6640
6640
E780
ENDCHAR
STARTCHAR uni044F.end
ENCODING -1
SWIDTH 480 0
DWIDTH 8 0
BBX 9 8 -1 0
BITMAP
0F80
3B00
3300
3300
1F00
5600
D780
7300
ENDCHAR
STARTCHAR uni0437.init
ENCODING -1
SWIDTH 455 0
DWIDTH 7 0
BBX 8 12 0 -4
BITMAP
38
5C
8C
0C
1C
18
71
3A
1C
78
B8
70
ENDCHAR
STARTCHAR uni0445.init
ENCODING -1
SWIDTH 390 0
DWIDTH 6 0
BBX 8 9 -1 0
BITMAP
06
76
32
34
3C
38
58
D9
DE
ENDCHAR
STARTCHAR uni0436.loclBGR
ENCODING -1
SWIDTH 882 0
DWIDTH 14 0
BBX 16 11 -1 0
BITMAP
00C0
00C0
00C0
39CE
4D9A
0DB4
0FF0
0DB0
4BB1
DB32
733C
ENDCHAR
STARTCHAR uni043A.loclBGR
ENCODING -1
SWIDTH 518 0
DWIDTH 8 0
BBX 10 11 -1 0
BITMAP
1800
3800
3800
3380
3400
3E00
7F00
6700
6640
6780
E700
ENDCHAR
STARTCHAR uni044E.loclBGR
ENCODING -1
SWIDTH 675 0
DWIDTH 11 0
BBX 14 11 -1 0
BITMAP
1800
3800
3800
31C0
3324
3778
7E20
6660
6640
6640
E780
ENDCHAR
STARTCHAR uni0493.loclBSH
ENCODING -1
SWIDTH 398 0
DWIDTH 6 0
BBX 8 8 -1 0
BITMAP
3F
7E
60
7C
60
68
E8
70
ENDCHAR
STARTCHAR uni04AB.loclCHU
ENCODING -1
SWIDTH 384 0
DWIDTH 6 0
BBX 7 12 0 -4
BITMAP
3C
64
6C
E0
C0
C2
C4
78
20
38
08
70
ENDCHAR
STARTCHAR uni0453.loclMKD
ENCODING -1
SWIDTH 267 0
DWIDTH 4 0
BBX 5 15 0 0
BITMAP
08
10
30
00
F8
00
00
60
60
60
E0
C0
C8
F0
E0
ENDCHAR
STARTCHAR uni0433.loclSRB
ENCODING -1
SWIDTH 267 0
DWIDTH 4 0
BBX 5 11 0 0
BITMAP
F8
00
00
60
60
60
E0
C0
C8
F0
E0
ENDCHAR
STARTCHAR uni043F.loclSRB
ENCODING -1
SWIDTH 505 0
DWIDTH 8 0
BBX 9 11 0 0
BITMAP
3E00
0000
0000
6600
6600
6600
EE00
CC00
CC80
FF00
EE00
ENDCHAR
STARTCHAR uni0442.loclSRB
ENCODING -1
SWIDTH 752 0
DWIDTH 12 0
BBX 13 10 0 0
BITMAP
3FE0
0000
6660
6660
66E0
EEE0
CCC0
CCC8
FFF0
EEE0
ENDCHAR
STARTCHAR uni04150437
ENCODING -1
SWIDTH 940 0
DWIDTH 15 0
BBX 16 16 0 -4
BITMAP
0E00
1900
3100
3200
1C78
389C
709C
E11C
E118
E219
E262
7C3C
0078
00B8
00B0
00E0
ENDCHAR
STARTCHAR uni04150445
ENCODING -1
SWIDTH 797 0
DWIDTH 13 0
BBX 13 12 0 0
BITMAP
0E00
1900
3300
3210
3018
1DD0
70D0
60E0
E0C0
E0C8
E3F8
7C70
ENDCHAR
STARTCHAR uni04010437
ENCODING -1
SWIDTH 940 0
DWIDTH 15 0
BBX 16 19 0 -4
BITMAP
0D00
0D80
0000
0E00
1900
3100
3200
1C78
389C
709C
E11C
E118
E219
E262
7C3C
0078
00B8
00B0
00E0
ENDCHAR
STARTCHAR uni04010445
ENCODING -1
SWIDTH 797 0
DWIDTH 13 0
BBX 13 15 0 0
BITMAP
0D00
0D80
0000
0E00
1900
3300
3210
3018
1DD0
70D0
60E0
E0C0
E0C8
E3F8
7C70
ENDCHAR
STARTCHAR uni04210437
ENCODING -1
SWIDTH 973 0
DWIDTH 16 0
BBX 16 16 0 -4
BITMAP
0F00
1900
3180
7100
703C
604C
E08C
E08C
E10C
E118
6271
3C1E
0038
0058
00B8
0070
ENDCHAR
STARTCHAR uni04210445
ENCODING -1
SWIDTH 814 0
DWIDTH 13 0
BBX 14 12 0 0
BITMAP
0F00
1900
3180
7118
7018
60C8
E0D0
E0E0
E0E0
E0E4
7368
3C70
ENDCHAR
STARTCHAR uni04040437
ENCODING -1
SWIDTH 973 0
DWIDTH 16 0
BBX 16 16 0 -4
BITMAP
0F00
1900
3180
7100
703C
7E4C
E08C
E08C
E10C
E118
6271
3C1E
0038
0058
00B8
0070
ENDCHAR
STARTCHAR uni04040445
ENCODING -1
SWIDTH 814 0
DWIDTH 13 0
BBX 14 12 0 0
BITMAP
0F00
1900
3180
7118
7018
7EC8
E0D0
E0E0
E0E0
E0E4
7368
3C70
ENDCHAR
STARTCHAR uni04300445
ENCODING -1
SWIDTH 899 0
DWIDTH 14 0
BBX 15 9 0 0
BITMAP
000C
3F6C
6664
E678
C678
CE30
CE72
FFBC
6718
ENDCHAR
STARTCHAR uni04300447
ENCODING -1
SWIDTH 993 0
DWIDTH 16 0
BBX 17 8 0 0
BITMAP
3F6600
666600
E6EE00
C6EC00
CEFC00
CE6C80
CC0D00
760E00
ENDCHAR
STARTCHAR uni04310433
ENCODING -1
SWIDTH 816 0
DWIDTH 13 0
BBX 14 12 0 0
BITMAP
0080
3F80
1F00
0800
3CF0
6530
E630
C670
C5E0
CD84
C988
71F0
ENDCHAR
STARTCHAR uni04310453
ENCODING -1
SWIDTH 816 0
DWIDTH 13 0
BBX 14 12 0 0
BITMAP
0098
3FB0
1F20
0840
3CF0
6530
E630
C670
C5E0
CD84
C988
71F0
ENDCHAR
STARTCHAR uni04310451
ENCODING -1
SWIDTH 814 0
DWIDTH 13 0
BBX 14 12 0 0
BITMAP
0100
3F6C
1E68
0800
3C70
64C8
E5D8
C590
C5E0
CD84
C998
71E0
ENDCHAR
STARTCHAR uni04310436
ENCODING -1
SWIDTH 1261 0
DWIDTH 20 0
BBX 21 12 0 0
BITMAP
008000
3F8000
1F0000
080000
3DE670
6666D0
E636C0
C43F80
C46D80
CC6D88
CB4D90
719CE0
ENDCHAR
STARTCHAR uni04310439
ENCODING -1
SWIDTH 935 0
DWIDTH 15 0
BBX 16 12 0 0
BITMAP
0080
3F64
1F78
0800
3CCC
64CC
E5DC
C5DC
C598
CD99
C9BA
71DC
ENDCHAR
STARTCHAR uni0431045E
ENCODING -1
SWIDTH 916 0
DWIDTH 15 0
BBX 15 16 0 -4
BITMAP
0080
1F64
3F64
1838
08CC
3CCC
65DC
E5D8
C598
CD98
C9BA
71FC
0070
00B0
00F0
00E0
ENDCHAR
STARTCHAR uni0431044D
ENCODING -1
SWIDTH 860 0
DWIDTH 14 0
BBX 13 12 0 0
BITMAP
0080
3F80
1F00
0800
3CF0
6518
E618
C678
C438
CD30
CB30
71C0
ENDCHAR
STARTCHAR uni04310456
ENCODING -1
SWIDTH 697 0
DWIDTH 11 0
BBX 12 12 0 0
BITMAP
1F40
3FE0
1860
0800
3CC0
64C0
E5C0
C5C0
C580
CD90
C9A0
71C0
ENDCHAR
STARTCHAR uni04310457
ENCODING -1
SWIDTH 697 0
DWIDTH 11 0
BBX 12 12 0 0
BITMAP
0100
3EF0
1EF0
0800
3CC0
64C0
E5C0
C5C0
C580
CD90
C9A0
71C0
ENDCHAR
STARTCHAR uni04310458
ENCODING -1
SWIDTH 669 0
DWIDTH 11 0
BBX 11 16 0 -4
BITMAP
0100
1FC0
3EE0
1840
08C0
3CC0
65C0
E5C0
C580
CD80
C9A0
73C0
0780
0B00
0B00
0E00
ENDCHAR
STARTCHAR uni04320433
ENCODING -1
SWIDTH 837 0
DWIDTH 13 0
BBX 14 12 0 0
BITMAP
1C00
3400
3600
6400
64F0
6538
FE30
DC70
C4E0
C5C4
CDC8
70F0
ENDCHAR
STARTCHAR uni04320453
ENCODING -1
SWIDTH 837 0
DWIDTH 13 0
BBX 14 12 0 0
BITMAP
1C18
3430
3620
6400
64F0
6538
FE30
DC70
C4E0
C5C4
CDC8
70F0
ENDCHAR
STARTCHAR uni04320436
ENCODING -1
SWIDTH 1279 0
DWIDTH 20 0
BBX 21 12 0 0
BITMAP
1C0000
340000
360000
640000
64E770
673658
FC36C0
DC3FC0
C42F80
C46D88
C96CC8
71CCF0
ENDCHAR
STARTCHAR uni04320437
ENCODING -1
SWIDTH 824 0
DWIDTH 13 0
BBX 14 16 0 -4
BITMAP
1C00
3400
3600
6400
64E0
6570
FE30
DC30
C470
C460
CDC4
70F8
00E0
03E0
02C0
01C0
ENDCHAR
STARTCHAR uni04320445
ENCODING -1
SWIDTH 851 0
DWIDTH 14 0
BBX 14 12 0 0
BITMAP
1C00
3400
3600
6408
64D8
65E8
FE68
DC70
C460
C4E0
C964
7238
ENDCHAR
STARTCHAR uni04330437
ENCODING -1
SWIDTH 840 0
DWIDTH 13 0
BBX 14 12 0 -4
BITMAP
78E0
9930
9A30
3A30
F430
C460
C9C4
F078
00E0
0160
02E0
01C0
ENDCHAR
STARTCHAR uni04330445
ENCODING -1
SWIDTH 740 0
DWIDTH 12 0
BBX 13 9 0 0
BITMAP
0020
7B30
9BA0
99A0
39C0
F180
C388
C5D0
F8E0
ENDCHAR
STARTCHAR uni04330447
ENCODING -1
SWIDTH 880 0
DWIDTH 14 0
BBX 15 8 0 0
BITMAP
7998
9998
9998
3BB8
F3F0
C5F2
C834
F038
ENDCHAR
STARTCHAR uni04530437
ENCODING -1
SWIDTH 840 0
DWIDTH 13 0
BBX 14 16 0 -4
BITMAP
0400
0800
1800
0000
78E0
9930
9A30
3A30
F430
C460
C9C4
F078
00E0
0160
02E0
01C0
ENDCHAR
STARTCHAR uni04530445
ENCODING -1
SWIDTH 740 0
DWIDTH 12 0
BBX 13 12 0 0
BITMAP
0C00
0800
1800
0020
7B30
9BA0
99A0
39C0
F180
C388
C5D0
F8E0
ENDCHAR
STARTCHAR uni04530447
ENCODING -1
SWIDTH 880 0
DWIDTH 14 0
BBX 15 12 0 0
BITMAP
0400
0800
1800
0000
7998
9998
9998
3BB8
F3F0
C5F2
C834
F038
ENDCHAR
STARTCHAR uni04340447
ENCODING -1
SWIDTH 1010 0
DWIDTH 16 0
BBX 17 12 0 -4
BITMAP
3F6600
666600
E66600
C6EE00
CEFE00
CEFC80
CD0C80
7F0F00
1C0000
7C0000
580000
780000
ENDCHAR
STARTCHAR uni04340458
ENCODING -1
SWIDTH 746 0
DWIDTH 12 0
BBX 13 15 0 -4
BITMAP
0030
0070
0020
3F70
6660
E660
C6E0
CEE0
CEC8
CCD0
7EE0
3DC0
5DC0
5D80
7700
ENDCHAR
STARTCHAR uni04350437
ENCODING -1
SWIDTH 876 0
DWIDTH 14 0
BBX 15 12 0 -4
BITMAP
3CF0
6538
ED38
CA38
F230
C432
C4C4
7878
00F0
0170
0160
01C0
ENDCHAR
STARTCHAR uni04350445
ENCODING -1
SWIDTH 762 0
DWIDTH 12 0
BBX 13 9 0 0
BITMAP
0030
3DB0
6590
EDA0
C9E0
F1C0
C1C8
C2F0
7CE0
ENDCHAR
STARTCHAR uni04350447
ENCODING -1
SWIDTH 889 0
DWIDTH 14 0
BBX 15 8 0 0
BITMAP
3DD8
6598
ED98
CBB8
F3F8
C5F2
C832
703C
ENDCHAR
STARTCHAR uni04510437
ENCODING -1
SWIDTH 876 0
DWIDTH 14 0
BBX 15 15 0 -4
BITMAP
3600
3600
0000
3CF0
6538
ED38
CA38
F230
C432
C4C4
7878
00F0
0170
0160
01C0
ENDCHAR
STARTCHAR uni04510445
ENCODING -1
SWIDTH 762 0
DWIDTH 12 0
BBX 13 11 0 0
BITMAP
3600
3600
0030
3DB0
6590
EDA0
C9E0
F1C0
C1C8
C2F0
7CE0
ENDCHAR
STARTCHAR uni04510447
ENCODING -1
SWIDTH 889 0
DWIDTH 14 0
BBX 15 11 0 0
BITMAP
3600
3600
0000
3DD8
6598
ED98
CBB8
F3F8
C5F2
C832
703C
ENDCHAR
STARTCHAR uni04360447
ENCODING -1
SWIDTH 1392 0
DWIDTH 22 0
BBX 24 8 -1 0
BITMAP
39CEEC
4D9ACC
0DB4CC
0FF1DC
0DB1FC
4BB2F9
DB321A
733C1C
ENDCHAR
STARTCHAR uni04370437
ENCODING -1
SWIDTH 921 0
DWIDTH 15 0
BBX 15 12 0 -4
BITMAP
3C78
4E98
4E9C
8F1C
8D18
9D38
3262
1A36
1C38
7CF0
58B0
70E0
ENDCHAR
STARTCHAR uni04380447
ENCODING -1
SWIDTH 1010 0
DWIDTH 16 0
BBX 17 8 0 0
BITMAP
666600
666600
666600
EEEE00
CCFC00
CCFC80
FF0F00
EE0E00
ENDCHAR
STARTCHAR uni04390447
ENCODING -1
SWIDTH 1010 0
DWIDTH 16 0
BBX 17 11 0 0
BITMAP
330000
3C0000
000000
666600
666600
666600
EEEE00
CCFC00
CCFC80
FF0F00
EE0E00
ENDCHAR
STARTCHAR uni043A0447
ENCODING -1
SWIDTH 1016 0
DWIDTH 16 0
BBX 18 8 -1 0
BITMAP
33BB80
35B300
383300
7E3700
767F00
667E40
6687C0
E70380
ENDCHAR
STARTCHAR uni045C0447
ENCODING -1
SWIDTH 1016 0
DWIDTH 16 0
BBX 18 12 -1 0
BITMAP
030000
060000
040000
000000
33BB80
35B300
383300
7E3700
767F00
667E40
6687C0
E70380
ENDCHAR
STARTCHAR uni043B0447
ENCODING -1
SWIDTH 1061 0
DWIDTH 17 0
BBX 19 8 -1 0
BITMAP
079980
059980
0BBB80
0B3B80
0B3F00
533B20
D34340
738380
ENDCHAR
STARTCHAR uni043C0447
ENCODING -1
SWIDTH 1276 0
DWIDTH 20 0
BBX 22 8 -1 0
BITMAP
063BB8
0E3330
0E7330
0E7330
0EB7F0
56E7F4
D7787C
673038
ENDCHAR
STARTCHAR uni043D0447
ENCODING -1
SWIDTH 1011 0
DWIDTH 16 0
BBX 18 8 -1 0
BITMAP
333300
333300
333300
7F7700
667F00
667E40
668680
E70700
ENDCHAR
STARTCHAR uni043E0433
ENCODING -1
SWIDTH 804 0
DWIDTH 13 0
BBX 14 8 0 0
BITMAP
3CF0
6538
6E30
E470
C5E0
CD84
C988
71F0
ENDCHAR
STARTCHAR uni043E0453
ENCODING -1
SWIDTH 804 0
DWIDTH 13 0
BBX 14 12 0 0
BITMAP
0018
0010
0030
0000
3CF0
6538
6E30
E470
C5E0
CD84
C988
71F0
ENDCHAR
STARTCHAR uni043E0436
ENCODING -1
SWIDTH 1271 0
DWIDTH 20 0
BBX 21 8 0 0
BITMAP
3CE670
6536D8
6E36C0
E43FC0
C42D80
CF6D88
CA6D90
71CCE0
ENDCHAR
STARTCHAR uni043E0437
ENCODING -1
SWIDTH 837 0
DWIDTH 13 0
BBX 14 12 0 -4
BITMAP
3CE0
6530
6E30
E430
C430
CC60
C9C4
7078
00E0
0160
02E0
01C0
ENDCHAR
STARTCHAR uni043E043B
ENCODING -1
SWIDTH 992 0
DWIDTH 16 0
BBX 17 8 0 0
BITMAP
3C1E00
643600
642E00
E42C00
C42C00
CD4C80
CB4D00
7D8E00
ENDCHAR
STARTCHAR uni043E043C
ENCODING -1
SWIDTH 1207 0
DWIDTH 19 0
BBX 20 8 0 0
BITMAP
3C18E0
6439C0
6439C0
C43BC0
C43BC0
CD5B90
FF5DE0
799CC0
ENDCHAR
STARTCHAR uni043E0445
ENCODING -1
SWIDTH 850 0
DWIDTH 14 0
BBX 14 9 0 0
BITMAP
0018
3CD8
64E8
EFE8
C470
C460
CDE0
C964
7338
ENDCHAR
STARTCHAR uni043E0459
ENCODING -1
SWIDTH 1179 0
DWIDTH 19 0
BBX 18 8 0 0
BITMAP
3C1E00
643600
642F80
E42FC0
C42CC0
CD4CC0
CB4D80
7D8F00
ENDCHAR
STARTCHAR uni043E044D
ENCODING -1
SWIDTH 867 0
DWIDTH 14 0
BBX 13 8 0 0
BITMAP
3CF0
6518
6E18
E478
C418
CD30
CB30
71E0
ENDCHAR
STARTCHAR uni043F0447
ENCODING -1
SWIDTH 1010 0
DWIDTH 16 0
BBX 18 8 -1 0
BITMAP
3E3300
333300
333300
777700
667F00
667E40
668680
E70700
ENDCHAR
STARTCHAR uni04400437
ENCODING -1
SWIDTH 890 0
DWIDTH 14 0
BBX 16 13 -1 -4
BITMAP
3800
3F38
335C
338C
730C
631C
6618
6E71
7C1E
E038
C0D8
C0B0
C070
ENDCHAR
STARTCHAR uni04410437
ENCODING -1
SWIDTH 876 0
DWIDTH 14 0
BBX 15 12 0 -4
BITMAP
3CF0
6538
6938
E238
C230
C432
C4C4
7878
00F0
0170
0160
01C0
ENDCHAR
STARTCHAR uni04410445
ENCODING -1
SWIDTH 755 0
DWIDTH 12 0
BBX 13 9 0 0
BITMAP
0030
3BB0
6590
E9A0
C1C0
C1C0
C1C8
C6F0
78E0
ENDCHAR
STARTCHAR uni04410447
ENCODING -1
SWIDTH 889 0
DWIDTH 14 0
BBX 15 8 0 0
BITMAP
3DD8
6598
6D98
E3B8
C3F8
C5F0
CC32
703C
ENDCHAR
STARTCHAR uni0441044A
ENCODING -1
SWIDTH 841 0
DWIDTH 13 0
BBX 13 8 0 0
BITMAP
3DE0
6740
68F8
E098
C198
C398
C5B0
79E0
ENDCHAR
STARTCHAR uni04420447
ENCODING -1
SWIDTH 1257 0
DWIDTH 20 0
BBX 22 8 -1 0
BITMAP
3FE330
333330
377330
777770
6667E0
6667E4
666868
EE7070
ENDCHAR
STARTCHAR uni04430447
ENCODING -1
SWIDTH 989 0
DWIDTH 16 0
BBX 17 12 0 -4
BITMAP
666600
666E00
66EE00
EECC00
CCFC00
CCEC80
DD0D00
FE0E00
3C0000
580000
580000
700000
ENDCHAR
STARTCHAR uni04430458
ENCODING -1
SWIDTH 725 0
DWIDTH 12 0
BBX 12 15 0 -4
BITMAP
0060
0070
0060
6660
6660
66E0
EEC0
CCC0
CCD0
FDD0
FDE0
3F80
5980
5980
7700
ENDCHAR
STARTCHAR uni045E0447
ENCODING -1
SWIDTH 989 0
DWIDTH 16 0
BBX 17 15 0 -4
BITMAP
310000
320000
1C0000
666600
666E00
66EE00
EECC00
CCFC00
CCEC80
DD0D00
FE0E00
3C0000
580000
580000
700000
ENDCHAR
STARTCHAR uni045E0458
ENCODING -1
SWIDTH 725 0
DWIDTH 12 0
BBX 12 15 0 -4
BITMAP
3160
3270
1C60
6660
6660
66E0
EEC0
CCC0
CCD0
FDD0
FFE0
3980
5980
7B80
7700
ENDCHAR
STARTCHAR uni04440437
ENCODING -1
SWIDTH 1148 0
DWIDTH 18 0
BBX 19 15 0 -4
BITMAP
030000
030000
030000
3FE700
666980
E67180
C66180
CE6380
CC6300
CCCE20
FF83C0
0C0700
180B00
181700
180E00
ENDCHAR
STARTCHAR uni04450447
ENCODING -1
SWIDTH 1027 0
DWIDTH 16 0
BBX 17 9 0 0
BITMAP
030000
3B7700
596600
5E6600
8C6600
8C7E00
1CFE80
2C8C80
C70700
ENDCHAR
STARTCHAR uni0445044A
ENCODING -1
SWIDTH 1006 0
DWIDTH 16 0
BBX 15 9 0 0
BITMAP
0300
3B78
5950
5E1E
8C36
9C66
1C66
2CE6
C778
ENDCHAR
STARTCHAR uni04470447
ENCODING -1
SWIDTH 1010 0
DWIDTH 16 0
BBX 17 8 0 0
BITMAP
666600
666600
666600
EEEE00
FCFC00
7CFC80
0F0F00
0E0E00
ENDCHAR
STARTCHAR uni04480447
ENCODING -1
SWIDTH 1257 0
DWIDTH 20 0
BBX 21 8 0 0
BITMAP
666660
666660
66E660
EEEEE0
CCCFC0
CCCFC8
FFF0F0
EEE0E0
ENDCHAR
STARTCHAR uni045F0447
ENCODING -1
SWIDTH 1010 0
DWIDTH 16 0
BBX 17 12 0 -4
BITMAP
666600
666600
666600
EEEE00
CCFC00
CCFC80
FF0F00
EE0E00
100000
300000
180000
100000
ENDCHAR
STARTCHAR uni044B0447
ENCODING -1
SWIDTH 1157 0
DWIDTH 19 0
BBX 19 8 0 0
BITMAP
60DDC0
639980
7D9980
ED9B80
CD9F80
CFBFA0
DBE3E0
71C1C0
ENDCHAR
STARTCHAR uni04550437
ENCODING -1
SWIDTH 840 0
DWIDTH 13 0
BBX 15 12 -1 -4
BITMAP
1C70
1C98
3D18
2D18
4D18
4E30
DCE2
783C
0070
00B0
0170
00E0
ENDCHAR
STARTCHAR uni04550445
ENCODING -1
SWIDTH 727 0
DWIDTH 12 0
BBX 13 9 -1 0
BITMAP
0430
1D90
1DD0
3CD0
2CE0
4CC0
CDC8
5EF8
7870
ENDCHAR
STARTCHAR uni04550447
ENCODING -1
SWIDTH 909 0
DWIDTH 15 0
BBX 16 8 -1 0
BITMAP
1CEE
1CEE
3CCC
2CCC
4DFC
4DFD
9E1D
780E
ENDCHAR
STARTCHAR uni04540437
ENCODING -1
SWIDTH 876 0
DWIDTH 14 0
BBX 15 12 0 -4
BITMAP
3CF0
6538
6938
F238
C230
C432
C4C4
7878
00F0
0170
0160
01C0
ENDCHAR
STARTCHAR uni04540445
ENCODING -1
SWIDTH 755 0
DWIDTH 12 0
BBX 13 9 0 0
BITMAP
0030
3BB0
6590
E9A0
F1C0
C1C0
C1C8
C6F0
78E0
ENDCHAR
STARTCHAR uni04540447
ENCODING -1
SWIDTH 889 0
DWIDTH 14 0
BBX 15 8 0 0
BITMAP
3DD8
6598
6998
F3B8
C3F8
C5F2
C834
7038
ENDCHAR
STARTCHAR uni044D0437
ENCODING -1
SWIDTH 837 0
DWIDTH 13 0
BBX 15 12 -1 -4
BITMAP
3C70
4698
0718
1E18
0618
4C32
CCE2
703C
0070
00B0
0170
00E0
ENDCHAR
STARTCHAR uni04560447
ENCODING -1
SWIDTH 763 0
DWIDTH 12 0
BBX 13 12 0 0
BITMAP
3000
7000
3000
0000
6760
6660
6660
EEE0
CFE0
CFC8
F0F0
E0E0
ENDCHAR
STARTCHAR uni04570447
ENCODING -1
SWIDTH 763 0
DWIDTH 12 0
BBX 13 11 0 0
BITMAP
D800
D800
0000
6760
6660
6660
EEE0
CFE0
CFC8
F0F0
E0E0
ENDCHAR
STARTCHAR uni04570457
ENCODING -1
SWIDTH 543 0
DWIDTH 9 0
BBX 9 11 0 0
BITMAP
DF80
D680
0000
6700
6600
6600
E600
CE00
CC80
FF80
E700
ENDCHAR
STARTCHAR uni04580447
ENCODING -1
SWIDTH 743 0
DWIDTH 12 0
BBX 16 15 -3 -4
BITMAP
0600
0E00
0400
0CCC
0CCC
0DDC
1DD8
19F8
19D9
1A1A
1C1C
7800
B000
B000
E000
ENDCHAR
STARTCHAR uni04580458
ENCODING -1
SWIDTH 480 0
DWIDTH 8 0
BBX 11 15 -3 -4
BITMAP
06C0
0EE0
0440
0CC0
0CC0
0DC0
1D80
1980
19A0
1BA0
1FC0
7B00
B300
F700
EE00
ENDCHAR
STARTCHAR uni045B0447
ENCODING -1
SWIDTH 990 0
DWIDTH 16 0
BBX 17 15 -1 -4
BITMAP
180000
380000
7E0000
303300
3E7700
377600
776600
667E00
66B680
668E80
EF0700
1C0000
2C0000
2C0000
380000
ENDCHAR
STARTCHAR uni045B0458
ENCODING -1
SWIDTH 722 0
DWIDTH 12 0
BBX 13 15 -1 -4
BITMAP
1830
3838
7E00
3030
3E70
3770
7760
6660
6668
66E8
EFF0
1CC0
2CC0
3DC0
3B80
ENDCHAR
STARTCHAR uni044E0433
ENCODING -1
SWIDTH 1050 0
DWIDTH 17 0
BBX 18 8 -1 0
BITMAP
31C780
332980
377180
7E2780
666E00
664C40
665C80
E78F00
ENDCHAR
STARTCHAR uni044E0453
ENCODING -1
SWIDTH 1050 0
DWIDTH 17 0
BBX 18 12 -1 0
BITMAP
0000C0
000080
000100
000000
31C780
332980
377180
7E2780
666E00
664C40
665C80
E78F00
ENDCHAR
STARTCHAR uni044E0436
ENCODING -1
SWIDTH 1507 0
DWIDTH 24 0
BBX 26 8 -1 0
BITMAP
31C73380
332B3680
37713600
7E23FC00
66636C00
66536C40
66526C80
E79CE700
ENDCHAR
STARTCHAR uni044E0437
ENCODING -1
SWIDTH 1073 0
DWIDTH 17 0
BBX 19 12 -1 -4
BITMAP
31C700
332B80
377180
7E2180
666380
664300
664E20
E787C0
000700
001F00
001600
001E00
ENDCHAR
STARTCHAR uni044E043B
ENCODING -1
SWIDTH 1228 0
DWIDTH 20 0
BBX 21 8 -1 0
BITMAP
31C0F0
332170
372160
7E2160
666260
665A68
665AE8
E7FC70
ENDCHAR
STARTCHAR uni044E043C
ENCODING -1
SWIDTH 1443 0
DWIDTH 23 0
BBX 25 8 -1 0
BITMAP
31C1C600
3321CE00
3721CE00
7E21DE00
6662DC00
667AEC80
665AED00
E7FCCE00
ENDCHAR
STARTCHAR uni044E0445
ENCODING -1
SWIDTH 1088 0
DWIDTH 17 0
BBX 19 9 -1 0
BITMAP
0000C0
31C6C0
332E40
377780
7E2700
666700
664B20
665320
E799C0
ENDCHAR
STARTCHAR uni044E0459
ENCODING -1
SWIDTH 1415 0
DWIDTH 23 0
BBX 23 8 -1 0
BITMAP
31C0F0
332170
37217C
7E2166
666266
665AE6
665A6C
E7FC78
ENDCHAR
STARTCHAR uni044E044D
ENCODING -1
SWIDTH 1103 0
DWIDTH 18 0
BBX 18 8 -1 0
BITMAP
31C780
3329C0
3770C0
7E27C0
6661C0
665980
665B80
E78E00
ENDCHAR
STARTCHAR uni044F0447
ENCODING -1
SWIDTH 1030 0
DWIDTH 16 0
BBX 18 8 -1 0
BITMAP
0FBB80
3B3300
333300
333300
1F3F00
577F40
D64740
738380
ENDCHAR
STARTCHAR uni04300445.liga
ENCODING -1
SWIDTH 884 0
DWIDTH 14 0
BBX 14 9 0 0
BITMAP
000C
3F6C
6664
E678
C678
CE30
CE70
FFBC
6718
ENDCHAR
STARTCHAR uni04300447.liga
ENCODING -1
SWIDTH 947 0
DWIDTH 15 0
BBX 15 8 0 0
BITMAP
3F66
6666
E6EE
C6EC
CEFC
CE6C
CC0C
760E
ENDCHAR
STARTCHAR uni04310451.liga
ENCODING -1
SWIDTH 746 0
DWIDTH 12 0
BBX 14 12 0 0
BITMAP
0100
3F6C
1E68
0800
3C70
64C8
E5D8
C590
C5E0
CD80
F9F0
71E0
ENDCHAR
STARTCHAR uni04310436.liga
ENCODING -1
SWIDTH 1258 0
DWIDTH 20 0
BBX 20 12 0 0
BITMAP
008000
3F8000
1F0000
080000
3DE670
6666D0
E636C0
C43F80
C46D80
CC6D80
CB4D90
719CE0
ENDCHAR
STARTCHAR uni04310439.liga
ENCODING -1
SWIDTH 901 0
DWIDTH 14 0
BBX 14 12 0 0
BITMAP
0080
3F64
1F78
0800
3CCC
64CC
E5DC
C5DC
C598
CD98
C9B8
71DC
ENDCHAR
STARTCHAR uni0431045E.liga
ENCODING -1
SWIDTH 890 0
DWIDTH 14 0
BBX 14 16 0 -4
BITMAP
0080
1F64
3F64
1838
08CC
3CCC
65DC
E5D8
C598
CD98
F9B8
71F8
0070
00B0
0130
00E0
ENDCHAR
STARTCHAR uni04310456.liga
ENCODING -1
SWIDTH 639 0
DWIDTH 10 0
BBX 11 12 0 0
BITMAP
1F40
3FE0
1860
0800
3CC0
64C0
E5C0
C5C0
C580
CD80
C980
71C0
ENDCHAR
STARTCHAR uni04310457.liga
ENCODING -1
SWIDTH 638 0
DWIDTH 10 0
BBX 12 12 0 0
BITMAP
0100
3EF0
1EF0
0800
3CC0
64C0
E5C0
C5C0
C580
CD80
C980
71C0
ENDCHAR
STARTCHAR uni04310458.liga
ENCODING -1
SWIDTH 638 0
DWIDTH 10 0
BBX 11 16 0 -4
BITMAP
0100
1FC0
3EE0
1840
08C0
3CC0
65C0
E5C0
C580
CD80
C980
7380
0780
0B00
1300
0E00
ENDCHAR
STARTCHAR uni04320436.liga
ENCODING -1
SWIDTH 1275 0
DWIDTH 20 0
BBX 21 12 0 0
BITMAP
1C0000
340000
360000
640000
64E770
673658
FC36C0
DC3FC0
C42F80
C46D80
C96CC8
71CCF0
ENDCHAR
STARTCHAR uni04320437.liga
ENCODING -1
SWIDTH 752 0
DWIDTH 12 0
BBX 12 16 0 -4
BITMAP
1C00
3400
3600
6400
64E0
6570
FE30
DC30
C470
C460
CDC0
70E0
0160
02E0
02C0
01C0
ENDCHAR
STARTCHAR uni04320445.liga
ENCODING -1
SWIDTH 842 0
DWIDTH 13 0
BBX 13 12 0 0
BITMAP
1C00
3400
3600
6408
64D8
65E8
FE68
DC70
C460
C4E0
C970
7238
ENDCHAR
STARTCHAR uni04330437.liga
ENCODING -1
SWIDTH 768 0
DWIDTH 12 0
BBX 12 12 0 -4
BITMAP
78E0
9930
9A30
3A30
F430
C460
C9C0
F060
01E0
0260
02E0
01C0
ENDCHAR
STARTCHAR uni04330445.liga
ENCODING -1
SWIDTH 725 0
DWIDTH 12 0
BBX 12 9 0 0
BITMAP
0020
7B30
9BA0
99A0
39C0
F180
C380
C4C0
F8E0
ENDCHAR
STARTCHAR uni04330447.liga
ENCODING -1
SWIDTH 834 0
DWIDTH 13 0
BBX 13 8 0 0
BITMAP
7998
9998
9998
3BB8
F3F0
C5F0
C830
F038
ENDCHAR
STARTCHAR uni04530437.liga
ENCODING -1
SWIDTH 768 0
DWIDTH 12 0
BBX 12 16 0 -4
BITMAP
0400
0800
1800
0000
78E0
9930
9A30
3A30
F430
C460
C9C0
F060
01E0
0260
02E0
01C0
ENDCHAR
STARTCHAR uni04530445.liga
ENCODING -1
SWIDTH 725 0
DWIDTH 12 0
BBX 12 12 0 0
BITMAP
0C00
0800
1800
0020
7B30
9BA0
99A0
39C0
F180
C380
C4C0
F8E0
ENDCHAR
STARTCHAR uni04530447.liga
ENCODING -1
SWIDTH 834 0
DWIDTH 13 0
BBX 13 12 0 0
BITMAP
0400
0800
1800
0000
7998
9998
9998
3BB8
F3F0
C5F0
C830
F038
ENDCHAR
STARTCHAR uni04340447.liga
ENCODING -1
SWIDTH 965 0
DWIDTH 15 0
BBX 15 12 0 -4
BITMAP
3F66
6666
E666
C6EE
CEFE
CEFC
CD0C
7F0E
1C00
7C00
5800
7800
ENDCHAR
STARTCHAR uni04340458.liga
ENCODING -1
SWIDTH 715 0
DWIDTH 11 0
BBX 12 15 0 -4
BITMAP
0030
0070
0020
3F70
6660
E660
C6E0
CEE0
CEC0
CCC0
7EC0
3DC0
5D80
5D80
7700
ENDCHAR
STARTCHAR uni04350437.liga
ENCODING -1
SWIDTH 804 0
DWIDTH 13 0
BBX 13 12 0 -4
BITMAP
3CF0
6538
ED38
CA38
F230
C430
C4C0
7870
00F0
0170
0160
01C0
ENDCHAR
STARTCHAR uni04350445.liga
ENCODING -1
SWIDTH 747 0
DWIDTH 12 0
BBX 12 9 0 0
BITMAP
0030
3DB0
6590
EDA0
C9E0
F1C0
C1C0
C2C0
7CE0
ENDCHAR
STARTCHAR uni04350447.liga
ENCODING -1
SWIDTH 844 0
DWIDTH 14 0
BBX 14 8 0 0
BITMAP
3DDC
6598
ED98
CBB8
F3F8
C5F0
C830
7038
ENDCHAR
STARTCHAR uni04510437.liga
ENCODING -1
SWIDTH 804 0
DWIDTH 13 0
BBX 13 15 0 -4
BITMAP
3600
3600
0000
3CF0
6538
ED38
CA38
F230
C430
C4C0
7870
00F0
0170
0160
01C0
ENDCHAR
STARTCHAR uni04510445.liga
ENCODING -1
SWIDTH 747 0
DWIDTH 12 0
BBX 12 11 0 0
BITMAP
3600
3600
0030
3DB0
6590
EDA0
C9E0
F1C0
C1C0
C2C0
7CE0
ENDCHAR
STARTCHAR uni04510447.liga
ENCODING -1
SWIDTH 844 0
DWIDTH 14 0
BBX 14 11 0 0
BITMAP
3600
3600
0000
3DDC
6598
ED98
CBB8
F3F8
C5F0
C830
7038
ENDCHAR
STARTCHAR uni04360447.liga
ENCODING -1
SWIDTH 1341 0
DWIDTH 21 0
BBX 22 8 -1 0
BITMAP
39CEEC
4D9ACC
0DB4CC
0FF1DC
0DB1FC
4BB2F8
DB3218
733C1C
ENDCHAR
STARTCHAR uni04370437.liga
ENCODING -1
SWIDTH 849 0
DWIDTH 14 0
BBX 14 12 0 -4
BITMAP
3C78
4E98
4E9C
8F1C
8D18
9D38
3260
1A30
1C70
3CB0
58B0
70E0
ENDCHAR
STARTCHAR uni04380447.liga
ENCODING -1
SWIDTH 964 0
DWIDTH 15 0
BBX 15 8 0 0
BITMAP
6666
6666
6666
EEEE
CCFC
CCFC
FF0E
EE0E
ENDCHAR
STARTCHAR uni04390447.liga
ENCODING -1
SWIDTH 964 0
DWIDTH 15 0
BBX 15 11 0 0
BITMAP
3300
3C00
0000
6666
6666
6666
EEEE
CCFC
CCFC
FF0E
EE0E
ENDCHAR
STARTCHAR uni043A0447.liga
ENCODING -1
SWIDTH 978 0
DWIDTH 16 0
BBX 17 8 -1 0
BITMAP
33BB80
35B300
383300
7E3700
767F00
667E00
668780
E70300
ENDCHAR
STARTCHAR uni045C0447.liga
ENCODING -1
SWIDTH 978 0
DWIDTH 16 0
BBX 17 12 -1 0
BITMAP
030000
060000
040000
000000
33BB80
35B300
383300
7E3700
767F00
667E00
668780
E70300
ENDCHAR
STARTCHAR uni043B0447.liga
ENCODING -1
SWIDTH 1015 0
DWIDTH 16 0
BBX 17 8 -1 0
BITMAP
079980
059980
0BBB80
0B3B80
0B3F00
533B00
D34300
738380
ENDCHAR
STARTCHAR uni043C0447.liga
ENCODING -1
SWIDTH 1231 0
DWIDTH 20 0
BBX 21 8 -1 0
BITMAP
063BB8
0E3330
0E7330
0E7330
0EB7F0
56E7F0
D77878
673030
ENDCHAR
STARTCHAR uni043D0447.liga
ENCODING -1
SWIDTH 965 0
DWIDTH 15 0
BBX 16 8 -1 0
BITMAP
3333
3333
3333
7F77
667F
667E
6686
E707
ENDCHAR
STARTCHAR uni043E0436.liga
ENCODING -1
SWIDTH 1268 0
DWIDTH 20 0
BBX 21 8 0 0
BITMAP
3CE670
6536D8
6E36C0
E43FC0
C42D80
CF6D80
CA6DC8
71CCF0
ENDCHAR
STARTCHAR uni043E0437.liga
ENCODING -1
SWIDTH 765 0
DWIDTH 12 0
BBX 12 12 0 -4
BITMAP
3CE0
6530
6E30
E430
C430
CC60
C9C0
7060
01E0
0260
02E0
01C0
ENDCHAR
STARTCHAR uni043E043B.liga
ENCODING -1
SWIDTH 945 0
DWIDTH 15 0
BBX 15 8 0 0
BITMAP
3C1E
6436
642E
E42C
C42C
CD4C
CB4C
7D8E
ENDCHAR
STARTCHAR uni043E043C.liga
ENCODING -1
SWIDTH 1161 0
DWIDTH 19 0
BBX 19 8 0 0
BITMAP
3C18E0
6438C0
6439C0
E439C0
C43BC0
CD5B80
CB5DA0
7D9CC0
ENDCHAR
STARTCHAR uni043E0445.liga
ENCODING -1
SWIDTH 835 0
DWIDTH 13 0
BBX 13 9 0 0
BITMAP
0018
3CD8
64E8
EFE8
C470
C460
CDE0
C970
7338
ENDCHAR
STARTCHAR uni043F0447.liga
ENCODING -1
SWIDTH 965 0
DWIDTH 15 0
BBX 16 8 -1 0
BITMAP
3E33
3333
3333
7777
667F
667E
6686
E707
ENDCHAR
STARTCHAR uni04400437.liga
ENCODING -1
SWIDTH 818 0
DWIDTH 13 0
BBX 14 13 -1 -4
BITMAP
3800
3F38
335C
338C
730C
631C
6618
6E70
7C18
E078
C098
C0B8
C070
ENDCHAR
STARTCHAR uni04410437.liga
ENCODING -1
SWIDTH 804 0
DWIDTH 13 0
BBX 13 12 0 -4
BITMAP
3CF0
6538
6938
E238
C230
C430
C4C0
7870
00F0
0170
0160
01C0
ENDCHAR
STARTCHAR uni04410445.liga
ENCODING -1
SWIDTH 740 0
DWIDTH 12 0
BBX 12 9 0 0
BITMAP
0030
3BB0
6590
E9A0
C1A0
C1C0
C1C0
C2C0
7CE0
ENDCHAR
STARTCHAR uni04410447.liga
ENCODING -1
SWIDTH 843 0
DWIDTH 13 0
BBX 13 8 0 0
BITMAP
3DD8
6598
6D98
E3B8
C3F8
C5F0
CC30
7038
ENDCHAR
STARTCHAR uni04420447.liga
ENCODING -1
SWIDTH 1211 0
DWIDTH 19 0
BBX 20 8 -1 0
BITMAP
3FE330
333330
377330
777770
6667E0
6667E0
666860
EE7070
ENDCHAR
STARTCHAR uni04430447.liga
ENCODING -1
SWIDTH 943 0
DWIDTH 15 0
BBX 15 12 0 -4
BITMAP
6666
666E
66EE
EECC
CCFC
CCEC
DD0C
FE0E
3C00
5800
5800
7000
ENDCHAR
STARTCHAR uni04430458.liga
ENCODING -1
SWIDTH 694 0
DWIDTH 11 0
BBX 12 15 0 -4
BITMAP
0060
0070
0060
6660
6660
66E0
EEC0
CCC0
CCC0
FDC0
FDC0
3F80
5980
5980
7700
ENDCHAR
STARTCHAR uni045E0447.liga
ENCODING -1
SWIDTH 943 0
DWIDTH 15 0
BBX 15 15 0 -4
BITMAP
3100
3200
1C00
6666
666E
66EE
EECC
CCFC
CCEC
DD0C
FE0E
3C00
5800
5800
7000
ENDCHAR
STARTCHAR uni045E0458.liga
ENCODING -1
SWIDTH 694 0
DWIDTH 11 0
BBX 12 15 0 -4
BITMAP
3160
3270
1C60
6660
6660
66E0
EEC0
CCC0
CCC0
FDC0
FFC0
3980
5980
7B80
7700
ENDCHAR
STARTCHAR uni04440437.liga
ENCODING -1
SWIDTH 1076 0
DWIDTH 17 0
BBX 17 15 0 -4
BITMAP
030000
030000
030000
3FE700
666980
E67180
C66180
CE6380
CC6300
CCCE00
FF8300
0C0F00
181300
181700
180E00
ENDCHAR
STARTCHAR uni04450447.liga
ENCODING -1
SWIDTH 981 0
DWIDTH 16 0
BBX 16 9 0 0
BITMAP
0300
3B77
5966
5E66
8C66
8C7E
1CFE
2C8C
C707
ENDCHAR
STARTCHAR uni04470447.liga
ENCODING -1
SWIDTH 964 0
DWIDTH 15 0
BBX 15 8 0 0
BITMAP
6666
6666
6666
EEEE
FCFC
7CFC
0F0E
0E0E
ENDCHAR
STARTCHAR uni04480447.liga
ENCODING -1
SWIDTH 1211 0
DWIDTH 19 0
BBX 19 8 0 0
BITMAP
666660
666660
66E660
EEEEE0
CCCFC0
CCCFC0
FFF0E0
EEE0E0
ENDCHAR
STARTCHAR uni045F0447.liga
ENCODING -1
SWIDTH 964 0
DWIDTH 15 0
BBX 15 12 0 -4
BITMAP
6666
6666
6666
EEEE
CCFC
CCFC
FF0E
EE0E
1000
3000
1800
1000
ENDCHAR
STARTCHAR uni044B0447.liga
ENCODING -1
SWIDTH 1112 0
DWIDTH 18 0
BBX 18 8 0 0
BITMAP
60DDC0
639980
7D9980
ED9B80
CD9F80
CFBF80
DBE3C0
71C180
ENDCHAR
STARTCHAR uni04550437.liga
ENCODING -1
SWIDTH 768 0
DWIDTH 12 0
BBX 13 12 -1 -4
BITMAP
1C70
1C98
3D18
2D18
4D18
4E30
DCE0
7830
00F0
0130
0170
00E0
ENDCHAR
STARTCHAR uni04550445.liga
ENCODING -1
SWIDTH 712 0
DWIDTH 11 0
BBX 12 9 -1 0
BITMAP
0430
1D90
1DD0
3DD0
2CE0
4CC0
4DC0
9EE0
7870
ENDCHAR
STARTCHAR uni04550447.liga
ENCODING -1
SWIDTH 864 0
DWIDTH 14 0
BBX 15 8 -1 0
BITMAP
1CEE
1CEE
3CCC
2CCC
4DFC
4DFC
9E1C
780E
ENDCHAR
STARTCHAR uni04540437.liga
ENCODING -1
SWIDTH 804 0
DWIDTH 13 0
BBX 13 12 0 -4
BITMAP
3CF0
6538
6938
F238
C230
C430
C4C0
7870
00F0
0170
0160
01C0
ENDCHAR
STARTCHAR uni04540445.liga
ENCODING -1
SWIDTH 740 0
DWIDTH 12 0
BBX 12 9 0 0
BITMAP
0030
3BB0
6590
E9A0
F1C0
C1C0
C1C0
C6C0
78E0
ENDCHAR
STARTCHAR uni04540447.liga
ENCODING -1
SWIDTH 844 0
DWIDTH 14 0
BBX 14 8 0 0
BITMAP
3DDC
6598
6998
F3B8
C3F8
C5F0
C830
7038
ENDCHAR
STARTCHAR uni044D0437.liga
ENCODING -1
SWIDTH 765 0
DWIDTH 12 0
BBX 13 12 -1 -4
BITMAP
3C70
4698
0718
1E18
0618
4C30
CCE0
7030
00F0
0130
0170
00E0
ENDCHAR
STARTCHAR uni04560447.liga
ENCODING -1
SWIDTH 717 0
DWIDTH 11 0
BBX 11 12 0 0
BITMAP
3000
7000
3000
0000
6760
6660
6660
EEE0
CFE0
CFC0
F0E0
E0E0
ENDCHAR
STARTCHAR uni04570447.liga
ENCODING -1
SWIDTH 718 0
DWIDTH 11 0
BBX 11 11 0 0
BITMAP
D800
D800
0000
6760
6660
6660
EEE0
CFE0
CFC0
F0E0
E0E0
ENDCHAR
STARTCHAR uni04570457.liga
ENCODING -1
SWIDTH 476 0
DWIDTH 8 0
BBX 9 11 0 0
BITMAP
DF80
D680
0000
6700
6600
6600
E600
CE00
CC00
FF00
E600
ENDCHAR
STARTCHAR uni04580447.liga
ENCODING -1
SWIDTH 697 0
DWIDTH 11 0
BBX 14 15 -3 -4
BITMAP
0600
0E00
0400
0CCC
0CCC
0DDC
1DD8
19F8
19D8
1A18
1C1C
7800
B000
B000
E000
ENDCHAR
STARTCHAR uni04580458.liga
ENCODING -1
SWIDTH 449 0
DWIDTH 7 0
BBX 11 15 -3 -4
BITMAP
06C0
0EE0
0440
0CC0
0CC0
0DC0
1DC0
1980
1980
1B80
1F80
7B00
B300
F700
EE00
ENDCHAR
STARTCHAR uni045B0447.liga
ENCODING -1
SWIDTH 937 0
DWIDTH 15 0
BBX 16 15 -1 -4
BITMAP
1800
3800
7E00
3033
3E77
3776
7766
667E
66B6
668E
EF07
1C00
2C00
2C00
3800
ENDCHAR
STARTCHAR uni045B0458.liga
ENCODING -1
SWIDTH 691 0
DWIDTH 11 0
BBX 13 15 -1 -4
BITMAP
1830
3838
7E00
3030
3E70
3770
7760
6660
6660
66E0
EFE0
1CC0
2CC0
3DC0
3B80
ENDCHAR
STARTCHAR uni044E0436.liga
ENCODING -1
SWIDTH 1503 0
DWIDTH 24 0
BBX 25 8 -1 0
BITMAP
31C73380
332B3680
37713600
7E23FC00
66636C00
66536C00
66526C80
E79CE700
ENDCHAR
STARTCHAR uni044E0437.liga
ENCODING -1
SWIDTH 1001 0
DWIDTH 16 0
BBX 17 12 -1 -4
BITMAP
31C700
332B80
377180
7E2180
666380
664300
664E00
E78700
000B00
001700
001600
000E00
ENDCHAR
STARTCHAR uni044E043B.liga
ENCODING -1
SWIDTH 1181 0
DWIDTH 19 0
BBX 20 8 -1 0
BITMAP
31C0F0
332170
372160
7E2160
666260
665A60
665AE0
E7FC70
ENDCHAR
STARTCHAR uni044E043C.liga
ENCODING -1
SWIDTH 1396 0
DWIDTH 22 0
BBX 23 8 -1 0
BITMAP
31C1C6
3321CE
3721CE
7E21DE
6662DC
667AEC
665AEC
E7FCCE
ENDCHAR
STARTCHAR uni044E0445.liga
ENCODING -1
SWIDTH 1072 0
DWIDTH 17 0
BBX 18 9 -1 0
BITMAP
0000C0
31C6C0
332E40
377780
7E2700
666700
664B00
665340
E79980
ENDCHAR
STARTCHAR uni044F0447.liga
ENCODING -1
SWIDTH 984 0
DWIDTH 16 0
BBX 17 8 -1 0
BITMAP
0FBB80
3B3300
333300
333300
1F3F00
577F00
D64700
738380
ENDCHAR
STARTCHAR brevecombcy
ENCODING -1
SWIDTH 0 0
DWIDTH 0 0
BBX 6 3 -5 9
BITMAP
44
C8
70
ENDCHAR
STARTCHAR brevecombcy.case
ENCODING -1
SWIDTH 0 0
DWIDTH 0 0
BBX 6 3 -4 12
BITMAP
44
C8
70
ENDCHAR
ENDFONT
